<?xml version="1.0" encoding="UTF-8" standalone="no"?>
<!-- Generator: Adobe Illustrator 21.0.0, SVG Export Plug-In . SVG Version: 6.00 Build 0)  -->

<svg
   xmlns:dc="http://purl.org/dc/elements/1.1/"
   xmlns:cc="http://creativecommons.org/ns#"
   xmlns:rdf="http://www.w3.org/1999/02/22-rdf-syntax-ns#"
   xmlns:svg="http://www.w3.org/2000/svg"
   xmlns="http://www.w3.org/2000/svg"
   xmlns:sodipodi="http://sodipodi.sourceforge.net/DTD/sodipodi-0.dtd"
   xmlns:inkscape="http://www.inkscape.org/namespaces/inkscape"
   version="1.1"
   id="Layer_1"
   x="0px"
   y="0px"
   viewBox="0 0 525 350"
   xml:space="preserve"
   sodipodi:docname="Clock.svg"
   width="525"
   height="350"
   inkscape:version="0.92.3 (2405546, 2018-03-11)"><metadata
   id="metadata27"><rdf:RDF><cc:Work
       rdf:about=""><dc:format>image/svg+xml</dc:format><dc:type
         rdf:resource="http://purl.org/dc/dcmitype/StillImage" /><dc:title /></cc:Work></rdf:RDF></metadata><defs
   id="defs25" /><sodipodi:namedview
   pagecolor="#ffffff"
   bordercolor="#666666"
   borderopacity="1"
   objecttolerance="10"
   gridtolerance="10"
   guidetolerance="10"
   inkscape:pageopacity="0"
   inkscape:pageshadow="2"
   inkscape:window-width="1920"
   inkscape:window-height="1017"
   id="namedview23"
   showgrid="false"
   inkscape:zoom="1.5733333"
   inkscape:cx="241.54802"
   inkscape:cy="178.01127"
   inkscape:window-x="-8"
   inkscape:window-y="-8"
   inkscape:window-maximized="1"
   inkscape:current-layer="Layer_1" />
<style
   type="text/css"
   id="style2">
	.st0{fill:#DC8B3C;}
	.st1{fill:#F25043;}
	.st2{fill:#4D3567;}
</style>
<g
   id="g8"
   transform="matrix(-0.61317837,0,0,0.61317837,652.43593,-186.81032)">
	<g
   id="g6">
		<path
   class="st0"
   d="M 549.1,819 C 422.2,819 319,715.8 319,588.9 319,462 422.2,358.8 549.1,358.8 676,358.8 779.2,462 779.2,588.9 779.2,715.8 675.9,819 549.1,819 Z m 0,-416.8 c -103,0 -186.8,83.8 -186.8,186.8 0,103 83.8,186.8 186.8,186.8 103,0 186.8,-83.8 186.8,-186.8 0,-103 -83.9,-186.8 -186.8,-186.8 z"
   id="path4"
   inkscape:connector-curvature="0"
   style="fill:#dc8b3c" />
	</g>
</g>
<path
   class="st0"
   d="m 86.778884,150.4991 h 65.916636 c 4.047,0 7.35817,-3.31117 7.35817,-7.35814 v 0 c 0,-4.04697 -3.31117,-7.35813 -7.35817,-7.35813 H 86.717552 c -4.046978,0 -7.358147,3.31116 -7.358147,7.35813 v 0 c 0.06131,4.04697 3.372489,7.35814 7.419479,7.35814 z"
   id="path10"
   inkscape:connector-curvature="0"
   style="fill:#dc8b3c;stroke-width:0.61317837" />
<path
   class="st0"
   d="M 13.504048,198.14304 H 130.74375 c 4.04697,0 7.35813,-3.31115 7.35813,-7.35813 v 0 c 0,-4.04699 -3.31116,-7.35812 -7.35813,-7.35812 H 13.504048 c -4.0469776,0 -7.358147,3.31113 -7.358147,7.35812 v 0 c 0,4.04698 3.3111694,7.35813 7.358147,7.35813 z"
   id="path12"
   inkscape:connector-curvature="0"
   style="fill:#dc8b3c;stroke-width:0.61317837" />
<path
   class="st0"
   d="M 50.110807,249.40476 H 152.69552 c 4.047,0 7.35817,-3.31117 7.35817,-7.35813 v 0 c 0,-4.04699 -3.31117,-7.35813 -7.35817,-7.35813 H 50.110807 c -4.046978,0 -7.358147,3.31114 -7.358147,7.35813 v 0 c 0.06131,4.1083 3.311169,7.35813 7.358147,7.35813 z"
   id="path14"
   inkscape:connector-curvature="0"
   style="fill:#dc8b3c;stroke-width:0.61317837" />
<rect
   x="-432.43744"
   y="74.130836"
   transform="matrix(-0.95321166,-0.30230369,-0.30230369,0.95321166,0,0)"
   class="st1"
   width="69.594894"
   height="3.6790249"
   id="rect16"
   style="fill:#f25043;stroke-width:0.61317092" />
<path
   class="st2"
   d="m 315.73967,187.16717 v 0 c 5.08937,0 9.13634,-4.10829 9.13634,-9.13636 V 97.397841 c 0,-5.089385 -4.1083,-9.136352 -9.13634,-9.136352 v 0 c -5.08939,0 -9.13638,4.108308 -9.13638,9.136352 v 80.632969 c 0,5.02807 4.10831,9.13636 9.13638,9.13636 z"
   id="path18"
   inkscape:connector-curvature="0"
   style="fill:#4d3567;stroke-width:0.61317837" />
<path
   class="st2"
   d="m 271.77477,221.93437 v 0 c 3.55644,3.55646 9.38163,3.55646 12.93806,0 l 36.66806,-36.66807 c 3.55645,-3.55642 3.55645,-9.38163 0,-12.93805 v 0 c -3.55644,-3.55644 -9.38163,-3.55644 -12.93806,0 l -36.66806,36.66805 c -3.55643,3.55646 -3.55643,9.38165 0,12.93807 z"
   id="path20"
   inkscape:connector-curvature="0"
   style="fill:#4d3567;stroke-width:0.61317837" />
</svg>