<svg width="280" height="307" viewBox="0 0 280 307" fill="none" xmlns="http://www.w3.org/2000/svg">
<g clip-path="url(#clip0_104_14)">
<path d="M245.65 231.67C245.65 231.67 272.45 227.07 278.65 232.77C280.75 234.67 275.25 237.97 269.35 239.57C258.95 242.27 236.25 243.27 236.25 243.27L245.65 231.67Z" fill="#5763AF"/>
<path d="M207.151 274.57C207.151 274.57 221.951 294.37 221.851 302.77C221.851 305.67 217.551 305.07 212.451 301.77C203.451 295.87 191.351 279.27 191.351 279.27L207.151 274.57Z" fill="#5763AF"/>
<path d="M104.45 52.4698C99.1503 53.7698 95.9503 60.0698 96.5503 67.1698C96.4503 67.1698 96.3503 67.1698 96.2503 67.2698C94.3503 67.7698 93.2503 69.5698 93.7503 71.4698C94.2503 73.3698 96.0503 74.4698 97.9503 73.9698C98.0503 73.9698 98.1503 73.9698 98.1503 73.8698C99.2503 76.4698 100.75 78.6698 102.45 80.3698L105.85 93.8698L112.55 92.1698L110.45 83.8698C111.05 83.8698 111.65 83.7698 112.25 83.6698C118.45 82.1698 121.75 73.8698 119.55 65.2698C117.45 56.6698 110.65 50.9698 104.45 52.4698V52.4698Z" fill="#F3CEBB"/>
<path d="M115.45 51.8698C113.05 55.5698 99.95 59.8698 99.95 59.8698C99.95 59.8698 100.05 65.6698 96.35 67.2698C95.25 67.7698 93.75 68.7698 93.75 70.4698C93.75 73.6698 96.95 73.4698 98.05 73.9698C100.35 75.0698 102.55 80.3698 102.55 80.3698C102.55 80.3698 87.15 81.0698 82.75 71.1698C77.05 58.2698 88.35 54.8698 88.35 54.8698C88.35 54.8698 93.95 38.7698 105.25 38.2698C110.95 38.0698 120.15 44.4698 115.45 51.8698V51.8698Z" fill="#5C3224"/>
<path d="M22.45 52.6698C23.45 50.9698 16.25 41.7698 14.45 41.7698C13.65 41.7698 14.35 46.5698 15.05 46.9698C10.45 47.9698 4.94997 41.6698 1.34997 41.4698C0.949973 43.9698 2.64997 47.2698 3.54997 49.4698C5.44997 53.8698 6.94997 55.3698 9.94997 55.3698C10.95 55.3698 20.15 56.9698 19.85 57.3698C19.75 56.3698 21.95 53.5698 22.45 52.6698Z" fill="#F3CEBB"/>
<path d="M177.75 14.8698L164.45 28.4698L154.45 23.4698L161.55 6.36977L177.75 14.8698Z" fill="#F3CEBB"/>
<path d="M169.45 17.6698L162.75 14.5698C160.75 13.6698 159.85 11.2698 160.85 9.26977C161.75 7.26977 164.15 6.36977 166.15 7.36977L172.85 10.4698C174.85 11.3698 175.75 13.7698 174.75 15.7698C173.75 17.6698 171.45 18.5698 169.45 17.6698V17.6698Z" fill="#F3CEBB"/>
<path d="M156.65 21.0698C156.65 21.0698 154.95 13.1698 156.55 11.4698C157.05 10.9698 158.15 11.8698 158.75 12.3698C160.45 13.8698 161.55 20.5698 161.55 20.5698L156.65 21.0698Z" fill="#F3CEBB"/>
<path d="M106.55 180.37C116.05 187.97 125.55 195.57 135.05 203.07C140.25 207.27 145.65 211.17 150.95 215.37C155.65 219.07 161.25 222.47 164.25 227.77C172.35 241.97 178.15 257.77 186.45 272.07C189.35 277.17 191.75 287.07 199.15 287.07C201.35 287.07 203.55 285.87 205.05 284.27C207.85 281.17 209.55 276.17 207.75 272.07C203.55 262.57 199.05 253.17 194.85 243.67C190.75 234.47 187.95 224.37 182.75 215.67C179.85 210.87 172.95 204.37 169.75 199.77C163.05 190.37 160.95 188.07 154.25 178.67C154.85 179.57 158.65 180.57 159.65 181.07C164.15 183.17 168.55 185.37 173.05 187.57C177.95 189.97 182.85 192.37 187.65 194.87C191.65 196.87 196.45 198.47 199.25 202.07C209.85 216.07 222.45 228.57 234.25 241.57C234.85 242.17 235.45 242.87 236.25 243.17C242.05 245.47 247.35 236.17 245.65 231.57C243.45 225.37 237.15 219.57 233.45 214.07C229.15 207.57 225.15 200.87 220.45 194.57C216.55 189.37 212.25 184.37 207.25 180.17C201.95 175.77 196.05 173.47 190.15 170.27C174.95 161.97 160.05 152.87 144.95 144.17L106.55 180.37Z" fill="#4659A6"/>
<path d="M104.35 88.2698C105.55 88.3698 106.75 89.0698 108.15 88.8698C110.55 88.4698 110.05 88.0698 111.45 87.0698C112.65 86.2698 114.15 86.1698 115.45 85.7698C115.45 85.7698 129.95 131.57 150.55 139.97C150.55 139.97 141.95 172.17 118.25 175.07C94.5499 177.97 96.9499 91.5698 96.9499 91.5698C98.3499 90.8698 99.7499 90.2698 101.25 89.5698C102.05 89.1698 102.95 88.7698 103.75 88.3698C103.95 88.2698 104.25 88.2698 104.35 88.2698Z" fill="#4CDFCB"/>
<path d="M147.75 138.57C144.65 147.17 135.35 167.67 116.65 169.87C110.15 170.67 105.65 164.77 102.45 155.77C105.65 167.57 110.55 175.97 118.15 174.97C141.85 172.07 150.45 139.87 150.45 139.87C149.65 139.57 148.65 139.07 147.75 138.57V138.57Z" fill="#39A798"/>
<path d="M112.25 86.9698C112.15 87.5698 112.25 88.2698 112.45 88.8698C113.25 92.9698 114.05 97.1698 114.85 101.27C116.05 107.17 117.25 113.17 120.45 118.17C123.95 123.67 129.75 127.37 134.25 131.97C139.35 137.07 143.95 142.67 147.95 148.67C149.35 150.67 150.65 152.87 152.85 154.17C158.25 157.27 163.55 152.77 166.95 148.97C169.05 146.57 170.85 143.97 172.55 141.37C174.05 138.97 176.15 136.77 177.25 134.17C178.95 129.87 175.85 127.87 172.05 127.17C160.65 124.97 147.45 118.57 140.45 108.97C133.85 99.9698 135.85 90.7698 141.25 81.9698C144.05 77.4698 146.55 73.0698 148.85 68.2698C153.85 57.4698 158.25 46.3698 163.15 35.5698C164.15 33.3698 165.15 30.9698 164.35 28.7698C163.75 26.8698 162.05 25.6698 160.35 24.6698C158.55 23.6698 156.35 22.9698 154.35 23.6698C152.55 24.3698 151.45 25.9698 150.45 27.6698C140.15 44.6698 135.55 65.4698 121.05 78.9698C118.85 81.0698 116.35 82.8698 113.95 84.7698C113.35 85.2698 112.65 85.7698 112.35 86.5698C112.35 86.5698 112.25 86.7698 112.25 86.9698V86.9698Z" fill="#F5F7F3"/>
<path opacity="0.3" d="M172.051 126.97C160.651 124.77 147.451 118.37 140.451 108.77C133.851 99.7698 135.851 90.5698 141.251 81.7698C144.051 77.2698 146.551 72.8698 148.851 68.0698C153.851 57.2698 158.251 46.1698 163.151 35.3698C164.151 33.1698 165.151 30.7698 164.351 28.5698C163.751 26.6698 162.051 25.4698 160.351 24.4698C158.551 23.4698 156.351 22.7698 154.351 23.4698C153.551 23.7698 152.851 24.2698 152.251 24.9698C153.951 24.6698 155.851 25.2698 157.451 26.1698C159.151 27.0698 160.851 28.3698 161.451 30.2698C162.251 32.4698 161.151 34.9698 160.251 37.0698C155.351 47.8698 150.951 58.9698 145.951 69.7698C143.651 74.5698 141.151 78.9698 138.351 83.4698C132.851 92.2698 130.951 101.47 137.551 110.47C144.551 120.07 157.751 126.47 169.151 128.67C172.951 129.37 176.051 131.37 174.351 135.67C173.351 138.27 171.151 140.47 169.651 142.87C167.951 145.47 166.151 148.17 164.051 150.47C162.851 151.77 161.551 153.17 159.951 154.27C162.651 153.07 165.051 150.87 166.851 148.77C168.951 146.37 170.751 143.77 172.451 141.17C173.951 138.77 176.051 136.57 177.151 133.97C178.951 129.67 175.851 127.67 172.051 126.97V126.97Z" fill="#E3E7F2"/>
<path d="M243.55 240.47C243.55 240.47 273.35 237.17 279.15 233.47C279.15 233.47 279.45 236.27 278.45 237.77C278.45 237.77 271.55 240.17 259.35 241.87C249.85 243.27 240.15 243.17 240.15 243.17L243.55 240.47Z" fill="#273884"/>
<g opacity="0.2">
<path opacity="0.2" d="M95.4504 88.8698C101.05 88.2698 106.25 92.7698 108.45 98.0698C110.65 103.27 110.65 109.17 111.05 114.77C111.45 120.47 112.35 126.37 115.95 130.77C122.25 138.47 134.45 138.87 141.05 146.27C142.05 147.37 142.85 148.67 143.05 150.17C143.15 151.37 142.75 152.57 142.35 153.77C139.05 162.07 132.15 168.77 123.75 171.67C122.65 172.07 121.55 172.37 120.45 172.17C119.45 171.97 118.65 171.37 117.85 170.77C115.55 169.07 113.15 167.37 111.35 165.17C109.65 163.07 108.45 160.67 107.35 158.27C102.55 148.27 97.8504 138.27 93.4504 128.07C91.7504 124.07 90.1504 120.07 89.4504 115.87C87.9504 106.77 90.9504 97.4698 94.6504 88.9698" fill="#39A798"/>
</g>
<path d="M103.35 88.7698C102.05 87.6698 95.5502 87.3698 93.7502 87.0698C87.3502 86.0698 80.0502 85.3698 73.9502 82.6698C69.0502 80.5698 64.4502 77.6698 60.0502 74.7698C50.6502 68.5698 41.7502 61.4698 32.7502 54.6698C31.4502 53.6698 30.0502 52.6698 28.7502 51.6698C23.5502 47.9698 17.3502 54.8698 18.1502 61.1698C18.3502 62.5698 20.3502 64.0698 21.1502 64.8698C23.3502 67.0698 25.7502 69.0698 28.0502 71.0698C39.9502 81.1698 51.3502 92.2698 65.2502 99.6698C72.6502 103.67 86.8502 105.37 88.0502 115.67C88.7502 121.47 88.2502 127.27 88.4502 133.17C88.7502 141.37 88.7502 149.67 88.6502 157.97C88.4502 169.87 88.9502 185.17 83.0502 195.97C83.0502 195.97 110.55 208.77 125.05 188.47C128.55 183.57 129.05 177.47 127.65 171.77C126.35 166.37 123.65 161.27 120.75 156.47C116.15 148.97 110.65 141.87 107.45 133.57C103.95 124.47 104.85 114.87 104.55 105.27C104.45 101.77 106.05 91.4698 103.35 88.7698Z" fill="#F5F7F3"/>
<path opacity="0.3" d="M127.65 171.67C126.35 166.27 123.65 161.17 120.75 156.37C116.15 148.87 110.65 141.77 107.45 133.47C103.95 124.37 104.85 114.77 104.55 105.17C104.45 101.67 106.05 91.3698 103.35 88.7698C102.05 87.6698 95.55 87.3698 93.75 87.0698C87.35 86.0698 80.05 85.3698 73.95 82.6698C69.05 80.5698 64.45 77.6698 60.05 74.7698C50.65 68.5698 41.75 61.4698 32.75 54.6698C31.45 53.6698 30.05 52.6698 28.75 51.6698C26.35 49.9698 23.85 50.4698 21.75 52.1698C22.95 52.0698 24.15 52.3698 25.25 53.1698C26.65 54.1698 27.95 55.1698 29.25 56.1698C38.25 62.9698 47.15 70.0698 56.55 76.2698C60.95 79.1698 65.55 82.0698 70.45 84.1698C76.55 86.7698 83.85 87.5698 90.25 88.5698C92.05 88.8698 98.65 89.1698 99.85 90.2698C102.45 92.9698 100.85 103.17 101.05 106.67C101.35 116.27 100.35 125.87 103.95 134.97C107.15 143.27 112.65 150.37 117.25 157.87C120.15 162.57 122.85 167.77 124.15 173.17C125.55 178.87 125.05 184.97 121.55 189.87C118.85 193.67 115.65 196.37 112.25 198.17C116.95 196.47 121.35 193.47 125.05 188.37C128.55 183.47 129.05 177.37 127.65 171.67Z" fill="#E3E7F2"/>
<path d="M103.35 88.7698L94.6504 105.27L101.05 106.77L97.6504 121.47L106.95 132.37C106.95 132.37 105.25 123.37 104.75 112.97C104.35 104.17 105.15 93.9698 104.85 92.1698C104.65 90.7698 103.35 88.7698 103.35 88.7698V88.7698Z" fill="#FFA300"/>
<path d="M98.2504 120.67L101.75 105.57L94.9504 104.57L94.6504 105.17L101.05 106.67L97.6504 121.37L106.95 132.27C106.95 132.27 106.85 131.57 106.65 130.47L98.2504 120.67Z" fill="#B76F08"/>
<path d="M112.75 85.6698C112.75 85.6698 111.05 87.2698 112.55 92.4698C113.95 97.2698 115.45 115.37 123.65 122.17L126.45 106.37L116.65 100.57L119.35 96.5698L112.75 85.6698Z" fill="#FFA300"/>
<path d="M116.751 100.67L119.451 96.6698L112.751 85.7698C112.751 85.7698 112.551 85.9698 112.351 86.4698L118.651 96.6698L115.951 100.67L125.751 106.47L123.051 121.67C123.251 121.87 123.551 122.07 123.751 122.27L126.551 106.47L116.751 100.67Z" fill="#B76F08"/>
</g>
<defs>
<clipPath id="clip0_104_14">
<rect width="279.685" height="306.85" fill="white"/>
</clipPath>
</defs>
</svg>
