<svg width="485" height="378" viewBox="0 0 485 378" fill="none" xmlns="http://www.w3.org/2000/svg">
<g clip-path="url(#clip0_1_310)">
<path d="M181.92 51.5425C137.567 46.4058 94.2737 75.9785 55.5217 96.8188C37.6595 106.432 19.0403 121.255 13.2881 141.655C5.49228 169.246 19.2674 203.075 29.8637 228.538C42.7305 259.726 62.7877 287.317 85.0399 312.854C95.6361 325.035 108.049 335.015 117.737 348.003C127.879 361.579 140.14 390.785 159.743 392.693C202.583 396.949 237.777 355.782 275.924 343.821C298.252 336.776 315.584 341.399 335.944 351.159C360.467 362.973 394.829 383.006 423.363 376.329C469.003 365.762 452.73 270.439 442.663 240.72C438.955 229.786 434.716 220.393 442.058 209.9C453.411 193.829 478.312 192.582 484.14 171.521C490.271 149.36 462.039 112.963 449.551 96.0116C441.982 85.8116 432.37 75.5382 419.579 73.9238C402.246 71.7957 386.125 83.0965 367.808 81.4821C334.43 78.4734 324.515 41.7827 294.619 37.3065C272.366 34.0043 262.603 58.2935 245.573 66.659C233.614 72.5295 226.803 69.0072 216.358 62.9166C204.777 56.3856 193.349 52.7899 181.92 51.5425Z" fill="url(#paint0_linear_1_310)"/>
<path d="M142.569 222.81C143.691 221.994 143.487 221.127 142.722 220.209C142.008 219.341 141.448 218.372 141.805 217.199" stroke="#E57B4C" stroke-width="1.1307" stroke-miterlimit="10" stroke-linecap="round" stroke-linejoin="round"/>
<path d="M137.778 217.148C137.778 216.74 137.88 216.28 138.033 215.872M141.754 225.31C141.397 225.004 141.04 224.494 141.295 223.984L141.754 225.31ZM142.11 228.422C142.722 227.963 143.589 227.249 142.977 226.432L142.11 228.422Z" stroke="#E57B4C" stroke-width="1.1307" stroke-miterlimit="10" stroke-linecap="round" stroke-linejoin="round"/>
<path d="M137.268 229.85C137.013 228.371 138.033 227.963 138.848 227.045C139.868 225.922 138.695 225.259 137.88 224.494C136.707 223.423 137.625 222.657 138.593 221.943C140.173 220.77 139.103 219.954 138.236 218.78" stroke="#E57B4C" stroke-width="1.1307" stroke-miterlimit="10" stroke-linecap="round" stroke-linejoin="round"/>
<path d="M135.331 224.443C134.566 223.525 132.63 222.811 133.802 221.331C134.21 220.821 135.025 220.617 135.331 220.056C135.637 219.444 135.331 218.576 135.025 218.015" stroke="#E57B4C" stroke-width="1.1307" stroke-miterlimit="10" stroke-linecap="round" stroke-linejoin="round"/>
<path d="M134.312 229.902C133.955 229.697 133.649 229.391 133.496 228.983M133.445 227.402C133.649 226.841 134.006 226.33 134.465 225.973L133.445 227.402Z" stroke="#E57B4C" stroke-width="1.1307" stroke-miterlimit="10" stroke-linecap="round" stroke-linejoin="round"/>
<g opacity="0.6">
<path opacity="0.6" d="M143.436 222.81C144.557 221.994 144.353 221.127 143.589 220.209C142.875 219.341 142.314 218.372 142.671 217.199" stroke="white" stroke-width="2.2615" stroke-miterlimit="10" stroke-linecap="round" stroke-linejoin="round"/>
<path opacity="0.6" d="M138.644 217.148C138.644 216.74 138.746 216.28 138.899 215.872M142.62 225.31C142.263 225.004 141.906 224.494 142.161 223.984L142.62 225.31ZM142.977 228.422C143.589 227.963 144.455 227.249 143.843 226.432L142.977 228.422Z" stroke="white" stroke-width="2.2615" stroke-miterlimit="10" stroke-linecap="round" stroke-linejoin="round"/>
<path opacity="0.6" d="M138.135 229.85C137.88 228.371 138.899 227.963 139.715 227.045C140.734 225.922 139.562 225.259 138.746 224.494C137.574 223.423 138.491 222.657 139.46 221.943C141.04 220.77 139.97 219.954 139.103 218.78" stroke="white" stroke-width="2.2615" stroke-miterlimit="10" stroke-linecap="round" stroke-linejoin="round"/>
<path opacity="0.6" d="M136.198 224.443C135.433 223.524 133.496 222.81 134.668 221.331C135.076 220.821 135.892 220.617 136.198 220.055C136.503 219.443 136.198 218.576 135.892 218.015" stroke="white" stroke-width="2.2615" stroke-miterlimit="10" stroke-linecap="round" stroke-linejoin="round"/>
<path opacity="0.6" d="M135.178 229.902C134.821 229.697 134.516 229.391 134.363 228.983M134.312 227.402C134.516 226.841 134.872 226.33 135.331 225.973L134.312 227.402Z" stroke="white" stroke-width="2.2615" stroke-miterlimit="10" stroke-linecap="round" stroke-linejoin="round"/>
</g>
<path d="M124.423 254.287H130.081V251.838H124.423C123.2 251.838 122.18 250.818 122.18 249.593V242.502C122.18 241.278 123.2 240.258 124.423 240.258H130.081V237.86H124.423C121.874 237.86 119.785 239.951 119.785 242.502V249.593C119.785 252.195 121.874 254.287 124.423 254.287Z" fill="white"/>
<path opacity="0.53" d="M125.391 237.86H130.132V240.309H125.391C125.442 239.492 125.442 238.676 125.391 237.86ZM125.188 251.838H130.132V254.287H125.493C125.341 253.478 125.239 252.66 125.188 251.838Z" fill="#DEE4F8"/>
<path d="M127.634 234.646V256.837C127.634 258.419 131.151 259.796 135.994 260.204C136.758 260.255 137.523 260.307 138.338 260.307H139.001C142.008 260.307 144.761 259.949 146.8 259.388C148.992 258.776 150.419 257.858 150.419 256.837V234.646H127.634Z" fill="white"/>
<path opacity="0.53" d="M135.994 260.204L138.338 260.307H139.001C142.008 260.307 144.761 259.949 146.8 259.388C148.992 258.776 150.419 257.858 150.419 256.837V234.646H138.135C139.358 243.217 138.593 251.991 135.994 260.204Z" fill="#DEE4F8"/>
<path opacity="0.53" d="M139.052 260.357C142.059 260.357 144.812 260 146.851 259.439C149.043 258.827 150.47 257.909 150.47 256.888V234.697H144.455C143.945 243.522 141.906 252.246 138.389 260.357H139.052Z" fill="#DEE4F8"/>
<path d="M139.052 238.115C145.33 238.115 150.419 236.562 150.419 234.646C150.419 232.73 145.33 231.177 139.052 231.177C132.774 231.177 127.685 232.73 127.685 234.646C127.685 236.562 132.774 238.115 139.052 238.115Z" fill="white"/>
<path opacity="0.53" d="M139.052 238.727C144.992 238.727 149.807 237.174 149.807 235.258C149.807 233.342 144.992 231.789 139.052 231.789C133.112 231.789 128.297 233.342 128.297 235.258C128.297 237.174 133.112 238.727 139.052 238.727Z" fill="#DEE4F8"/>
<path opacity="0.53" d="M141.193 229.34C141.703 231.381 140.785 233.524 139.307 235.36C137.829 237.197 135.79 238.727 133.751 240.308C137.88 240.768 142.11 240.768 146.188 240.206C148.941 239.849 151.795 239.135 153.375 237.554C155.108 235.87 154.904 233.37 153.12 231.687C151.336 230.003 148.227 229.085 145.22 229.085" fill="#DEE4F8"/>
<path d="M139.052 237.962C144.767 237.962 149.399 236.751 149.399 235.258C149.399 233.765 144.767 232.554 139.052 232.554C133.337 232.554 128.705 233.765 128.705 235.258C128.705 236.751 133.337 237.962 139.052 237.962Z" fill="#C9CFE2"/>
<path d="M258.225 296.629C263.883 282.906 277.645 263.367 269.031 248.42C266.126 243.37 261.997 240.717 257.358 237.707C237.02 224.341 250.477 211.128 250.477 211.128C255.019 207.34 258.67 202.597 261.172 197.236C263.674 191.875 264.965 186.028 264.953 180.111C264.953 169.959 261.181 160.674 255.014 153.583L257.715 151.135C258.276 151.492 258.939 151.747 259.652 151.798C261.742 151.9 263.526 150.267 263.628 148.176C263.73 146.084 262.099 144.299 260.009 144.197C257.919 144.095 256.135 145.727 256.033 147.819C255.982 148.686 256.237 149.553 256.747 150.216L254.096 152.614C246.705 144.707 236.205 139.758 224.583 139.758C212.962 139.758 202.461 144.707 195.121 152.563L191.91 149.349C192.267 148.788 192.471 148.074 192.471 147.36C192.471 145.268 190.738 143.533 188.648 143.533C186.558 143.533 184.825 145.268 184.825 147.36C184.825 149.451 186.558 151.186 188.648 151.186C189.514 151.186 190.381 150.88 190.993 150.369L194.153 153.532C187.934 160.623 184.162 169.959 184.162 180.111C184.162 192.559 189.82 203.731 198.638 211.128C198.638 211.128 212.095 224.341 191.757 237.707C187.119 240.768 182.99 243.421 180.085 248.42C171.47 263.367 185.233 282.957 190.891 296.629C193.694 303.363 196.396 310.199 198.791 317.086C201.289 324.228 204.296 333.819 199.964 340.859C199.097 342.236 197.925 343.257 196.651 344.175C195.478 345.042 193.745 345.807 193.082 347.185C192.012 349.48 195.376 348.868 196.447 348.562C199.454 347.695 202.054 345.705 203.838 343.206C206.233 339.89 207.457 335.911 207.712 331.829C207.712 331.523 207.864 329.432 208.017 327.442C208.272 333.972 208.629 353.051 203.889 357.286C203.889 357.286 200.066 360.449 203.889 360.449C205.163 360.449 213.42 357.898 215.969 339.431C216.02 339.175 216.275 338.716 216.326 338.41C218.212 330.044 218.976 321.065 218.62 312.495C218.365 305.863 216.683 299.435 214.95 293.007L212.758 285.253C210.464 277.549 207.915 269.438 208.986 261.276C209.241 259.235 209.954 257.042 210.158 255.001C210.158 254.95 210.26 254.95 210.26 255.001C210.515 258.011 211.942 261.378 212.605 264.184C214.338 271.326 215.918 278.519 217.192 285.814C218.365 292.14 219.129 298.568 219.588 304.995L220.862 325.657C221.321 332.493 222.137 339.329 222.341 346.216C222.391 347.797 222.391 349.429 222.341 351.011C222.239 353.715 222.341 356.98 220.658 359.275C220.302 359.734 219.129 360.908 219.741 361.52C220.76 362.591 223.054 361.214 223.921 360.449C225.246 359.275 226.011 357.49 226.724 355.857C228.304 352.235 228.865 348.256 229.222 344.328C229.833 337.594 230.496 330.911 230.751 324.177C231.006 317.443 231.363 310.709 231.974 304.026C233.147 290.66 235.186 277.345 238.652 264.337C239.467 261.276 240.334 258.266 241.302 255.256C242.933 260.613 242.831 266.377 241.914 271.938C240.996 277.447 239.263 282.804 237.683 288.212C235.746 294.742 234.013 301.373 232.994 308.158C231.974 314.841 231.974 321.524 232.688 328.258C232.994 331.421 233.503 334.533 234.115 337.645C234.676 340.553 235.033 343.512 236.001 346.318C237.02 349.889 238.55 353.511 241.047 356.367C242.271 357.796 244.462 359.836 246.552 359.836C250.375 359.836 246.552 356.674 246.552 356.674C243.443 353.919 242.525 344.736 242.322 336.88C242.984 339.124 243.953 341.318 245.329 343.206C247.164 345.705 249.713 347.695 252.72 348.562C253.79 348.868 257.154 349.48 256.084 347.185C255.421 345.807 253.688 345.042 252.516 344.175C251.242 343.257 250.018 342.185 249.203 340.859C244.819 333.819 247.878 324.228 250.375 317.086C252.72 310.199 255.421 303.414 258.225 296.629Z" fill="#776EEA"/>
<path d="M216.02 148.788C217.906 148.788 219.435 148.24 219.435 147.563C219.435 146.887 217.906 146.339 216.02 146.339C214.134 146.339 212.605 146.887 212.605 147.563C212.605 148.24 214.134 148.788 216.02 148.788Z" fill="#9E94FF"/>
<path d="M227.285 154.247C229.621 154.247 231.516 153.15 231.516 151.798C231.516 150.445 229.621 149.349 227.285 149.349C224.948 149.349 223.054 150.445 223.054 151.798C223.054 153.15 224.948 154.247 227.285 154.247Z" fill="#9E94FF"/>
<path d="M228.151 147.87C229.306 147.87 230.241 147.344 230.241 146.696C230.241 146.048 229.306 145.523 228.151 145.523C226.997 145.523 226.061 146.048 226.061 146.696C226.061 147.344 226.997 147.87 228.151 147.87Z" fill="#9E94FF"/>
<path d="M242.095 153.21C242.616 152.307 241.496 150.684 239.595 149.586C237.693 148.487 235.729 148.328 235.209 149.231C234.688 150.133 235.807 151.756 237.709 152.855C239.61 153.954 241.574 154.113 242.095 153.21Z" fill="#9E94FF"/>
<path d="M243.545 179.601C243.545 182.361 242.449 185.008 240.499 186.96C238.549 188.911 235.904 190.008 233.147 190.008C230.389 190.008 227.744 188.911 225.794 186.96C223.844 185.008 222.748 182.361 222.748 179.601C222.748 177.356 223.462 175.265 224.685 173.53C226.571 170.877 229.63 169.194 233.147 169.194C238.906 169.194 243.545 173.887 243.545 179.601Z" fill="white"/>
<path d="M218.202 152.105C219.477 151.88 220.447 151.337 220.369 150.893C220.291 150.449 219.194 150.272 217.918 150.497C216.643 150.723 215.673 151.265 215.751 151.709C215.829 152.153 216.926 152.33 218.202 152.105Z" fill="#9E94FF"/>
<path d="M255.574 185.723C257.095 185.723 258.327 184.489 258.327 182.968C258.327 181.447 257.095 180.213 255.574 180.213C254.054 180.213 252.822 181.447 252.822 182.968C252.822 184.489 254.054 185.723 255.574 185.723Z" fill="#6EB3FF"/>
<path d="M255.88 184.651C256.865 184.651 257.664 183.852 257.664 182.866C257.664 181.88 256.865 181.08 255.88 181.08C254.895 181.08 254.096 181.88 254.096 182.866C254.096 183.852 254.895 184.651 255.88 184.651Z" fill="#0F234F"/>
<path d="M256.135 184.549C256.445 184.549 256.696 184.298 256.696 183.988C256.696 183.678 256.445 183.427 256.135 183.427C255.825 183.427 255.574 183.678 255.574 183.988C255.574 184.298 255.825 184.549 256.135 184.549Z" fill="white"/>
<path d="M238.55 184.907C238.803 184.907 239.008 184.701 239.008 184.447C239.008 184.194 238.803 183.988 238.55 183.988C238.296 183.988 238.091 184.194 238.091 184.447C238.091 184.701 238.296 184.907 238.55 184.907Z" fill="white"/>
<path d="M238.448 185.672C240.08 185.672 241.404 184.347 241.404 182.713C241.404 181.079 240.08 179.754 238.448 179.754C236.815 179.754 235.491 181.079 235.491 182.713C235.491 184.347 236.815 185.672 238.448 185.672Z" fill="#6EB3FF"/>
<path d="M238.805 184.549C239.874 184.549 240.741 183.681 240.741 182.611C240.741 181.54 239.874 180.672 238.805 180.672C237.735 180.672 236.868 181.54 236.868 182.611C236.868 183.681 237.735 184.549 238.805 184.549Z" fill="#0F234F"/>
<path d="M239.11 184.396C239.448 184.396 239.722 184.122 239.722 183.784C239.722 183.446 239.448 183.172 239.11 183.172C238.773 183.172 238.499 183.446 238.499 183.784C238.499 184.122 238.773 184.396 239.11 184.396Z" fill="white"/>
<path d="M223.717 172.357C223.717 172.357 227.54 167.816 232.535 168.021C232.535 168.021 237.581 166.847 243.494 172.204C243.545 172.459 241.914 173.275 241.914 173.275C241.914 173.275 237.989 169.5 232.994 169.704C233.096 169.908 229.222 168.99 225.246 173.581L223.717 172.357Z" fill="#0A163F"/>
<path d="M233.096 169.857C234.419 169.857 235.491 168.784 235.491 167.459C235.491 166.135 234.419 165.062 233.096 165.062C231.773 165.062 230.7 166.135 230.7 167.459C230.7 168.784 231.773 169.857 233.096 169.857Z" fill="#FFC050"/>
<path d="M234.166 168.072C234.814 168.072 235.338 167.546 235.338 166.898C235.338 166.25 234.814 165.725 234.166 165.725C233.519 165.725 232.994 166.25 232.994 166.898C232.994 167.546 233.519 168.072 234.166 168.072Z" fill="white"/>
<path d="M195.376 235.258C192.675 237.452 191.095 242.502 190.177 245.614C187.272 255.205 188.546 265.51 192.165 274.744C195.58 283.416 199.046 292.293 202.105 301.22C205.01 309.638 208.17 318.718 208.17 327.748C208.17 327.748 208.986 339.941 201.187 346.113C200.881 346.164 196.141 350.45 192.981 348.307C192.981 348.307 192.675 347.185 194.561 345.654C194.714 345.654 203.43 341.42 202.207 330.248C201.85 329.891 201.391 321.014 193.796 303.72C193.898 303.822 180.747 274.489 180.747 274.489C180.747 274.489 171.521 255.562 183.958 243.676C186.303 241.431 188.954 239.645 191.706 237.962C192.93 237.044 194.204 236.176 195.376 235.258Z" fill="url(#paint1_linear_1_310)"/>
<path d="M253.994 235.258C256.696 237.452 258.276 242.502 259.193 245.614C262.099 255.205 260.825 265.51 257.205 274.744C253.79 283.416 250.324 292.293 247.266 301.22C244.361 309.638 241.2 318.718 241.2 327.748C241.2 327.748 240.385 339.941 248.183 346.113C248.489 346.164 253.23 350.45 256.39 348.307C256.39 348.307 256.696 347.185 254.81 345.654C254.657 345.654 245.941 341.42 247.164 330.248C247.521 329.891 247.98 321.014 255.574 303.72C255.472 303.822 268.623 274.489 268.623 274.489C268.623 274.489 277.849 255.562 265.412 243.676C263.067 241.431 260.417 239.645 257.664 237.962L253.994 235.258Z" fill="url(#paint2_linear_1_310)"/>
<path d="M189.672 148.797C190.468 148 190.468 146.708 189.672 145.911C188.876 145.114 187.585 145.114 186.789 145.911C185.992 146.708 185.992 148 186.789 148.797C187.585 149.594 188.876 149.594 189.672 148.797Z" fill="#7272F2"/>
<path d="M189.005 147.36C189.427 147.36 189.769 147.017 189.769 146.594C189.769 146.172 189.427 145.829 189.005 145.829C188.582 145.829 188.24 146.172 188.24 146.594C188.24 147.017 188.582 147.36 189.005 147.36Z" fill="#F0F0FF"/>
<path d="M262.155 148.289C262.951 147.492 262.951 146.2 262.155 145.403C261.359 144.606 260.068 144.606 259.272 145.403C258.475 146.2 258.475 147.492 259.272 148.289C260.068 149.086 261.359 149.086 262.155 148.289Z" fill="#7272F2"/>
<path d="M261.487 146.849C261.909 146.849 262.252 146.507 262.252 146.084C262.252 145.661 261.909 145.319 261.487 145.319C261.065 145.319 260.723 145.661 260.723 146.084C260.723 146.507 261.065 146.849 261.487 146.849Z" fill="#F0F0FF"/>
<path d="M260.57 252.042C260.57 252.042 260.723 231.687 244.921 233.218C245.89 233.728 257.358 233.575 260.57 252.042Z" fill="#827FF4"/>
<path d="M241.557 327.289C242.576 321.626 243.341 315.913 245.023 310.403C246.96 303.975 249.56 297.751 252.516 291.732C258.021 280.559 261.691 267.397 261.028 254.899C260.977 253.981 260.926 253.062 260.825 252.144C260.875 262.245 258.378 272.193 254.963 281.631C251.599 290.813 246.96 299.384 244.004 308.72C242.627 313.158 241.761 317.749 241.353 322.392C241.2 324.075 241.302 325.708 241.455 327.289H241.557ZM207.763 327.289C206.743 321.626 205.978 315.913 204.296 310.403C202.359 303.975 199.76 297.751 196.803 291.732C191.299 280.559 187.628 267.397 188.291 254.899C188.342 253.981 188.393 253.062 188.495 252.144C188.444 262.245 190.942 272.193 194.357 281.631C197.721 290.813 202.359 299.384 205.316 308.72C206.692 313.158 207.559 317.749 207.966 322.392C208.119 324.075 208.017 325.708 207.864 327.289H207.763ZM240.741 256.99C240.741 256.99 232.79 282.6 231.465 310.505C231.821 310.148 229.426 342.542 229.426 342.542L231.617 293.517C231.108 293.976 234.574 263.418 240.741 256.99Z" fill="#5956D6"/>
<path d="M253.026 193.783C252.108 193.426 251.089 193.885 250.171 194.038C249.152 194.242 248.081 194.038 247.113 193.63C247.011 193.579 246.909 193.528 246.858 193.63C246.807 193.681 246.807 193.732 246.807 193.834C246.96 195.364 248.285 196.13 249.764 196.028C250.477 195.977 251.191 195.722 251.802 195.364C252.006 195.211 253.434 193.936 253.026 193.783Z" fill="#272772"/>
<path opacity="0.36" d="M245.941 235.768C245.482 235.615 245.125 235.309 244.921 234.952C236.256 240.309 215.459 253.215 209.037 252.297C209.037 252.297 187.985 252.756 185.233 245.818C184.825 245.461 183.296 248.675 183.296 248.675C182.939 249.44 182.073 250.205 181.563 250.92C180.136 252.909 178.759 254.95 177.587 257.092C177.536 257.195 177.485 257.348 177.485 257.45C177.485 257.705 177.791 257.858 178.046 257.909C182.48 259.49 187.221 261.072 191.859 261.786C196.09 262.398 202.41 263.214 206.488 261.582C221.219 258.674 233.707 249.083 243.749 238.37C244.513 237.554 245.38 236.738 246.246 235.87C246.094 235.819 245.992 235.768 245.941 235.768ZM199.76 248.267C197.058 247.757 194.306 247.859 191.553 247.553C188.444 247.196 185.895 246.379 183.449 244.288C183.806 243.829 184.009 243.267 184.264 242.706C185.488 239.849 187.934 237.707 190.687 236.227C193.439 234.748 196.447 233.932 199.403 233.115C197.16 233.728 194.204 237.146 192.93 238.931C190.891 241.89 192.063 244.951 195.07 246.634C196.549 247.502 198.231 247.808 199.76 248.267Z" fill="#2E2E7C"/>
<path d="M244.208 236.533C239.875 234.799 235.135 237.401 231.108 238.931C225.552 241.074 219.996 243.165 214.287 244.951C207.151 247.247 199.403 248.624 192.267 245.563C190.279 244.696 188.291 242.757 188.903 240.717C189.209 239.645 190.177 238.88 191.095 238.268C192.063 237.605 193.083 236.993 194.102 236.38C196.09 234.646 198.689 233.728 200.423 231.738L200.473 231.687C193.184 231.024 185.437 230.208 178.81 233.064C169.788 236.993 171.623 249.032 179.575 253.011C193.949 260.306 211.076 254.542 225.144 249.389C229.528 247.757 233.809 245.614 237.785 243.267C238.703 242.808 247.215 237.707 244.208 236.533Z" fill="url(#paint3_linear_1_310)"/>
<path d="M231.719 238.37L230.394 238.931L224.074 241.074C220.2 242.298 216.326 243.676 212.401 244.747C205.775 246.533 198.486 247.706 191.808 245.359C192.114 245.563 192.42 245.767 192.675 245.971C196.141 247.094 199.76 247.451 203.481 247.604C208.272 247.043 212.962 245.665 217.498 244.135L222.697 242.4C223.972 241.941 225.246 241.482 226.469 240.921C228.1 240.258 229.681 239.492 231.261 238.829C231.414 238.778 231.668 238.625 231.974 238.472C231.923 238.421 231.821 238.37 231.719 238.37Z" fill="#8FA5FF"/>
<path d="M249.56 236.329C250.222 236.227 250.834 236.176 251.14 236.176C254.963 236.023 259.04 237.452 261.487 240.462C261.793 240.819 261.997 241.38 261.64 241.635C261.538 241.737 261.385 241.737 261.232 241.737C259.295 241.737 252.414 238.115 251.293 240.819C250.783 242.094 253.535 242.196 253.23 243.012C252.822 244.237 250.222 242.961 249.611 242.604C248.183 241.839 246.195 240.462 245.89 238.727C245.533 236.84 248.285 236.533 249.56 236.329Z" fill="#4D4DC1"/>
<path d="M250.171 235.87C250.834 235.768 251.446 235.717 251.751 235.717C255.574 235.564 259.652 236.993 262.099 240.003C262.405 240.36 262.609 240.921 262.252 241.176C262.15 241.278 261.997 241.278 261.844 241.278C259.907 241.278 253.026 237.656 251.904 240.36C251.395 241.635 254.147 241.737 253.841 242.553C253.434 243.778 250.834 242.502 250.222 242.145C248.795 241.38 246.807 240.003 246.501 238.268C246.145 236.381 248.897 236.075 250.171 235.87Z" fill="#AEC1FF"/>
<path d="M246.908 238.172C247.157 236.501 246.004 234.943 244.333 234.695C242.662 234.446 241.106 235.599 240.857 237.271C240.609 238.943 241.762 240.5 243.432 240.749C245.103 240.998 246.659 239.844 246.908 238.172Z" fill="#3B3BA8"/>
<path d="M245.798 238.007C245.956 236.948 245.225 235.962 244.167 235.804C243.109 235.646 242.124 236.377 241.966 237.436C241.809 238.495 242.539 239.481 243.597 239.639C244.656 239.796 245.641 239.066 245.798 238.007Z" fill="#DCDCFF"/>
<path d="M212.248 352.541C209.75 350.297 207.049 351.062 206.896 351.113L206.743 350.603C206.845 350.552 209.852 349.685 212.605 352.133L212.248 352.541ZM214.899 344.787C212.554 342.747 207.966 343.461 207.915 343.512L207.813 342.951C208.017 342.9 212.707 342.134 215.255 344.379L214.899 344.787ZM216.632 336.727C212.248 332.799 208.527 335.707 208.374 335.86L208.017 335.451C208.068 335.4 212.248 332.084 217.039 336.37L216.632 336.727ZM218.212 325.555C212.605 321.473 208.221 324.534 208.17 324.585L207.864 324.126C207.915 324.075 212.656 320.81 218.569 325.146L218.212 325.555ZM218.008 314.943C211.636 311.73 207.049 314.892 206.998 314.892L206.692 314.433C206.743 314.382 211.534 311.066 218.263 314.433L218.008 314.943ZM204.551 305.965L204.092 305.71C204.194 305.506 206.641 301.322 210.668 300.659C212.962 300.251 215.306 301.118 217.651 303.159L217.294 303.567C215.102 301.629 212.911 300.812 210.77 301.169C206.998 301.782 204.602 305.914 204.551 305.965ZM200.83 296.935L200.27 296.833C200.321 296.68 201.238 292.599 204.857 290.609C207.406 289.181 210.617 289.13 214.389 290.507L214.185 291.018C210.566 289.742 207.508 289.793 205.112 291.12C201.748 292.956 200.83 296.884 200.83 296.935ZM196.09 284.284L195.58 284.079C195.631 283.926 197.415 279.998 201.391 278.468C203.94 277.499 206.794 277.652 209.954 279.08L209.75 279.59C206.794 278.264 204.042 278.06 201.646 278.978C197.823 280.457 196.09 284.284 196.09 284.284ZM203.583 343.257C203.481 342.543 203.175 341.981 202.665 341.624C201.646 340.859 200.117 341.114 200.117 341.114L200.015 340.553C200.066 340.553 201.748 340.247 203.022 341.114C203.685 341.573 204.042 342.236 204.194 343.155L203.583 343.257ZM206.896 336.166C205.418 333.462 202.41 334.635 202.257 334.686L202.054 334.176C202.105 334.176 205.673 332.799 207.355 335.911L206.896 336.166ZM201.442 325.861L201.136 325.402C201.187 325.351 205.622 322.443 208.17 325.453L207.762 325.81C205.469 323.208 201.442 325.861 201.442 325.861ZM199.097 317.239L198.638 316.933C198.689 316.882 201.85 312.24 207.1 315.046L206.845 315.556C202.054 313.005 199.199 317.086 199.097 317.239ZM195.223 306.934L194.765 306.628C194.816 306.577 198.486 301.578 203.736 303.618L203.532 304.128C198.689 302.241 195.376 306.781 195.223 306.934ZM190.687 296.476L190.279 296.068C190.483 295.864 195.427 291.12 199.454 294.027L199.148 294.487C195.529 291.834 190.738 296.425 190.687 296.476ZM186.405 286.732L185.997 286.375C186.048 286.324 190.177 281.325 196.039 285.202L195.733 285.661C190.228 282.09 186.558 286.579 186.405 286.732ZM227.183 354.174C226.673 352.95 226.011 352.184 225.144 351.929C223.819 351.572 222.544 352.541 222.493 352.541L222.137 352.082C222.188 352.031 223.666 350.96 225.246 351.368C226.265 351.674 227.081 352.49 227.642 353.919L227.183 354.174ZM228.916 344.685C226.877 341.624 222.697 343.665 222.646 343.665L222.391 343.155C222.442 343.155 227.03 340.859 229.375 344.379L228.916 344.685ZM221.678 334.329L221.372 333.87C221.423 333.819 227.081 329.942 229.935 333.921L229.477 334.227C226.928 330.707 221.78 334.278 221.678 334.329ZM230.547 324.381C226.265 319.739 220.913 323.361 220.862 323.412L220.557 322.953C220.607 322.902 226.316 319.025 230.955 324.024L230.547 324.381ZM231.21 311.015C225.96 306.271 220.404 310.811 220.2 311.015L219.843 310.607C219.894 310.556 225.96 305.557 231.617 310.607L231.21 311.015ZM218.874 296.476L218.569 296.017C218.62 295.966 225.348 291.936 231.465 296.017L231.159 296.476C225.348 292.599 218.976 296.476 218.874 296.476ZM216.836 283.11L216.479 282.651C216.581 282.6 224.94 276.223 232.994 282.651L232.637 283.059C224.94 276.988 216.887 283.059 216.836 283.11ZM240.181 355.041L239.671 354.786C241.098 351.776 244.36 352.541 244.411 352.541L244.259 353.103C244.157 353.103 241.404 352.439 240.181 355.041ZM236.358 346.93L235.899 346.624C238.499 342.645 242.831 344.328 242.882 344.328L242.678 344.838C242.475 344.787 238.703 343.308 236.358 346.93ZM234.217 337.186L233.758 336.829C237.021 332.493 242.016 334.788 242.067 334.788L241.812 335.298C241.608 335.247 237.173 333.207 234.217 337.186ZM232.739 327.493L232.382 327.085C236.409 323.616 241.404 326.422 241.455 326.473L241.2 326.932C241.098 326.932 236.46 324.279 232.739 327.493ZM232.382 315.964L232.076 315.505C237.479 311.525 242.373 315.454 242.424 315.505L242.067 315.913C241.863 315.811 237.428 312.24 232.382 315.964ZM245.635 303.567C241.506 296.986 234.982 299.894 234.676 300.047L234.421 299.537C234.472 299.486 241.659 296.323 246.043 303.312L245.635 303.567ZM250.936 290.558C247.674 283.722 238.652 285.559 238.55 285.61L238.448 285.049C238.55 285.049 247.98 283.11 251.446 290.303L250.936 290.558ZM252.006 343.563C250.987 343.563 250.171 343.869 249.56 344.43C248.591 345.399 248.642 346.726 248.642 346.777H249.203C249.203 346.777 249.152 345.603 249.916 344.838C250.426 344.328 251.191 344.073 252.21 344.124V343.869C252.159 343.716 252.057 343.614 252.006 343.563Z" fill="#3D3AA5"/>
<path d="M248.489 338.716C247.266 338.41 246.246 338.512 245.482 339.022C244.208 339.89 244.055 341.624 244.055 341.675L244.615 341.726C244.615 341.726 244.717 340.196 245.788 339.482C246.45 339.022 247.317 338.971 248.438 339.278L248.54 338.869C248.489 338.818 248.489 338.767 248.489 338.716ZM241.455 331.523L240.996 331.166C241.047 331.115 243.596 327.952 247.317 330.35L247.011 330.809C243.749 328.717 241.557 331.421 241.455 331.523ZM248.54 323.361C248.387 323.208 244.615 319.535 241.557 322.596L241.149 322.188C244.615 318.719 248.897 322.902 248.948 322.953L248.54 323.361ZM251.191 314.076C251.089 313.872 248.387 309.587 243.392 311.372L243.188 310.862C248.642 308.924 251.65 313.77 251.65 313.821L251.191 314.076ZM255.421 303.72C255.421 303.669 254.504 300.71 252.108 299.741C250.732 299.18 249.101 299.384 247.317 300.404L247.062 299.894C248.999 298.823 250.783 298.568 252.363 299.231C254.963 300.302 255.931 303.465 255.982 303.567L255.421 303.72ZM260.825 291.426C260.774 291.221 258.99 285.916 252.822 287.395L252.669 286.834C259.346 285.202 261.283 291.17 261.283 291.221L260.825 291.426Z" fill="#3D3AA5"/>
<path d="M197.925 246.175C197.925 246.175 190.075 251.226 194.714 255.562M231.465 238.013C231.465 238.013 228.457 239.849 233.096 245.308L231.465 238.013ZM222.341 241.584C222.341 241.584 220.353 244.9 224.889 248.879L222.341 241.584ZM215.357 243.778C215.357 243.778 213.013 248.522 217.243 251.073L215.357 243.778ZM205.927 246.124C205.927 246.124 200.728 250.461 207.61 253.93L205.927 246.124Z" stroke="#3D3AA5" stroke-width="1.0836" stroke-miterlimit="10"/>
<path d="M259.295 259.796C264.222 259.796 268.215 255.799 268.215 250.869C268.215 245.938 264.222 241.941 259.295 241.941C254.369 241.941 250.375 245.938 250.375 250.869C250.375 255.799 254.369 259.796 259.295 259.796Z" fill="#0C3356"/>
<path d="M92.8712 256.735H430.307V266.938H92.8712V256.735Z" fill="#83AAE2"/>
<path d="M252.822 249.185H317.047V256.735H248.081V253.929C248.081 251.277 250.171 249.185 252.822 249.185Z" fill="#CED5E0"/>
<path d="M279.939 256.735H380.762L408.287 179.04H311.899C309.248 179.04 306.852 180.723 305.986 183.223L279.939 256.735Z" fill="#CED5E0"/>
<path d="M288.451 256.735H389.274L414.404 185.927C415.576 182.56 413.129 179.04 409.561 179.04H320.411C317.76 179.04 315.365 180.723 314.498 183.223L288.451 256.735Z" fill="white"/>
<path d="M294.16 240.717C294.16 240.717 331.37 244.696 360.832 234.697C390.243 224.749 407.777 204.649 407.777 204.649L389.325 256.735H288.451L294.16 240.717Z" fill="#E2E6ED"/>
<path d="M108.163 266.938H416.035V393.455H108.163V266.938Z" fill="#255293"/>
<g opacity="0.8">
<path opacity="0.54" d="M275.148 84.5601H327.088V136.136H275.148V84.5601Z" fill="white"/>
<path opacity="0.17" d="M278.308 87.6719H323.877V133.279H278.308V87.6719Z" fill="black"/>
<path opacity="0.5" d="M307.464 100.681C307.464 100.681 307.413 100.681 307.464 100.681C307.26 99.0993 305.884 97.824 304.253 97.824C302.469 97.824 301.041 99.2524 301.041 101.038V101.089C300.889 101.038 300.787 101.038 300.634 101.038C299.767 101.038 299.104 101.65 299.003 102.466C298.799 102.415 298.595 102.364 298.34 102.364C297.27 102.364 296.352 103.232 296.352 104.354C296.352 105.425 297.219 106.343 298.34 106.343H307.464C307.839 106.344 308.21 106.271 308.557 106.127C308.904 105.984 309.219 105.774 309.484 105.508C309.749 105.243 309.959 104.928 310.102 104.581C310.246 104.234 310.319 103.862 310.318 103.487C310.267 101.956 308.993 100.681 307.464 100.681Z" fill="white"/>
<path opacity="0.35" d="M278.002 133.33C278.002 133.33 284.883 131.596 288.4 128.484C293.141 124.25 295.689 120.832 300.787 120.832C306.597 120.832 314.753 132.514 323.571 133.33H278.002Z" fill="#6D2722"/>
<path opacity="0.5" d="M284.832 128.229C287 128.229 288.757 126.47 288.757 124.301C288.757 122.131 287 120.373 284.832 120.373C282.665 120.373 280.907 122.131 280.907 124.301C280.907 126.47 282.665 128.229 284.832 128.229Z" fill="white"/>
<path opacity="0.61" d="M284.577 131.647L284.628 127.413L282.742 125.219L284.577 126.749L284.883 125.015L285.24 126.851L287.279 125.372L285.24 127.413L285.189 131.647H284.577Z" fill="#592D20"/>
<path opacity="0.5" d="M294.364 125.27C295.969 125.27 297.27 123.968 297.27 122.362C297.27 120.756 295.969 119.454 294.364 119.454C292.76 119.454 291.459 120.756 291.459 122.362C291.459 123.968 292.76 125.27 294.364 125.27Z" fill="white"/>
<path opacity="0.61" d="M294.16 127.77V124.658L292.784 123.025L294.16 124.148L294.364 122.872L294.619 124.25L296.148 123.127L294.619 124.658V127.77H294.16Z" fill="#592D20"/>
</g>
<path d="M354.817 248.063C356.754 245.512 360.679 242.247 359.761 238.676C359.456 237.452 358.742 236.686 357.926 235.819C354.46 231.891 357.977 229.953 357.977 229.953C360.22 228.932 362.004 226.892 362.718 224.341C363.279 222.249 363.024 220.107 362.157 218.27L362.871 217.913C362.973 218.015 363.075 218.117 363.228 218.168C363.635 218.321 364.094 218.066 364.247 217.658C364.4 217.25 364.145 216.791 363.737 216.638C363.33 216.485 362.871 216.74 362.718 217.148C362.667 217.352 362.667 217.505 362.718 217.709L362.055 218.066C360.985 216.025 359.048 214.393 356.652 213.73C354.256 213.067 351.81 213.526 349.822 214.75L349.363 213.934C349.465 213.832 349.567 213.73 349.567 213.577C349.669 213.118 349.414 212.709 349.006 212.556C348.548 212.454 348.14 212.709 347.987 213.118C347.885 213.577 348.14 213.985 348.548 214.138C348.751 214.189 348.904 214.189 349.057 214.087L349.516 214.903C347.834 216.025 346.509 217.76 345.948 219.852C345.234 222.453 345.795 225.055 347.222 227.096C347.222 227.096 349.261 230.565 344.317 232.197C343.196 232.554 342.176 232.911 341.31 233.779C338.71 236.38 340.443 241.227 340.851 244.39C341.055 245.92 341.259 247.502 341.361 249.083C341.462 250.716 341.564 252.858 340.29 254.083C340.035 254.338 339.729 254.491 339.424 254.593C339.118 254.695 338.71 254.746 338.506 255.001C338.149 255.409 338.863 255.46 339.118 255.46C339.78 255.46 340.443 255.205 340.953 254.746C341.615 254.185 342.125 253.419 342.38 252.603C342.38 252.552 342.533 252.093 342.686 251.736C342.38 253.113 341.361 257.092 340.188 257.705C340.188 257.705 339.22 258.164 340.035 258.368C340.29 258.419 342.176 258.368 343.705 254.695C343.705 254.644 343.807 254.542 343.858 254.491C344.725 252.858 345.387 251.022 345.795 249.236C346.101 247.859 346.101 246.43 346.101 245.002C346.101 244.441 346.101 243.829 346.05 243.267C345.999 241.533 345.948 239.696 346.611 238.064C346.764 237.656 347.069 237.248 347.222 236.84C347.12 237.452 347.222 238.268 347.222 238.88C347.171 240.462 347.12 242.043 346.967 243.624C346.866 245.002 346.662 246.379 346.407 247.757C346.152 249.185 345.795 250.665 345.54 252.093C345.234 253.521 345.031 255.001 344.725 256.429C344.623 256.786 344.572 257.092 344.47 257.45C344.317 258.011 344.113 258.674 343.654 259.082C343.552 259.184 343.246 259.337 343.348 259.49C343.501 259.796 344.062 259.592 344.266 259.49C344.623 259.337 344.878 258.98 345.081 258.674C345.591 258.011 345.948 257.194 346.254 256.429C346.764 255.052 347.273 253.725 347.681 252.348C348.089 250.971 348.548 249.593 349.057 248.216C350.026 245.512 351.198 242.859 352.625 240.36L353.696 238.625C353.747 239.849 353.39 241.023 352.88 242.094C352.371 243.165 351.708 244.186 351.096 245.206C350.332 246.43 349.618 247.706 349.006 249.083C348.446 250.409 348.038 251.787 347.834 253.215C347.732 253.878 347.681 254.542 347.63 255.256C347.579 255.868 347.477 256.531 347.528 257.143C347.528 257.96 347.681 258.776 348.038 259.49C348.242 259.847 348.548 260.408 348.955 260.51C349.771 260.714 349.108 259.847 349.108 259.847C348.599 259.082 348.955 257.143 349.312 255.511C349.312 256.021 349.414 256.531 349.567 256.99C349.822 257.603 350.23 258.164 350.79 258.521C350.994 258.623 351.657 258.98 351.555 258.419C351.504 258.113 351.198 257.858 350.994 257.603C350.79 257.348 350.586 257.041 350.485 256.735C349.975 255.052 351.147 253.215 352.065 251.889C352.931 250.563 353.9 249.287 354.817 248.063Z" fill="#776EEA"/>
<path d="M355.095 214.984C355.132 214.848 354.853 214.655 354.472 214.552C354.091 214.45 353.753 214.477 353.717 214.614C353.68 214.75 353.959 214.943 354.34 215.045C354.72 215.148 355.059 215.12 355.095 214.984Z" fill="#9E94FF"/>
<path d="M357.375 216.5C357.448 216.228 357.111 215.901 356.621 215.769C356.132 215.638 355.676 215.752 355.603 216.024C355.53 216.296 355.867 216.623 356.357 216.755C356.846 216.886 357.302 216.772 357.375 216.5Z" fill="#9E94FF"/>
<path d="M357.434 215.391C357.471 215.255 357.302 215.091 357.057 215.025C356.812 214.96 356.584 215.017 356.548 215.153C356.511 215.289 356.68 215.452 356.925 215.518C357.169 215.584 357.397 215.527 357.434 215.391Z" fill="#9E94FF"/>
<path d="M359.447 217.438C359.606 217.279 359.461 216.875 359.123 216.536C358.785 216.198 358.381 216.052 358.222 216.211C358.063 216.37 358.208 216.774 358.546 217.113C358.884 217.452 359.287 217.598 359.447 217.438Z" fill="#9E94FF"/>
<path d="M358.283 222.963C357.977 224.137 356.754 224.851 355.531 224.545C354.307 224.239 353.645 223.015 353.951 221.79C354.053 221.331 354.358 220.923 354.664 220.668C354.936 220.441 355.26 220.285 355.607 220.214C355.954 220.143 356.313 220.158 356.652 220.26C357.926 220.566 358.64 221.79 358.283 222.963Z" fill="white"/>
<path d="M355.108 215.694C355.115 215.61 354.894 215.522 354.613 215.497C354.333 215.472 354.099 215.52 354.092 215.605C354.085 215.689 354.306 215.777 354.586 215.802C354.867 215.826 355.1 215.778 355.108 215.694Z" fill="#9E94FF"/>
<path d="M361.556 223.221C361.644 222.895 361.451 222.559 361.124 222.471C360.798 222.384 360.463 222.577 360.375 222.904C360.287 223.23 360.481 223.566 360.807 223.654C361.133 223.741 361.469 223.548 361.556 223.221Z" fill="#6EB3FF"/>
<path d="M361.44 223.136C361.498 222.919 361.369 222.695 361.152 222.636C360.934 222.578 360.711 222.707 360.652 222.924C360.594 223.142 360.723 223.366 360.94 223.425C361.158 223.483 361.382 223.354 361.44 223.136Z" fill="#0F234F"/>
<path d="M361.154 223.303C361.168 223.248 361.136 223.192 361.082 223.178C361.027 223.163 360.971 223.195 360.957 223.25C360.942 223.304 360.974 223.36 361.029 223.375C361.083 223.389 361.139 223.357 361.154 223.303Z" fill="white"/>
<path d="M357.102 223.697C357.117 223.642 357.085 223.586 357.03 223.572C356.976 223.557 356.92 223.589 356.905 223.644C356.891 223.698 356.923 223.754 356.978 223.769C357.032 223.783 357.088 223.751 357.102 223.697Z" fill="white"/>
<path d="M358.069 222.215C358.164 221.861 357.954 221.497 357.601 221.402C357.247 221.307 356.884 221.517 356.789 221.871C356.694 222.224 356.904 222.588 357.257 222.683C357.61 222.778 357.974 222.569 358.069 222.215Z" fill="#6EB3FF"/>
<path d="M357.908 222.122C357.967 221.905 357.838 221.681 357.62 221.622C357.403 221.564 357.179 221.693 357.121 221.91C357.062 222.128 357.191 222.352 357.409 222.411C357.626 222.469 357.85 222.34 357.908 222.122Z" fill="#0F234F"/>
<path d="M357.588 222.354C357.602 222.299 357.57 222.243 357.516 222.229C357.461 222.214 357.405 222.246 357.391 222.301C357.376 222.355 357.408 222.411 357.463 222.426C357.517 222.441 357.573 222.408 357.588 222.354Z" fill="white"/>
<path d="M354.613 220.362C354.613 220.362 355.684 219.648 356.703 219.954C356.703 219.954 357.825 220.005 358.742 221.433C358.742 221.484 358.334 221.586 358.334 221.586C358.334 221.586 357.723 220.566 356.703 220.362C356.703 220.413 355.939 220.005 354.868 220.719L354.613 220.362Z" fill="#0A163F"/>
<path d="M357.311 219.996C357.384 219.724 357.223 219.444 356.951 219.371C356.679 219.298 356.4 219.46 356.326 219.732C356.253 220.004 356.415 220.284 356.687 220.357C356.958 220.43 357.238 220.269 357.311 219.996Z" fill="#FFC050"/>
<path d="M357.322 219.875C357.358 219.739 357.278 219.599 357.142 219.563C357.006 219.526 356.866 219.607 356.83 219.743C356.793 219.879 356.874 220.019 357.01 220.055C357.146 220.092 357.285 220.011 357.322 219.875Z" fill="white"/>
<path d="M345.234 231.789C344.572 232.095 343.96 233.064 343.552 233.626C342.431 235.462 342.125 237.656 342.329 239.747C342.533 241.737 342.788 243.778 342.89 245.767C343.043 247.655 343.195 249.746 342.686 251.583C342.686 251.583 342.176 254.185 340.239 255.001C340.188 255.001 338.965 255.613 338.404 255.001C338.404 255.001 338.404 254.746 338.863 254.542C338.914 254.542 340.953 254.134 341.309 251.787C341.259 251.685 341.666 249.848 341.055 245.818C341.055 245.869 339.984 239.033 339.984 239.033C339.984 239.033 339.118 234.595 342.38 232.809C342.992 232.503 343.654 232.248 344.317 232.044C344.623 232.044 344.929 231.942 345.234 231.789Z" fill="url(#paint4_linear_1_310)"/>
<path d="M357.366 235.105C357.824 235.717 357.824 236.839 357.875 237.554C357.926 239.696 357.111 241.788 355.837 243.471C354.664 245.053 353.441 246.736 352.32 248.42C351.249 250.001 350.077 251.685 349.567 253.572C349.567 253.572 348.701 256.072 349.975 257.756C350.026 257.807 350.79 258.929 351.555 258.674C351.555 258.674 351.657 258.47 351.351 258.011C351.3 258.011 349.771 256.633 350.637 254.389C350.739 254.338 351.3 252.501 353.849 249.338C353.798 249.338 358.181 244.033 358.181 244.033C358.181 244.033 361.138 240.615 359.252 237.452C358.895 236.839 358.436 236.329 357.977 235.819C357.774 235.615 357.57 235.36 357.366 235.105Z" fill="url(#paint5_linear_1_310)"/>
<path d="M348.894 213.62C349.113 213.493 349.189 213.212 349.062 212.993C348.936 212.773 348.655 212.698 348.436 212.824C348.216 212.951 348.141 213.232 348.267 213.451C348.394 213.671 348.674 213.746 348.894 213.62Z" fill="#7272F2"/>
<path d="M348.986 213.09C349.008 213.009 348.96 212.925 348.878 212.903C348.797 212.881 348.713 212.929 348.691 213.011C348.669 213.092 348.717 213.176 348.799 213.198C348.881 213.22 348.964 213.172 348.986 213.09Z" fill="#F0F0FF"/>
<path d="M363.93 217.556C364.15 217.43 364.225 217.149 364.099 216.929C363.972 216.709 363.692 216.634 363.472 216.761C363.253 216.887 363.177 217.168 363.304 217.388C363.43 217.607 363.711 217.683 363.93 217.556Z" fill="#7272F2"/>
<path d="M364.079 217.05C364.101 216.968 364.052 216.884 363.971 216.862C363.889 216.84 363.805 216.889 363.783 216.97C363.761 217.052 363.81 217.136 363.891 217.158C363.973 217.18 364.057 217.131 364.079 217.05Z" fill="#F0F0FF"/>
<path d="M357.774 238.931C357.774 238.931 358.946 234.697 355.582 234.136C355.786 234.289 358.181 234.901 357.774 238.931Z" fill="#827FF4"/>
<path d="M349.669 253.47L351.3 250.154C352.065 248.93 352.931 247.808 353.9 246.685C355.684 244.696 357.162 242.145 357.723 239.543C357.774 239.339 357.825 239.135 357.825 238.982C357.264 241.074 356.193 243.012 354.97 244.747C353.747 246.481 352.32 247.961 351.198 249.746C350.637 250.613 350.23 251.481 349.873 252.45C349.771 252.756 349.72 253.113 349.669 253.47ZM342.686 251.583L342.89 247.91C342.839 246.481 342.635 245.053 342.38 243.624C341.87 241.023 341.819 238.064 342.686 235.513C342.737 235.309 342.788 235.156 342.89 234.952C342.329 237.044 342.278 239.237 342.482 241.38C342.686 243.471 343.145 245.512 343.246 247.604C343.297 248.624 343.196 249.593 343.043 250.562C342.89 250.92 342.788 251.277 342.686 251.583ZM353.441 238.829C353.441 238.829 350.383 243.675 348.548 249.389C348.65 249.338 346.356 255.919 346.356 255.919L349.567 245.869C349.363 245.971 351.759 239.849 353.441 238.829Z" fill="#5956D6"/>
<path d="M359.456 226.433C359.303 226.33 359.048 226.33 358.844 226.33C358.64 226.33 358.385 226.228 358.232 226.075C358.232 226.075 358.181 226.024 358.181 226.075V226.126C358.13 226.433 358.385 226.688 358.691 226.739C358.844 226.79 358.997 226.739 359.15 226.739C359.201 226.688 359.558 226.484 359.456 226.433Z" fill="#272772"/>
<path d="M354.358 232.758C360.552 232.758 365.572 227.734 365.572 221.535C365.572 215.337 360.552 210.312 354.358 210.312C348.165 210.312 343.145 215.337 343.145 221.535C343.145 227.734 348.165 232.758 354.358 232.758Z" stroke="#776EEA" stroke-miterlimit="10"/>
<path d="M259.04 243.982C259.603 243.982 260.06 243.525 260.06 242.961C260.06 242.398 259.603 241.941 259.04 241.941C258.477 241.941 258.021 242.398 258.021 242.961C258.021 243.525 258.477 243.982 259.04 243.982Z" fill="#DBC023"/>
<path d="M108.163 266.938H415.525V272.04H108.163V266.938Z" fill="#12335B"/>
</g>
<defs>
<linearGradient id="paint0_linear_1_310" x1="247.226" y1="92.2486" x2="250.999" y2="445.57" gradientUnits="userSpaceOnUse">
<stop stop-color="#BFD6FF"/>
<stop offset="1" stop-color="#BFF8FF"/>
</linearGradient>
<linearGradient id="paint1_linear_1_310" x1="184.348" y1="237.184" x2="203.794" y2="347.373" gradientUnits="userSpaceOnUse">
<stop stop-color="#776EEA"/>
<stop offset="1" stop-color="#644ECE"/>
</linearGradient>
<linearGradient id="paint2_linear_1_310" x1="237.265" y1="241.34" x2="273.931" y2="341.995" gradientUnits="userSpaceOnUse">
<stop stop-color="#776EEA"/>
<stop offset="1" stop-color="#644ECE"/>
</linearGradient>
<linearGradient id="paint3_linear_1_310" x1="178.261" y1="228.538" x2="235.803" y2="256.283" gradientUnits="userSpaceOnUse">
<stop stop-color="#776EEA"/>
<stop offset="1" stop-color="#7F99FF"/>
</linearGradient>
<linearGradient id="paint4_linear_1_310" x1="342.839" y1="231.624" x2="340.727" y2="255.546" gradientUnits="userSpaceOnUse">
<stop stop-color="#776EEA"/>
<stop offset="1" stop-color="#644ECE"/>
</linearGradient>
<linearGradient id="paint5_linear_1_310" x1="353.575" y1="235.436" x2="355.566" y2="258.343" gradientUnits="userSpaceOnUse">
<stop stop-color="#776EEA"/>
<stop offset="1" stop-color="#644ECE"/>
</linearGradient>
<clipPath id="clip0_1_310">
<rect width="485" height="377" fill="white" transform="translate(0 0.640625)"/>
</clipPath>
</defs>
</svg>
