<svg width="485" height="377" viewBox="0 0 485 377" fill="none" xmlns="http://www.w3.org/2000/svg">
<g clip-path="url(#clip0_1_475)">
<path d="M174.857 15.91C129.478 10.4844 85.1828 41.7208 45.5341 63.7336C27.2585 73.8874 8.20852 89.5443 2.32317 111.092C-5.65304 140.236 8.44084 175.968 19.2823 202.864C32.4469 235.805 52.9682 264.949 75.7353 291.922C86.5767 304.789 99.2767 315.33 109.189 329.05C119.566 343.389 132.111 374.238 152.168 376.253C195.998 380.749 232.007 337.266 271.036 324.632C293.881 317.191 311.614 322.074 332.445 332.383C357.536 344.862 392.693 366.022 421.887 358.968C468.583 347.807 451.934 247.122 441.634 215.73C437.84 204.181 433.503 194.26 441.015 183.176C452.631 166.202 478.108 164.884 484.071 142.639C490.343 119.231 461.459 80.7857 448.681 62.881C440.937 52.1071 431.103 41.2557 418.015 39.5505C400.282 37.3027 383.787 49.2393 365.047 47.534C330.897 44.3561 320.752 5.60124 290.164 0.873139C267.397 -2.6148 257.407 23.0409 239.983 31.8771C227.748 38.0778 220.778 34.3574 210.092 27.9241C198.244 21.0257 186.55 17.2277 174.857 15.91Z" fill="url(#paint0_linear_1_475)"/>
<path d="M373.333 61.6409H103.846V229.837H373.333V61.6409Z" fill="white" stroke="white" stroke-width="2.1799" stroke-miterlimit="10"/>
<path d="M103.071 208.909H374.262" stroke="#A6B8DD" stroke-miterlimit="10"/>
<path d="M239.596 223.481C241.478 223.481 243.003 221.954 243.003 220.071C243.003 218.187 241.478 216.66 239.596 216.66C237.714 216.66 236.189 218.187 236.189 220.071C236.189 221.954 237.714 223.481 239.596 223.481Z" stroke="#A6B8DD" stroke-miterlimit="10"/>
<path d="M132.188 70.3994C132.421 53.1923 132.421 36.9152 132.188 20.0956" stroke="white" stroke-width="2" stroke-miterlimit="10"/>
<path d="M333.839 69.8569C333.839 52.3396 333.839 33.7373 333.839 16.0651" stroke="white" stroke-width="2" stroke-miterlimit="10"/>
<path d="M318.351 178.681H271.888C266.932 178.681 262.828 174.573 262.828 169.612C262.828 164.651 266.932 160.543 271.888 160.543H318.351C323.308 160.543 327.412 164.651 327.412 169.612C327.334 174.573 323.308 178.681 318.351 178.681Z" fill="#3E7EFF" stroke="white" stroke-width="1.1764" stroke-miterlimit="10"/>
<path d="M369.693 156.435C367.37 168.294 376.121 175.115 376.121 175.115L375.966 181.548C375.579 185.734 381.851 184.959 382.161 184.959C389.363 184.571 388.743 181.548 388.743 181.548L388.666 175.115C397.417 170.93 397.184 161.318 396.797 161.318C398.346 162.481 398.965 155.738 399.275 155.35C400.049 150.39 396.642 152.327 396.642 152.327L396.255 158.063L397.339 147.212C395.403 146.824 392.77 143.724 392.77 143.724L385.878 142.716C380.922 143.491 380.69 144.344 380.69 144.344C376.895 141.321 375.346 144.344 375.346 144.344L371.939 146.514L369.539 151.862L369.693 156.435Z" fill="#E5BDAE"/>
<path d="M382.548 160.311C383.104 160.311 383.555 159.86 383.555 159.303C383.555 158.747 383.104 158.296 382.548 158.296C381.992 158.296 381.542 158.747 381.542 159.303C381.542 159.86 381.992 160.311 382.548 160.311Z" fill="#300E0E"/>
<path d="M381.542 156.435C382.239 156.125 383.013 155.97 383.787 156.048C384.175 156.048 384.175 155.505 383.787 155.505C382.936 155.428 382.084 155.583 381.232 155.97C380.922 156.125 381.154 156.59 381.542 156.435Z" fill="#300E0E"/>
<path d="M375.424 155.815C374.727 155.35 373.798 155.428 372.946 155.35C372.559 155.35 372.559 155.893 372.946 155.893C373.643 155.893 374.495 155.815 375.114 156.28C375.424 156.513 375.734 155.97 375.424 155.815Z" fill="#300E0E"/>
<path d="M374.502 159.349C374.938 159.004 375.012 158.37 374.668 157.934C374.323 157.497 373.69 157.423 373.253 157.768C372.817 158.113 372.743 158.747 373.088 159.184C373.433 159.62 374.066 159.694 374.502 159.349Z" fill="#300E0E"/>
<path d="M394.784 157.288C394.009 156.745 394.706 154.498 394.784 153.877C394.939 151.94 395.171 150.002 395.093 148.064C395.016 145.894 392.693 145.739 391.067 145.584C388.743 145.351 386.807 147.134 384.949 148.219C382.781 149.459 380.225 149.847 377.747 150.312C377.437 150.39 375.656 150.39 375.501 150.545C375.889 150.079 380.767 145.351 380.767 145.351L372.094 150.467V148.142C372.094 148.142 370.313 148.839 370.003 153.335C369.306 152.327 366.054 135.353 382.393 134.578C384.097 134.81 391.376 131.477 398.191 141.321C398.114 141.088 405.935 147.599 397.572 161.396C397.572 160.466 398.191 159.226 398.346 158.296C398.501 157.675 398.811 156.125 398.346 155.583C397.262 154.11 396.023 158.141 394.784 157.288Z" fill="#211406"/>
<path d="M375.037 168.449C375.037 169.069 376.973 170.852 379.373 170.852C381.774 170.852 383.71 169.069 383.71 168.449C383.71 167.984 382.781 168.527 381.464 168.914C380.845 169.069 380.148 169.224 379.373 169.224C376.973 169.224 375.037 167.829 375.037 168.449Z" fill="#A87365"/>
<path d="M381.464 169.147C381.309 169.379 380.922 169.457 380.69 169.534C380.38 169.612 380.07 169.69 379.683 169.69C379.141 169.69 378.521 169.69 377.979 169.457H377.902C377.825 169.457 377.67 169.379 377.592 169.379C377.515 169.302 377.36 169.302 377.282 169.224C377.205 169.147 377.128 168.992 377.05 168.914C377.902 169.069 378.831 169.302 379.683 169.302C379.993 169.302 380.303 169.224 380.612 169.147C380.922 169.069 381.232 168.914 381.542 168.992C381.542 168.992 381.542 169.069 381.464 169.147Z" fill="white"/>
<path d="M380.225 164.341C379.451 165.039 378.367 165.116 377.515 164.496C377.128 164.264 376.818 164.806 377.205 165.116C378.289 165.891 379.761 165.736 380.767 164.806C381 164.496 380.535 164.031 380.225 164.341Z" fill="#B2847B"/>
<path d="M315.564 185.579C312.544 183.331 309.446 181.083 306.039 179.688C303.948 178.836 301.934 177.983 299.921 177.13C298.914 176.665 297.908 176.278 296.901 175.813C296.514 175.658 296.204 175.27 295.739 175.503C294.965 175.89 295.507 176.898 296.049 177.363C296.591 177.828 297.288 178.061 297.908 178.371C298.759 178.836 299.611 179.301 300.54 179.766C300.54 179.766 299.301 180.773 299.534 182.324C299.534 182.246 298.062 183.099 298.45 184.494C298.45 184.959 297.985 185.346 297.83 185.734C296.514 188.524 300.153 189.842 302.167 190.462C303.019 190.695 303.87 190.85 304.722 190.85C305.187 190.85 305.651 190.85 306.039 190.772C306.271 190.772 307.045 190.462 307.2 190.617C307.2 190.617 309.601 191.78 311.459 192.632C312.389 189.919 313.86 187.672 315.564 185.579Z" fill="#D6A565"/>
<path d="M403.225 235.03C403.225 235.03 385.956 334.475 385.568 334.553C380.922 334.63 380.535 334.553 380.535 334.553L375.656 279.986C375.656 279.986 377.747 332.693 378.134 332.538C374.107 332.77 370.468 331.84 370.468 331.84L361.562 239.216" fill="#223870"/>
<path d="M392.073 177.673C392.073 177.673 407.174 179.223 409.652 197.67C410.504 198.833 410.814 222.396 410.814 222.396L400.127 258.981L390.757 253.167L393.854 245.339C393.854 245.339 370.623 248.904 360.865 239.138C361.098 240.456 363.808 198.291 363.808 198.291L343.364 208.987L309.059 192.09L315.099 184.184L342.822 195.81L370.468 179.068H378.754L392.073 177.673Z" fill="#B26CE0"/>
<path d="M378.754 178.991L371.939 183.874L376.276 176.51L376.043 177.673L378.754 178.991Z" fill="white"/>
<path d="M390.602 176.665L378.754 178.991L379.761 185.967L391.299 177.673L390.602 176.665Z" fill="white"/>
<path d="M399.353 201.236L400.979 222.396L393.854 245.339L398.346 223.249L399.353 201.236Z" fill="#8648B7"/>
<path d="M363.808 198.291L366.364 196.508L363.034 211.622L363.808 198.291Z" fill="#8648B7"/>
<path d="M388.743 252.703L400.05 259.756L386.343 254.33L388.743 252.703Z" fill="#3C79DD"/>
<path d="M377.128 281.536L375.656 254.718L373.333 252.547L376.276 300.294L377.128 281.536Z" fill="#122144"/>
<path d="M302.786 183.486L299.534 181.936C298.914 181.626 298.682 180.928 298.914 180.308C299.224 179.688 299.921 179.456 300.54 179.688L303.793 181.238C304.412 181.549 304.645 182.246 304.412 182.866C304.103 183.486 303.406 183.796 302.786 183.486Z" fill="#F7C58D"/>
<path d="M302.167 186.122L298.914 184.571C298.295 184.261 298.062 183.564 298.295 182.944C298.605 182.324 299.301 182.091 299.921 182.324L303.173 183.874C303.793 184.184 304.025 184.881 303.793 185.501C303.561 186.199 302.786 186.432 302.167 186.122Z" fill="#F7C58D"/>
<path d="M301.857 187.827C301.78 187.827 301.702 187.749 301.547 187.749C301.083 187.672 300.618 187.594 300.153 187.594C299.534 187.517 298.992 187.517 298.372 187.439C297.753 187.207 297.365 186.509 297.52 185.889C297.753 185.269 298.45 184.881 299.069 185.036C299.534 185.269 299.998 185.501 300.54 185.811C300.928 185.966 301.315 186.199 301.702 186.354C302.167 186.587 302.631 186.819 303.096 186.974C303.173 186.974 303.251 187.052 303.328 187.129C303.483 187.284 303.406 187.594 303.328 187.749C303.173 187.982 303.019 188.059 302.786 188.059C302.476 187.982 302.167 187.904 301.857 187.827Z" fill="#F7C58D"/>
<path d="M308.826 180.928C307.278 179.843 305.574 178.293 303.561 178.448C301.47 178.603 301.47 180.308 303.406 180.851C304.49 181.161 305.729 181.083 306.813 181.626" fill="#F7C58D"/>
<path d="M370.39 331.84C370.39 331.84 367.061 330.987 364.35 331.918C363.653 332.15 363.034 332.538 362.492 333.003C361.872 334.165 362.492 336.723 362.492 336.723L373.953 335.638V336.413L378.444 336.723C378.444 336.723 379.064 334.088 378.444 332.383C378.444 332.46 370.39 331.84 370.39 331.84Z" fill="#132244"/>
<path d="M367.835 332.072C367.835 332.072 365.744 331.685 364.35 332.382L367.835 332.072Z" fill="#5E7CBF"/>
<path d="M377.747 334.32C377.747 334.32 374.417 333.623 371.784 334.708C371.087 335.018 370.468 335.328 369.926 335.871C369.384 337.033 370.158 339.513 370.158 339.513L381.542 337.808L381.619 338.583L386.111 338.661C386.111 338.661 386.575 336.026 385.878 334.32C385.878 334.475 377.747 334.32 377.747 334.32Z" fill="#132244"/>
<path d="M375.192 334.708C375.192 334.708 373.101 334.398 371.707 335.173L375.192 334.708Z" fill="#5E7CBF"/>
<path d="M151.78 74.9725H118.482V108.302H151.78V74.9725Z" fill="#F0F4FF"/>
<path d="M195.146 74.9725H161.847V108.302H195.146V74.9725Z" fill="#F0F4FF"/>
<path d="M239.286 74.9725H205.988V108.302H239.286V74.9725Z" fill="#F0F4FF"/>
<path d="M151.703 119.153H118.404V152.482H151.703V119.153Z" fill="#F0F4FF"/>
<path d="M195.069 119.153H161.77V152.482H195.069V119.153Z" fill="#F0F4FF"/>
<path d="M239.209 119.153H205.91V152.482H239.209V119.153Z" fill="#F0F4FF"/>
<path d="M151.703 161.861H118.404V195.19H151.703V161.861Z" fill="#F0F4FF"/>
<path d="M195.069 161.861H161.77V195.19H195.069V161.861Z" fill="#F0F4FF"/>
<path d="M239.209 161.861H205.91V195.19H239.209V161.861Z" fill="#F0F4FF"/>
<path d="M222.637 101.636C227.726 101.636 231.852 97.5064 231.852 92.4123C231.852 87.3182 227.726 83.1886 222.637 83.1886C217.547 83.1886 213.422 87.3182 213.422 92.4123C213.422 97.5064 217.547 101.636 222.637 101.636Z" fill="#A97BDB" stroke="white" stroke-width="1.1764" stroke-miterlimit="10"/>
<path d="M225.347 88.9243C225.347 90.3195 224.031 92.4122 222.559 92.4122C221.011 92.4122 219.772 90.3195 219.772 88.9243C219.772 87.5291 221.088 86.3665 222.559 86.3665C224.031 86.3665 225.347 87.5291 225.347 88.9243Z" fill="#FDBF5E"/>
<path d="M223.102 86.0564C221.863 85.7464 221.32 86.444 221.243 86.599C221.243 86.599 221.166 86.599 221.166 86.6765C219.385 86.289 219.772 88.9243 219.772 88.9243C219.772 89.3893 219.849 89.8544 220.159 90.3195C220.159 89.9319 220.159 88.2267 221.166 88.4592C221.166 88.4592 222.405 89.3118 223.953 88.4592C223.953 88.4592 224.96 88.0717 225.192 90.2419C225.27 89.6994 226.664 86.754 223.102 86.0564Z" fill="#193651"/>
<path d="M224.65 92.4122H220.391C218.997 92.4122 217.836 93.6524 217.836 94.97V95.9777C219.075 97.2178 220.701 97.9929 222.559 97.9929C224.418 97.9929 226.044 97.2178 227.283 95.9777V94.97C227.283 93.6524 226.044 92.4122 224.65 92.4122Z" fill="#FDFFFF"/>
<path d="M220.624 92.4122L221.863 94.505C222.172 95.0476 222.947 95.0476 223.334 94.505L224.573 92.4122H220.624Z" fill="#FDBF5E"/>
<path d="M178.419 102.178C183.509 102.178 187.635 98.0488 187.635 92.9547C187.635 87.8607 183.509 83.7311 178.419 83.7311C173.33 83.7311 169.204 87.8607 169.204 92.9547C169.204 98.0488 173.33 102.178 178.419 102.178Z" fill="#E59F89" stroke="white" stroke-width="1.1764" stroke-miterlimit="10"/>
<path d="M181.13 89.3893C181.13 90.7845 179.813 92.8772 178.342 92.8772C176.793 92.8772 175.554 90.7845 175.554 89.3893C175.554 87.9941 176.871 86.8315 178.342 86.8315C179.813 86.7539 181.13 87.9941 181.13 89.3893Z" fill="#FDBF5E"/>
<path d="M178.884 86.5214C177.645 86.2114 177.103 86.9089 177.025 87.064C177.025 87.064 176.948 87.064 176.948 87.1415C175.167 86.7539 175.554 89.3892 175.554 89.3892C175.554 89.8543 175.631 90.3194 175.941 90.7844C175.941 90.3969 175.941 88.6142 176.948 88.9242C176.948 88.9242 178.187 89.7768 179.813 88.9242C179.813 88.9242 180.82 88.5366 181.052 90.7069C181.052 90.3194 182.446 87.2965 178.884 86.5214Z" fill="#193651"/>
<path d="M180.51 92.8772H176.251C174.857 92.8772 173.696 94.1174 173.696 95.435V96.4426C174.935 97.6828 176.561 98.4579 178.419 98.4579C180.278 98.4579 181.904 97.6828 183.143 96.4426V95.435C183.066 94.1174 181.904 92.8772 180.51 92.8772Z" fill="white"/>
<path d="M176.406 92.8772L177.645 94.97C177.955 95.5125 178.729 95.5125 179.116 94.97L180.355 92.8772H176.406Z" fill="#FDBF5E"/>
<path d="M134.357 101.636C139.446 101.636 143.572 97.5064 143.572 92.4123C143.572 87.3182 139.446 83.1886 134.357 83.1886C129.267 83.1886 125.141 87.3182 125.141 92.4123C125.141 97.5064 129.267 101.636 134.357 101.636Z" fill="#D887AE" stroke="white" stroke-width="1.1764" stroke-miterlimit="10"/>
<path d="M137.067 88.9243C137.067 90.3195 135.75 92.4122 134.279 92.4122C132.73 92.4122 131.491 90.3195 131.491 88.9243C131.491 87.5291 132.808 86.3665 134.279 86.3665C135.75 86.3665 137.067 87.5291 137.067 88.9243Z" fill="#FDBF5E"/>
<path d="M134.821 86.0564C133.582 85.7464 133.04 86.444 132.963 86.599C132.963 86.599 132.885 86.599 132.885 86.6765C131.104 86.289 131.491 88.9243 131.491 88.9243C131.491 89.3893 131.569 89.8544 131.879 90.3195C131.879 89.9319 131.879 88.2267 132.885 88.4592C132.885 88.4592 134.124 89.3118 135.673 88.4592C135.673 88.4592 136.68 88.0717 136.912 90.2419C136.989 89.6994 138.383 86.754 134.821 86.0564Z" fill="#193651"/>
<path d="M136.37 92.4122H132.111C130.717 92.4122 129.555 93.6524 129.555 94.97V95.9777C130.794 97.2178 132.421 97.9929 134.279 97.9929C136.138 97.9929 137.764 97.2178 139.003 95.9777V94.97C139.003 93.6524 137.764 92.4122 136.37 92.4122Z" fill="white"/>
<path d="M132.343 92.4122L133.582 94.505C133.892 95.0476 134.666 95.0476 135.053 94.505L136.293 92.4122H132.343Z" fill="#FDBF5E"/>
<path d="M223.334 145.041C228.423 145.041 232.549 140.912 232.549 135.818C232.549 130.724 228.423 126.594 223.334 126.594C218.244 126.594 214.119 130.724 214.119 135.818C214.119 140.912 218.244 145.041 223.334 145.041Z" fill="#7CC6D8" stroke="white" stroke-width="1.1764" stroke-miterlimit="10"/>
<path d="M226.044 132.33C226.044 133.725 224.728 135.818 223.256 135.818C221.708 135.818 220.469 133.725 220.469 132.33C220.469 130.935 221.785 129.772 223.256 129.772C224.805 129.694 226.044 130.935 226.044 132.33Z" fill="#FDBF5E"/>
<path d="M223.876 129.462C222.637 129.152 222.095 129.849 222.017 130.004C222.017 130.004 221.94 130.004 221.94 130.082C220.159 129.694 220.546 132.33 220.546 132.33C220.546 132.795 220.624 133.26 220.933 133.725C220.933 133.337 220.933 131.632 221.94 131.865C221.94 131.865 223.179 132.717 224.728 131.865C224.728 131.865 225.734 131.477 225.967 133.647C225.967 133.105 227.361 130.159 223.876 129.462Z" fill="#193651"/>
<path d="M225.425 135.818H221.166C219.772 135.818 218.61 137.058 218.61 138.375V139.383C219.849 140.623 221.475 141.398 223.334 141.398C225.192 141.398 226.819 140.623 228.058 139.383V138.375C228.058 137.058 226.819 135.818 225.425 135.818Z" fill="#FDFFFF"/>
<path d="M221.398 135.818L222.637 137.91C222.947 138.453 223.721 138.453 224.108 137.91L225.347 135.818H221.398Z" fill="#FDBF5E"/>
<path d="M134.976 188.214C140.065 188.214 144.191 184.085 144.191 178.991C144.191 173.897 140.065 169.767 134.976 169.767C129.887 169.767 125.761 173.897 125.761 178.991C125.761 184.085 129.887 188.214 134.976 188.214Z" fill="#A4E288" stroke="white" stroke-width="1.1764" stroke-miterlimit="10"/>
<path d="M137.686 175.425C137.686 176.82 136.37 178.913 134.899 178.913C133.35 178.913 132.111 176.82 132.111 175.425C132.111 174.03 133.427 172.867 134.899 172.867C136.37 172.867 137.686 174.03 137.686 175.425Z" fill="#FDBF5E"/>
<path d="M135.441 172.557C134.202 172.247 133.66 172.945 133.582 173.1C133.582 173.1 133.505 173.1 133.505 173.177C131.724 172.79 132.111 175.425 132.111 175.425C132.111 175.89 132.188 176.355 132.498 176.82C132.498 176.433 132.498 174.65 133.505 174.96C133.505 174.96 134.744 175.813 136.37 174.96C136.37 174.96 137.377 174.573 137.609 176.743C137.609 176.355 139.003 173.332 135.441 172.557Z" fill="#193651"/>
<path d="M137.067 178.991H132.808C131.414 178.991 130.252 180.231 130.252 181.548V182.556C131.491 183.796 133.118 184.571 134.976 184.571C136.835 184.571 138.461 183.796 139.7 182.556V181.548C139.622 180.153 138.461 178.991 137.067 178.991Z" fill="white"/>
<path d="M132.963 178.991L134.202 181.083C134.511 181.626 135.286 181.626 135.673 181.083L136.912 178.991H132.963Z" fill="#FDBF5E"/>
<path d="M135.053 145.041C140.143 145.041 144.269 140.912 144.269 135.818C144.269 130.724 140.143 126.594 135.053 126.594C129.964 126.594 125.838 130.724 125.838 135.818C125.838 140.912 129.964 145.041 135.053 145.041Z" fill="#D887AE" stroke="white" stroke-width="1.1764" stroke-miterlimit="10"/>
<path d="M137.764 132.33C137.764 133.725 136.447 135.818 134.976 135.818C133.427 135.818 132.188 133.725 132.188 132.33C132.188 130.935 133.505 129.772 134.976 129.772C136.525 129.694 137.764 130.935 137.764 132.33Z" fill="#FDBF5E"/>
<path d="M135.596 129.462C134.357 129.152 133.814 129.849 133.737 130.004C133.737 130.004 133.66 130.004 133.66 130.082C131.878 129.694 132.266 132.33 132.266 132.33C132.266 132.795 132.343 133.26 132.653 133.725C132.653 133.337 132.653 131.632 133.66 131.865C133.66 131.865 134.899 132.717 136.447 131.865C136.447 131.865 137.454 131.477 137.686 133.647C137.686 133.105 139.08 130.159 135.596 129.462Z" fill="#193651"/>
<path d="M137.144 135.818H132.885C131.491 135.818 130.33 137.058 130.33 138.375V139.383C131.569 140.623 133.195 141.398 135.053 141.398C136.912 141.398 138.538 140.623 139.777 139.383V138.375C139.777 136.98 138.538 135.818 137.144 135.818Z" fill="white"/>
<path d="M133.118 135.818L134.357 137.91C134.666 138.453 135.441 138.453 135.828 137.91L137.067 135.818H133.118Z" fill="#FDBF5E"/>
<path d="M179.194 188.447C184.283 188.447 188.409 184.317 188.409 179.223C188.409 174.129 184.283 170 179.194 170C174.104 170 169.978 174.129 169.978 179.223C169.978 184.317 174.104 188.447 179.194 188.447Z" fill="#D887AE" stroke="white" stroke-width="1.1764" stroke-miterlimit="10"/>
<path d="M181.904 175.735C181.904 177.13 180.588 179.223 179.116 179.223C177.567 179.223 176.328 177.13 176.328 175.735C176.328 174.34 177.645 173.177 179.116 173.177C180.588 173.177 181.904 174.34 181.904 175.735Z" fill="#FDBF5E"/>
<path d="M179.658 172.867C178.419 172.557 177.877 173.255 177.8 173.41C177.8 173.41 177.722 173.41 177.722 173.487C175.941 173.1 176.328 175.735 176.328 175.735C176.328 176.2 176.406 176.665 176.716 177.13C176.716 176.743 176.716 175.038 177.722 175.27C177.722 175.27 178.961 176.123 180.51 175.27C180.51 175.27 181.517 174.883 181.749 177.053C181.827 176.588 183.22 173.565 179.658 172.867Z" fill="#193651"/>
<path d="M181.285 179.223H177.025C175.631 179.223 174.47 180.463 174.47 181.781V182.789C175.709 184.029 177.335 184.804 179.194 184.804C181.052 184.804 182.678 184.029 183.917 182.789V181.781C183.84 180.463 182.678 179.223 181.285 179.223Z" fill="white"/>
<path d="M177.18 179.223L178.419 181.316C178.729 181.858 179.503 181.858 179.891 181.316L181.13 179.223H177.18Z" fill="#FDBF5E"/>
<path d="M179.194 145.816C184.283 145.816 188.409 141.687 188.409 136.593C188.409 131.499 184.283 127.369 179.194 127.369C174.104 127.369 169.978 131.499 169.978 136.593C169.978 141.687 174.104 145.816 179.194 145.816Z" fill="#A97BDB" stroke="white" stroke-width="1.1764" stroke-miterlimit="10"/>
<path d="M181.904 133.027C181.904 134.422 180.588 136.515 179.116 136.515C177.567 136.515 176.328 134.422 176.328 133.027C176.328 131.632 177.645 130.469 179.116 130.469C180.588 130.469 181.904 131.71 181.904 133.027Z" fill="#FDBF5E"/>
<path d="M179.658 130.159C178.419 129.849 177.877 130.547 177.8 130.702C177.8 130.702 177.722 130.702 177.722 130.78C175.941 130.392 176.328 133.027 176.328 133.027C176.328 133.492 176.406 133.957 176.716 134.423C176.716 134.035 176.716 132.33 177.722 132.562C177.722 132.562 178.961 133.415 180.51 132.562C180.51 132.562 181.517 132.175 181.749 134.345C181.827 133.88 183.22 130.935 179.658 130.159Z" fill="#193651"/>
<path d="M181.285 136.593H177.025C175.631 136.593 174.47 137.833 174.47 139.151V140.158C175.709 141.398 177.335 142.173 179.194 142.173C181.052 142.173 182.678 141.398 183.917 140.158V139.151C183.84 137.755 182.678 136.593 181.285 136.593Z" fill="#FDFFFF"/>
<path d="M177.18 136.593L178.419 138.686C178.729 139.228 179.503 139.228 179.891 138.686L181.13 136.593H177.18Z" fill="#FDBF5E"/>
<path d="M222.559 188.447C227.649 188.447 231.775 184.317 231.775 179.223C231.775 174.129 227.649 170 222.559 170C217.47 170 213.344 174.129 213.344 179.223C213.344 184.317 217.47 188.447 222.559 188.447Z" fill="#A97BDB" stroke="white" stroke-width="1.1764" stroke-miterlimit="10"/>
<path d="M225.27 175.658C225.27 177.053 223.953 179.146 222.482 179.146C220.933 179.146 219.694 177.053 219.694 175.658C219.694 174.263 221.011 173.1 222.482 173.1C223.953 173.1 225.27 174.263 225.27 175.658Z" fill="#FDBF5E"/>
<path d="M223.024 172.79C221.785 172.48 221.243 173.177 221.166 173.332C221.166 173.332 221.088 173.332 221.088 173.41C219.307 173.022 219.694 175.658 219.694 175.658C219.694 176.123 219.772 176.588 220.081 177.053C220.081 176.665 220.081 174.96 221.088 175.193C221.088 175.193 222.327 176.045 223.876 175.193C223.876 175.193 224.883 174.805 225.115 176.975C225.192 176.51 226.586 173.565 223.024 172.79Z" fill="#193651"/>
<path d="M224.65 179.223H220.391C218.997 179.223 217.836 180.463 217.836 181.781V182.789C219.075 184.029 220.701 184.804 222.559 184.804C224.418 184.804 226.044 184.029 227.283 182.789V181.781C227.206 180.386 226.044 179.223 224.65 179.223Z" fill="#FDFFFF"/>
<path d="M220.546 179.223L221.785 181.316C222.095 181.858 222.869 181.858 223.256 181.316L224.495 179.223H220.546Z" fill="#FDBF5E"/>
<path d="M283.117 168.139C282.807 168.062 282.575 167.984 282.342 167.984C282.11 167.984 281.878 168.062 281.723 168.139C281.568 168.217 281.49 168.372 281.49 168.527C281.49 168.682 281.568 168.837 281.645 168.914C281.723 168.992 281.878 169.069 282.033 169.147C282.187 169.224 282.42 169.302 282.652 169.379C283.039 169.457 283.349 169.612 283.581 169.69C283.814 169.767 284.046 169.922 284.201 170.155C284.356 170.387 284.433 170.62 284.433 171.007C284.433 171.317 284.356 171.627 284.201 171.86C284.046 172.092 283.814 172.325 283.504 172.402C283.194 172.557 282.807 172.635 282.42 172.635C282.033 172.635 281.568 172.557 281.181 172.402C280.794 172.247 280.406 172.015 280.097 171.782L280.561 170.93C280.871 171.162 281.181 171.395 281.49 171.55C281.8 171.705 282.187 171.782 282.42 171.782C282.73 171.782 282.962 171.705 283.117 171.627C283.272 171.55 283.349 171.395 283.349 171.162C283.349 171.007 283.272 170.852 283.194 170.775C283.117 170.697 282.962 170.62 282.807 170.542C282.652 170.465 282.42 170.387 282.187 170.31C281.8 170.232 281.491 170.077 281.258 170C281.026 169.922 280.794 169.767 280.639 169.535C280.484 169.302 280.406 169.069 280.406 168.682C280.406 168.372 280.484 168.062 280.639 167.829C280.794 167.597 281.026 167.442 281.336 167.287C281.645 167.132 282.033 167.054 282.42 167.054C282.807 167.054 283.117 167.132 283.426 167.209C283.736 167.287 284.046 167.442 284.356 167.597L283.969 168.527C283.659 168.372 283.349 168.217 283.117 168.139Z" fill="white"/>
<path d="M289.157 168.372V172.557H288.15V171.782C287.84 172.325 287.376 172.557 286.679 172.557C286.214 172.557 285.827 172.402 285.595 172.17C285.362 171.86 285.208 171.472 285.208 171.007V168.372H286.214V170.697C286.214 171.007 286.292 171.24 286.447 171.395C286.601 171.55 286.834 171.627 287.066 171.627C287.376 171.627 287.608 171.472 287.841 171.317C287.995 171.085 288.15 170.852 288.15 170.465V168.449H289.157V168.372Z" fill="white"/>
<path d="M293.881 168.604C294.19 168.759 294.423 169.069 294.578 169.379C294.733 169.69 294.81 170.077 294.81 170.465C294.81 170.852 294.733 171.24 294.578 171.55C294.423 171.86 294.19 172.092 293.881 172.325C293.571 172.48 293.261 172.557 292.874 172.557C292.564 172.557 292.255 172.48 292.022 172.402C291.79 172.325 291.558 172.092 291.403 171.86V172.557H290.396V166.822H291.403V169.069C291.558 168.837 291.712 168.682 291.945 168.527C292.177 168.372 292.487 168.372 292.797 168.372C293.261 168.372 293.571 168.449 293.881 168.604ZM293.494 171.395C293.726 171.162 293.803 170.852 293.803 170.465C293.803 170.077 293.726 169.767 293.494 169.534C293.261 169.302 293.029 169.224 292.642 169.224C292.332 169.224 292.022 169.302 291.79 169.534C291.558 169.767 291.48 170.077 291.48 170.465C291.48 170.852 291.558 171.162 291.79 171.395C292.022 171.627 292.254 171.782 292.642 171.782C293.029 171.705 293.261 171.627 293.494 171.395Z" fill="white"/>
<path d="M302.244 168.759C302.476 169.069 302.631 169.457 302.631 169.922V172.48H301.625V170.155C301.625 169.844 301.547 169.612 301.392 169.457C301.237 169.302 301.005 169.224 300.695 169.224C300.386 169.224 300.153 169.379 299.921 169.612C299.766 169.845 299.611 170.077 299.611 170.465V172.48H298.605V170.155C298.605 169.844 298.527 169.612 298.372 169.457C298.217 169.302 297.985 169.224 297.753 169.224C297.443 169.224 297.133 169.379 296.978 169.612C296.823 169.845 296.669 170.077 296.669 170.465V172.48H295.662V168.294H296.669V169.069C296.978 168.527 297.443 168.294 298.14 168.294C298.527 168.294 298.837 168.372 299.069 168.527C299.301 168.682 299.456 168.914 299.611 169.224C299.844 168.604 300.386 168.217 301.16 168.217C301.625 168.372 302.012 168.527 302.244 168.759Z" fill="white"/>
<path d="M304.645 166.822C304.722 166.899 304.8 167.054 304.8 167.287C304.8 167.442 304.722 167.597 304.645 167.752C304.567 167.829 304.412 167.907 304.258 167.907C304.103 167.907 303.948 167.829 303.87 167.752C303.793 167.674 303.715 167.519 303.715 167.287C303.715 167.132 303.793 166.977 303.87 166.822C303.948 166.744 304.103 166.667 304.258 166.667C304.412 166.589 304.567 166.667 304.645 166.822ZM303.793 168.372H304.8V172.557H303.793V168.372Z" fill="white"/>
<path d="M308.439 172.325C308.129 172.557 307.742 172.635 307.433 172.635C307.045 172.635 306.813 172.557 306.581 172.325C306.348 172.092 306.271 171.782 306.271 171.395V169.38H305.651V168.682H306.271V167.519H307.278V168.682H308.439V169.38H307.278V171.24C307.278 171.395 307.278 171.55 307.355 171.627C307.433 171.705 307.51 171.782 307.665 171.782C307.82 171.782 308.052 171.705 308.284 171.627L308.439 172.325Z" fill="white"/>
<path d="M262.828 98.0704H348.475" stroke="#A7B3C1" stroke-miterlimit="10"/>
<path d="M271.423 84.9713H272.43V90.397H271.423L268.636 86.6765V90.397H267.629V84.9713H268.636L271.423 88.6918V84.9713Z" fill="#B8C6D1"/>
<path d="M276.147 90.3969V89.9319C275.992 90.0869 275.837 90.2419 275.605 90.3194C275.373 90.3969 275.141 90.4745 274.831 90.4745C274.521 90.4745 274.289 90.3969 274.056 90.3194C273.824 90.2419 273.669 90.0869 273.514 89.8544C273.359 89.6218 273.359 89.4668 273.359 89.1568C273.359 88.7692 273.514 88.4592 273.747 88.2267C273.979 87.9941 274.444 87.9166 274.908 87.9166H276.147V87.8391C276.147 87.6066 276.07 87.3741 275.915 87.2966C275.76 87.2191 275.528 87.064 275.218 87.064C274.831 87.064 274.444 87.2191 273.979 87.4516L273.592 86.754C273.901 86.599 274.211 86.444 274.444 86.3664C274.676 86.2889 274.986 86.2114 275.373 86.2114C275.915 86.2114 276.302 86.3664 276.612 86.599C276.922 86.8315 277.076 87.2191 277.076 87.6841V90.3969H276.147ZM275.76 89.3893C275.992 89.2343 276.07 89.0793 276.147 88.8468V88.4592H275.063C274.831 88.4592 274.598 88.5367 274.444 88.6142C274.289 88.6917 274.289 88.8468 274.289 89.0018C274.289 89.1568 274.366 89.3118 274.521 89.3893C274.676 89.4668 274.831 89.5443 275.063 89.5443C275.373 89.6218 275.605 89.5443 275.76 89.3893Z" fill="#B8C6D1"/>
<path d="M284.82 86.599C285.053 86.909 285.208 87.2966 285.208 87.7616V90.3194H284.201V87.9941C284.201 87.6841 284.123 87.4516 283.969 87.2966C283.814 87.1415 283.581 87.064 283.272 87.064C282.962 87.064 282.73 87.219 282.497 87.4516C282.342 87.6841 282.187 87.9166 282.187 88.3042V90.3194H281.181V87.9941C281.181 87.6841 281.103 87.4516 280.948 87.2966C280.794 87.1415 280.561 87.064 280.329 87.064C280.019 87.064 279.709 87.219 279.555 87.4516C279.4 87.6841 279.245 87.9166 279.245 88.3042V90.3194H278.238V86.1339H279.245V86.909C279.555 86.3664 280.019 86.1339 280.716 86.1339C281.103 86.1339 281.413 86.2114 281.645 86.3664C281.878 86.5215 282.033 86.754 282.187 87.064C282.42 86.4439 282.962 86.0564 283.736 86.0564C284.201 86.2114 284.511 86.2889 284.82 86.599Z" fill="#B8C6D1"/>
<path d="M289.544 86.754C289.854 87.1415 290.009 87.6841 290.009 88.3817C290.009 88.5367 290.009 88.6142 290.009 88.6917H286.911C286.989 89.0018 287.144 89.2343 287.298 89.3893C287.531 89.5443 287.763 89.6219 288.073 89.6219C288.305 89.6219 288.46 89.5443 288.692 89.4668C288.925 89.3893 289.08 89.2343 289.234 89.1568L289.777 89.6994C289.544 89.9319 289.312 90.0869 289.002 90.2419C288.692 90.3969 288.383 90.3969 287.995 90.3969C287.608 90.3969 287.221 90.3194 286.911 90.1644C286.601 90.0094 286.369 89.7769 286.137 89.3893C285.982 89.0793 285.905 88.6917 285.905 88.3042C285.905 87.9166 285.982 87.5291 286.137 87.219C286.292 86.909 286.601 86.6765 286.911 86.444C287.221 86.2889 287.608 86.2114 287.995 86.2114C288.692 86.2114 289.234 86.3664 289.544 86.754ZM289.157 87.9941C289.157 87.6841 289.08 87.4516 288.847 87.2966C288.615 87.1415 288.383 86.9865 288.073 86.9865C287.763 86.9865 287.531 87.064 287.298 87.219C287.066 87.3741 286.989 87.6066 286.911 87.9166H289.157V87.9941Z" fill="#B8C6D1"/>
<path d="M262.053 123.649H347.701" stroke="#A7B3C1" stroke-miterlimit="10"/>
<path d="M266.855 110.472H270.804V111.402H267.939V112.72H270.572V113.65H267.939V115.045H270.959V115.975H266.855V110.472Z" fill="#B8C6D1"/>
<path d="M278.47 112.177C278.703 112.487 278.858 112.875 278.858 113.34V115.898H277.851V113.572C277.851 113.262 277.773 113.03 277.619 112.875C277.464 112.72 277.231 112.642 276.922 112.642C276.612 112.642 276.38 112.797 276.147 113.03C275.992 113.262 275.837 113.495 275.837 113.882V115.898H274.908V113.572C274.908 113.262 274.831 113.03 274.676 112.875C274.521 112.72 274.289 112.642 274.056 112.642C273.747 112.642 273.437 112.797 273.282 113.03C273.127 113.262 272.972 113.495 272.972 113.882V115.898H271.966V111.712H272.972V112.487C273.282 111.945 273.747 111.712 274.444 111.712C274.831 111.712 275.141 111.79 275.373 111.945C275.605 112.1 275.76 112.332 275.915 112.642C276.147 112.022 276.689 111.635 277.464 111.635C277.851 111.712 278.238 111.867 278.47 112.177Z" fill="#B8C6D1"/>
<path d="M282.497 115.898V115.433C282.342 115.588 282.187 115.743 281.955 115.82C281.723 115.898 281.491 115.975 281.181 115.975C280.871 115.975 280.639 115.898 280.406 115.82C280.174 115.743 280.019 115.588 279.864 115.355C279.709 115.123 279.709 114.968 279.709 114.658C279.709 114.27 279.864 113.96 280.097 113.727C280.329 113.495 280.794 113.417 281.258 113.417H282.497V113.34C282.497 113.107 282.42 112.875 282.265 112.797C282.11 112.72 281.878 112.565 281.568 112.565C281.181 112.565 280.794 112.72 280.329 112.952L279.942 112.255C280.252 112.1 280.561 111.945 280.794 111.867C281.026 111.79 281.336 111.712 281.723 111.712C282.265 111.712 282.652 111.867 282.962 112.1C283.272 112.332 283.426 112.72 283.426 113.185V115.898H282.497ZM282.11 114.968C282.342 114.813 282.42 114.658 282.497 114.425V114.037H281.413C281.181 114.037 280.948 114.115 280.794 114.192C280.639 114.27 280.639 114.425 280.639 114.58C280.639 114.735 280.716 114.89 280.871 114.968C281.026 115.045 281.181 115.123 281.413 115.123C281.645 115.2 281.878 115.123 282.11 114.968Z" fill="#B8C6D1"/>
<path d="M285.517 110.162C285.595 110.239 285.672 110.394 285.672 110.627C285.672 110.782 285.595 110.937 285.517 111.092C285.44 111.17 285.285 111.247 285.13 111.247C284.975 111.247 284.82 111.17 284.743 111.092C284.665 111.015 284.588 110.86 284.588 110.627C284.588 110.472 284.665 110.317 284.743 110.162C284.82 110.084 284.975 110.007 285.13 110.007C285.285 110.007 285.362 110.007 285.517 110.162ZM284.588 111.79H285.595V115.975H284.588V111.79Z" fill="#B8C6D1"/>
<path d="M286.911 110.162H287.918V115.898H286.911V110.162Z" fill="#B8C6D1"/>
<path d="M262.905 149.924H348.475" stroke="#A7B3C1" stroke-miterlimit="10"/>
<path d="M270.959 137.833C270.727 137.678 270.417 137.678 270.184 137.678C269.875 137.678 269.565 137.755 269.255 137.91C268.945 138.065 268.791 138.298 268.636 138.608C268.481 138.918 268.403 139.228 268.403 139.538C268.403 139.848 268.481 140.158 268.636 140.468C268.791 140.778 269.023 140.933 269.255 141.166C269.565 141.321 269.875 141.398 270.184 141.398C270.417 141.398 270.727 141.321 270.959 141.243C271.191 141.166 271.423 140.933 271.656 140.778L272.275 141.476C271.966 141.786 271.656 142.018 271.269 142.174C270.881 142.329 270.494 142.406 270.107 142.406C269.565 142.406 269.1 142.251 268.636 142.018C268.171 141.786 267.861 141.398 267.629 141.011C267.397 140.623 267.242 140.081 267.242 139.616C267.242 139.073 267.397 138.608 267.629 138.22C267.861 137.833 268.248 137.445 268.636 137.213C269.1 136.98 269.565 136.825 270.107 136.825C270.494 136.825 270.881 136.903 271.269 137.058C271.656 137.213 271.966 137.445 272.198 137.678L271.578 138.453C271.423 138.143 271.191 137.988 270.959 137.833Z" fill="#B8C6D1"/>
<path d="M275.915 138.298C276.225 138.453 276.534 138.686 276.689 139.073C276.844 139.383 276.999 139.771 276.999 140.158C276.999 140.546 276.922 140.933 276.689 141.243C276.534 141.553 276.225 141.786 275.915 142.018C275.605 142.173 275.218 142.251 274.753 142.251C274.289 142.251 273.901 142.173 273.592 142.018C273.282 141.863 272.972 141.631 272.817 141.243C272.662 140.933 272.508 140.546 272.508 140.158C272.508 139.771 272.585 139.383 272.817 139.073C272.972 138.763 273.282 138.53 273.592 138.298C273.901 138.065 274.289 138.065 274.753 138.065C275.141 138.065 275.528 138.143 275.915 138.298ZM273.902 139.306C273.669 139.538 273.592 139.848 273.592 140.236C273.592 140.623 273.669 140.933 273.902 141.166C274.134 141.398 274.366 141.553 274.753 141.553C275.063 141.553 275.373 141.476 275.605 141.166C275.837 140.933 275.915 140.623 275.915 140.236C275.915 139.848 275.837 139.538 275.605 139.306C275.373 139.073 275.141 138.996 274.753 138.996C274.366 138.918 274.134 139.073 273.902 139.306Z" fill="#B8C6D1"/>
<path d="M284.356 138.453C284.588 138.763 284.743 139.151 284.743 139.616V142.174H283.736V139.848C283.736 139.538 283.659 139.306 283.504 139.151C283.349 138.996 283.117 138.918 282.807 138.918C282.497 138.918 282.265 139.073 282.033 139.306C281.878 139.538 281.723 139.771 281.723 140.158V142.174H280.716V139.848C280.716 139.538 280.639 139.306 280.484 139.151C280.329 138.996 280.097 138.918 279.864 138.918C279.555 138.918 279.245 139.073 279.09 139.306C278.935 139.538 278.78 139.771 278.78 140.158V142.174H277.773V137.988H278.78V138.763C279.09 138.221 279.555 137.988 280.251 137.988C280.639 137.988 280.948 138.066 281.181 138.221C281.413 138.376 281.568 138.608 281.723 138.918C281.955 138.298 282.497 137.911 283.272 137.911C283.659 138.066 284.046 138.221 284.356 138.453Z" fill="#B8C6D1"/>
<path d="M289.312 138.298C289.622 138.453 289.854 138.763 290.009 139.073C290.164 139.383 290.241 139.771 290.241 140.158C290.241 140.546 290.164 140.933 290.009 141.243C289.854 141.553 289.622 141.786 289.312 142.018C289.002 142.173 288.692 142.251 288.305 142.251C287.995 142.251 287.686 142.173 287.453 142.096C287.221 142.018 286.989 141.786 286.834 141.553V143.724H285.827V138.065H286.834V138.763C286.989 138.53 287.144 138.375 287.376 138.22C287.608 138.065 287.918 138.065 288.228 138.065C288.692 138.065 289.002 138.143 289.312 138.298ZM288.925 141.088C289.157 140.856 289.234 140.546 289.234 140.158C289.234 139.771 289.157 139.461 288.925 139.228C288.692 138.996 288.46 138.918 288.073 138.918C287.763 138.918 287.453 138.996 287.221 139.228C286.989 139.461 286.911 139.771 286.911 140.158C286.911 140.546 286.989 140.856 287.221 141.088C287.453 141.321 287.686 141.476 288.073 141.476C288.383 141.398 288.692 141.321 288.925 141.088Z" fill="#B8C6D1"/>
<path d="M293.571 142.251V141.708C293.416 141.863 293.261 142.018 293.029 142.096C292.797 142.173 292.564 142.251 292.255 142.251C291.945 142.251 291.712 142.173 291.48 142.096C291.248 142.018 291.093 141.863 290.938 141.631C290.783 141.398 290.783 141.243 290.783 140.933C290.783 140.546 290.938 140.236 291.17 140.003C291.403 139.771 291.867 139.693 292.332 139.693H293.571V139.616C293.571 139.383 293.494 139.151 293.339 139.073C293.184 138.996 292.951 138.841 292.642 138.841C292.255 138.841 291.867 138.996 291.403 139.228L291.015 138.53C291.325 138.375 291.635 138.22 291.867 138.143C292.1 138.065 292.409 137.988 292.797 137.988C293.339 137.988 293.726 138.143 294.036 138.375C294.345 138.608 294.5 138.996 294.5 139.461V142.173H293.571V142.251ZM293.261 141.321C293.494 141.166 293.571 141.011 293.648 140.778V140.391H292.564C292.332 140.391 292.1 140.468 291.945 140.546C291.79 140.623 291.79 140.778 291.79 140.933C291.79 141.088 291.867 141.243 292.022 141.321C292.177 141.398 292.332 141.476 292.564 141.476C292.797 141.476 293.029 141.476 293.261 141.321Z" fill="#B8C6D1"/>
<path d="M299.301 138.453C299.611 138.763 299.689 139.151 299.689 139.616V142.174H298.682V139.848C298.682 139.538 298.605 139.306 298.45 139.151C298.295 138.996 298.062 138.918 297.753 138.918C297.443 138.918 297.133 139.073 296.978 139.228C296.823 139.383 296.669 139.771 296.669 140.081V142.096H295.662V137.911H296.669V138.686C296.978 138.143 297.443 137.911 298.14 137.911C298.682 138.066 299.069 138.221 299.301 138.453Z" fill="#B8C6D1"/>
<path d="M301.934 143.569C301.702 143.724 301.392 143.801 301.083 143.801C300.85 143.801 300.695 143.801 300.54 143.724C300.386 143.646 300.231 143.569 300.076 143.414L300.54 142.639C300.618 142.716 300.695 142.794 300.85 142.794C300.928 142.794 301.005 142.871 301.083 142.871C301.392 142.871 301.547 142.716 301.702 142.483L301.857 142.251L300.153 138.143H301.16L302.322 141.166L303.406 138.143H304.412L302.554 142.794C302.399 143.104 302.244 143.336 301.934 143.569Z" fill="#B8C6D1"/>
</g>
<defs>
<linearGradient id="paint0_linear_1_475" x1="241.675" y1="58.9066" x2="245.788" y2="432.102" gradientUnits="userSpaceOnUse">
<stop stop-color="#FF834C"/>
<stop offset="1" stop-color="#FFDF74"/>
</linearGradient>
<clipPath id="clip0_1_475">
<rect width="485" height="376" fill="white" transform="translate(0 0.640625)"/>
</clipPath>
</defs>
</svg>
