<svg width="485" height="357" viewBox="0 0 485 357" fill="none" xmlns="http://www.w3.org/2000/svg">
<g clip-path="url(#clip0_1_418)">
<path d="M83.1871 338.436L47.8349 327.057C44.0992 325.874 44.2814 320.595 47.926 319.593L88.6539 308.033C96.7631 305.757 105.328 305.666 113.528 307.76L149.609 317.318C154.256 318.592 154.256 325.146 149.609 326.42L103.414 338.982C96.756 340.715 89.7421 340.525 83.1871 338.436Z" fill="#B6B6DD"/>
<path d="M404.091 291.558C417.485 295.199 430.878 299.477 444.454 303.846C461.037 309.216 492.38 327.877 469.875 347.447C465.137 351.634 458.759 353.546 452.563 354.638C429.056 358.734 403.089 355.184 379.308 354.911L299.492 354.456C245.735 354.365 191.977 354.729 138.22 355.457C136.944 355.457 135.487 355.457 134.575 354.82C133.482 354.001 133.847 352.818 134.393 351.816C147.423 328.15 189.973 334.521 211.931 333.611C214.482 333.52 217.671 332.701 217.945 330.243C218.765 322.415 195.804 323.963 191.613 322.779C189.062 322.051 186.51 320.595 185.326 318.228C183.139 313.95 186.055 308.852 189.335 305.393C199.358 294.652 212.842 290.101 227.056 287.917C259.857 282.91 293.843 279.269 327.008 279.633C354.069 279.906 379.126 284.731 404.091 291.558Z" fill="#E5E5F9"/>
<path d="M379.308 42.4213C353.249 37.779 329.468 61.7186 305.596 40.7828C289.834 26.947 277.807 4.73679 255.666 1.09578C234.71 -2.36318 222.409 20.1201 209.927 31.4982C205.28 35.6854 199.54 39.2354 193.162 39.7815C184.87 40.5097 177.035 36.3226 170.201 31.8623C158.903 24.4893 147.878 19.938 134.029 18.2996C87.5606 13.0201 33.1655 46.3354 11.8448 88.8442C-11.207 134.994 25.7853 177.685 47.0148 216.735C49.3838 221.104 52.1172 225.837 56.764 227.658C59.3152 228.659 62.1398 228.568 64.8732 228.386C89.0184 227.385 113.164 227.112 137.309 227.112C156.625 227.112 175.941 226.565 195.166 228.113C214.209 229.66 233.07 232.573 252.021 234.576C268.695 236.305 287.556 238.854 303.045 228.932C318.444 219.192 333.295 202.171 342.498 186.332C351.609 170.585 357.531 153.927 369.832 140.182C381.677 126.893 394.979 114.24 402.268 97.4916C411.015 77.1019 402.724 46.6084 379.308 42.4213Z" fill="url(#paint0_linear_1_418)"/>
<path d="M41.1835 74.1891H358.26V271.714H41.1835V74.1891Z" fill="white" stroke="#A6B8DD" stroke-miterlimit="10"/>
<path d="M40.1813 247.046H359.354" stroke="#A6B8DD" stroke-miterlimit="10"/>
<path d="M200.906 264.159C203.121 264.159 204.915 262.366 204.915 260.154C204.915 257.942 203.121 256.149 200.906 256.149C198.692 256.149 196.897 257.942 196.897 260.154C196.897 262.366 198.692 264.159 200.906 264.159Z" stroke="#A6B8DD"/>
<path d="M311.792 83.7468V20.5752M74.5313 84.3839V25.3085V84.3839Z" stroke="white" stroke-width="2" stroke-miterlimit="10"/>
<path d="M83.1871 336.433L47.8349 325.055C44.0992 323.872 44.2814 318.592 47.926 317.591L88.6539 301.57C96.7631 299.295 105.328 300.296 113.528 302.481L149.609 315.315C154.256 316.59 154.256 323.143 149.609 324.418L103.414 336.979C96.7631 338.709 89.7473 338.618 83.1871 336.433Z" fill="#DEDEF9"/>
<path d="M97.6742 303.118V302.936L97.2187 303.027L96.7631 302.936V303.118L81.0915 306.213V309.489L82.5493 311.128L85.1916 327.604V327.786C85.1916 329.606 90.6585 331.062 97.3098 331.062C103.961 331.062 109.428 329.606 109.428 327.786V327.604L112.07 309.125L113.528 309.398V306.122L97.6742 303.118Z" fill="white"/>
<path d="M379.217 216.462L371.29 336.342L378.943 336.524L396.619 244.133L403.817 221.832L379.217 216.462Z" fill="url(#paint1_linear_1_418)"/>
<path d="M340.402 117.244C339.764 112.329 335.026 108.324 330.106 107.686C327.464 107.322 324.913 109.234 322.817 110.508C327.282 111.965 330.562 114.513 332.748 118.7C332.84 118.973 333.022 119.247 332.748 119.429C332.657 119.52 332.475 119.52 332.293 119.52C330.744 119.338 329.742 117.881 328.922 116.607C328.739 116.334 328.557 116.061 328.284 115.97C328.011 115.879 327.646 115.97 327.555 116.243V116.607C327.737 117.79 328.557 118.791 329.377 119.702C330.562 120.976 332.02 121.795 333.568 122.432C335.209 122.979 337.304 123.07 338.306 124.617L340.402 119.884C340.493 118.973 340.493 118.063 340.402 117.244ZM382.406 109.962C382.406 111.327 381.494 113.33 381.13 114.695L379.854 119.793C379.217 122.706 378.943 125.527 380.037 128.44C381.403 131.899 384.137 134.539 387.417 136.177C389.513 137.27 391.79 137.907 394.068 138.362L390.15 145.553L402.177 144.005L403.635 138.817L409.102 127.348C409.102 127.348 414.569 125.891 414.204 120.885C412.929 120.976 413.293 115.697 409.011 118.791C408.282 119.065 405.822 104.136 405.822 104.136L400.537 108.05L402.633 102.862L389.877 101.315C389.877 101.406 382.315 106.412 382.406 109.962Z" fill="#F7C58D"/>
<path d="M386.87 110.872C386.87 110.872 385.139 108.233 383.043 109.871M396.164 114.877C396.164 114.877 395.708 111.327 391.426 112.875L396.164 114.877Z" stroke="#2D0808" stroke-width="0.601" stroke-miterlimit="10"/>
<path d="M393.291 117.51C393.478 116.937 393.164 116.32 392.59 116.133C392.016 115.946 391.399 116.26 391.212 116.833C391.025 117.407 391.338 118.023 391.912 118.21C392.487 118.397 393.104 118.084 393.291 117.51Z" fill="black"/>
<path d="M385.351 114.795C385.539 114.221 385.225 113.605 384.651 113.418C384.077 113.231 383.459 113.544 383.272 114.118C383.085 114.692 383.399 115.308 383.973 115.495C384.547 115.682 385.164 115.369 385.351 114.795Z" fill="black"/>
<path d="M384.046 124.981L394.068 126.802C394.068 126.802 392.701 129.259 388.51 128.713C388.328 128.531 385.412 128.167 384.046 124.981Z" fill="#C68D66"/>
<path d="M392.428 126.529C392.337 126.529 392.155 126.62 392.155 126.711L391.244 126.984C390.333 127.075 389.33 126.984 388.419 126.802L387.052 126.529C386.688 126.438 386.232 126.438 385.959 126.074C385.777 125.892 385.595 125.618 385.686 125.345C385.777 125.254 392.428 126.529 392.428 126.529Z" fill="white"/>
<path d="M384.319 119.702C384.319 119.702 384.228 121.522 387.052 120.703" stroke="#D3A17A" stroke-width="0.5" stroke-miterlimit="10"/>
<path d="M405.275 124.253L407.006 121.067C407.006 121.067 406.186 107.231 405.002 105.502L399.991 109.052L402.177 103.044C402.086 103.317 399.626 103.863 399.262 103.954L395.982 104.956C392.61 105.866 389.239 105.957 385.868 106.412C384.046 106.685 382.497 107.322 380.857 108.05C380.857 108.05 386.688 87.4787 402.815 93.9415C402.815 93.9415 421.949 94.8518 418.122 115.515C417.576 118.427 416.3 121.431 415.024 124.071C413.293 127.53 410.651 130.807 407.006 132.263C407.28 132.172 407.918 130.079 408.1 129.714C408.464 128.895 408.646 127.985 408.92 127.166C410.195 127.075 411.471 126.256 412.2 125.163C412.929 123.98 413.111 122.159 412.109 121.067C411.198 120.157 410.013 120.157 409.102 120.976L405.275 124.253Z" fill="#201306"/>
<path d="M418.487 219.465C418.487 219.465 421.767 234.758 413.658 251.87C414.296 252.872 404.455 340.711 404.455 340.711H397.257L389.148 240.401C389.148 240.401 385.412 245.863 384.775 216.553L418.487 219.465Z" fill="url(#paint2_linear_1_418)"/>
<path d="M391.608 141.639L360.356 133.811L341.131 118.518L334.844 124.071L357.258 143.914L383.772 152.289L391.608 141.639Z" fill="#C055FF"/>
<path d="M422.314 224.927C424.956 229.114 423.771 235.213 420.491 238.854C418.669 240.856 415.48 240.947 413.02 241.312C415.571 237.397 416.391 233.392 415.48 228.659C415.389 228.386 415.298 228.113 415.024 228.022C414.842 228.022 414.751 228.113 414.66 228.204C413.567 229.296 413.749 231.026 413.84 232.573C413.84 232.846 413.84 233.21 413.749 233.483C413.658 233.756 413.293 233.939 413.02 233.756L412.747 233.483C412.109 232.391 412.109 231.117 412.2 229.933C412.291 228.204 412.838 226.657 413.749 225.2C414.66 223.744 416.209 222.287 416.027 220.467C416.027 220.467 420.127 222.469 420.582 222.833C421.22 223.562 421.858 224.199 422.314 224.927Z" fill="#F7C58D"/>
<path d="M402.724 139.727C402.724 139.727 419.762 142.094 420.4 168.855C421.038 195.617 420.674 219.556 420.674 219.556C420.674 219.556 407.826 225.473 377.85 220.558C377.85 221.013 380.31 203.9 380.583 185.604C380.857 164.577 379.581 141.912 392.428 141.457C392.246 141.639 391.881 145.189 393.795 145.28C395.617 145.28 400.628 141.912 402.724 139.727Z" fill="url(#paint3_linear_1_418)"/>
<path d="M405.64 340.711L404.182 345.9L387.144 346.264C387.144 346.264 387.326 340.256 397.531 340.711H405.64Z" fill="url(#paint4_linear_1_418)"/>
<path d="M380.583 336.342L378.852 340.893L361.996 341.804C361.996 341.804 362.452 336.615 372.565 336.706L380.583 336.342Z" fill="url(#paint5_linear_1_418)"/>
<path d="M417.667 153.29C422.678 159.571 423.68 180.689 424.136 188.062C424.409 192.34 423.316 224.745 422.587 224.745C420.491 224.836 415.024 226.383 414.569 223.653C413.02 215.096 413.111 206.267 412.655 197.619C412.2 189.791 410.924 182.054 409.284 174.317C408.009 168.491 405.731 160.39 409.466 155.02C412.382 150.923 415.662 150.832 417.667 153.29Z" fill="#C055FF"/>
<path d="M96.9453 309.489C105.349 309.489 112.161 308.022 112.161 306.213C112.161 304.403 105.349 302.936 96.9453 302.936C88.5417 302.936 81.7293 304.403 81.7293 306.213C81.7293 308.022 88.5417 309.489 96.9453 309.489Z" fill="#BBBEEA" stroke="white" stroke-width="1.251"/>
<path d="M86.8317 285.277C83.096 279.906 78.5403 274.809 72.2534 272.533C71.3423 272.169 70.2489 271.896 69.2467 272.26C67.7888 272.715 67.0599 274.445 66.9688 275.992C66.7866 278.723 67.7888 281.363 68.9733 283.82C71.5245 289.1 75.8069 292.468 79.9981 296.564C80.8181 297.383 92.7541 307.942 93.483 304.665C94.9408 297.838 90.6585 291.102 87.0139 285.641C86.9228 285.459 86.8317 285.368 86.8317 285.277Z" fill="url(#paint6_linear_1_418)"/>
<path d="M104.234 289.282C105.51 287.643 106.877 286.096 108.517 284.822C112.344 281.636 117.537 278.45 122.64 277.813C130.658 276.902 131.933 285.823 126.102 289.737C121.364 292.832 115.715 294.106 110.704 296.746C108.243 298.02 106.057 299.659 104.326 301.843C103.323 303.118 102.868 304.665 101.957 305.939C98.7676 310.036 99.041 303.755 99.3143 301.661C99.7699 297.201 101.592 292.832 104.234 289.282Z" fill="url(#paint7_linear_1_418)"/>
<path d="M101.41 281.727C100.863 275.992 98.6765 270.44 95.2142 265.797C92.8452 262.703 88.1073 260.882 85.3739 264.796C84.6449 265.888 84.2805 267.254 84.2805 268.528C84.2805 272.897 86.4672 276.72 88.5628 280.452C91.0229 284.731 92.663 289.464 93.8475 294.288C94.303 296.291 94.7586 298.384 94.9408 300.387C95.0319 301.206 94.7586 303.755 95.6697 304.21C96.672 304.665 98.9498 297.838 99.2232 297.11C101.319 292.013 101.865 287.006 101.41 281.727Z" fill="url(#paint8_linear_1_418)"/>
<path opacity="0.73" d="M93.0274 302.845L83.0049 290.101L77.8114 283.82L76.4447 282.273C75.9891 281.727 75.5336 281.272 75.078 280.816L73.6202 279.36C73.1646 278.905 72.6179 278.541 71.9801 278.177L72.8912 278.632C73.1646 278.814 73.4379 278.996 73.7113 279.269C74.2672 279.643 74.7859 280.07 75.2602 280.543C75.8069 280.999 76.2625 281.454 76.718 282L78.1759 283.456L83.4605 289.646L88.3806 296.109L93.0274 302.845ZM96.3987 301.206L97.0365 293.742L97.1276 286.278C97.0365 283.82 96.7631 281.272 96.2164 278.905C95.9431 277.722 95.5786 276.538 95.032 275.355C94.5764 274.172 93.8475 273.17 93.0274 272.169C94.9408 273.808 96.0342 276.265 96.7631 278.723C97.492 281.181 97.7654 283.729 97.8565 286.278C97.9476 288.827 97.8565 291.375 97.5831 293.833L96.3987 301.206ZM100.408 304.301C100.863 301.934 101.866 299.659 103.05 297.474C104.234 295.381 105.783 293.378 107.515 291.649C109.337 290.01 111.25 288.463 113.437 287.37C114.53 286.733 115.624 286.369 116.808 285.823C117.355 285.55 117.993 285.459 118.539 285.277L120.271 284.731C117.993 285.641 115.806 286.551 113.71 287.825C111.615 289.009 109.701 290.556 107.97 292.195C106.239 293.833 104.781 295.745 103.414 297.747C102.23 299.841 101.228 302.025 100.408 304.301Z" fill="white"/>
<path d="M116.808 101.315H190.337V156.385H116.808V101.315Z" fill="#F3F8FF" stroke="#E5E5F9" stroke-miterlimit="10"/>
<path d="M159.034 139.664C157.94 140.756 156.483 141.302 154.66 141.667V145.763H151.016V141.667C149.649 141.485 148.465 141.029 147.189 140.574C145.913 140.119 144.911 139.391 144 138.572L146.005 134.658C147.098 135.568 148.1 136.205 149.467 136.751C150.834 137.388 152.018 137.661 153.111 137.661C153.84 137.661 154.478 137.479 154.934 137.206C155.389 136.933 155.571 136.478 155.571 136.023C155.571 135.568 155.389 135.295 155.116 134.931C154.843 134.658 154.387 134.294 153.931 134.203C153.476 134.02 152.747 133.747 151.836 133.565C150.469 133.292 149.376 132.837 148.465 132.473C147.553 132.018 146.825 131.563 146.187 130.835C145.549 130.106 145.276 129.014 145.276 127.831C145.276 126.283 145.731 124.918 146.825 123.917C147.918 122.915 149.285 122.278 151.107 121.914V118H154.751V121.914C155.845 122.096 157.029 122.187 158.123 122.642C159.216 122.915 160.127 123.37 161.038 124.008L159.034 128.104C157.94 127.467 156.938 127.012 155.663 126.556C154.478 126.101 153.567 125.919 152.656 125.919C152.018 125.919 151.562 126.101 151.107 126.192C150.651 126.374 150.469 126.829 150.469 127.285C150.469 127.74 150.651 128.013 150.925 128.377C151.198 128.65 151.654 128.832 152.109 129.105L154.205 129.833L157.576 131.017C158.487 131.472 159.216 132.109 159.854 132.837C160.492 133.565 160.765 134.658 160.765 136.023C160.674 137.388 160.218 138.663 159.034 139.664Z" fill="#FF834C"/>
<path d="M116.808 172.86H190.337V227.931H116.808V172.86Z" fill="#F3F8FF" stroke="#E5E5F9" stroke-miterlimit="10"/>
<path d="M142 216.57H147.376V204.009H142V216.57ZM150.018 200.914V216.57H155.394V200.914H150.018ZM158.583 197V216.57H163.958V197H158.583Z" fill="#F35951"/>
<path d="M207.558 100.768H281.087V155.839H207.558V100.768ZM207.831 172.952H281.36V228.022H207.831V172.952Z" fill="#F3F8FF" stroke="#E5E5F9" stroke-miterlimit="10"/>
<path d="M234.189 197C232.458 197 231 198.456 231 200.186C231 201.915 232.458 203.372 234.189 203.372C235.92 203.372 237.378 201.915 237.378 200.186C237.378 198.456 236.011 197 234.189 197ZM253.323 197C251.592 197 250.134 198.456 250.134 200.186C250.134 201.915 251.592 203.372 253.323 203.372C255.054 203.372 256.512 201.915 256.512 200.186C256.512 198.456 255.145 197 253.323 197ZM243.756 197C242.025 197 240.567 198.456 240.567 200.186C240.567 201.915 242.025 203.372 243.756 203.372C245.487 203.372 246.945 201.915 246.945 200.186C246.945 198.456 245.578 197 243.756 197Z" fill="#5757DD"/>
<path d="M244.478 131.014C241.745 128.465 238.1 126.918 234 126.918V139.661C238.009 139.661 241.654 141.209 244.478 143.758C247.212 141.209 250.856 139.661 254.956 139.661V126.918C250.856 126.918 247.212 128.465 244.478 131.014ZM244.478 126.918C245.396 126.918 246.277 126.553 246.926 125.905C247.576 125.256 247.94 124.376 247.94 123.459C247.94 122.542 247.576 121.662 246.926 121.013C246.277 120.364 245.396 120 244.478 120C243.56 120 242.679 120.364 242.03 121.013C241.381 121.662 241.016 122.542 241.016 123.459C241.016 124.376 241.381 125.256 242.03 125.905C242.679 126.553 243.56 126.918 244.478 126.918Z" fill="#8453F4"/>
<path d="M155.303 186L157.489 188.185L152.843 192.827L149.016 189.004L142 196.013L143.367 197.378L149.016 191.735L152.843 195.558L158.765 189.641L160.952 191.826V186.182H155.303V186Z" fill="#F35951"/>
</g>
<defs>
<linearGradient id="paint0_linear_1_418" x1="4.54022" y1="118.471" x2="419.39" y2="118.471" gradientUnits="userSpaceOnUse">
<stop stop-color="#8E3FFF"/>
<stop offset="1" stop-color="#3FB6FF"/>
</linearGradient>
<linearGradient id="paint1_linear_1_418" x1="370.586" y1="275.722" x2="395.441" y2="279.352" gradientUnits="userSpaceOnUse">
<stop stop-color="#00062A"/>
<stop offset="1" stop-color="#00287F"/>
</linearGradient>
<linearGradient id="paint2_linear_1_418" x1="376.327" y1="275.583" x2="412.928" y2="280.821" gradientUnits="userSpaceOnUse">
<stop stop-color="#02003F"/>
<stop offset="1" stop-color="#003DD4"/>
</linearGradient>
<linearGradient id="paint3_linear_1_418" x1="378.239" y1="180.823" x2="421.043" y2="181.381" gradientUnits="userSpaceOnUse">
<stop stop-color="#C055FF"/>
<stop offset="1" stop-color="#632AFF"/>
</linearGradient>
<linearGradient id="paint4_linear_1_418" x1="395.429" y1="340.301" x2="397.731" y2="347.931" gradientUnits="userSpaceOnUse">
<stop stop-color="#02003F"/>
<stop offset="1" stop-color="#003DD4"/>
</linearGradient>
<linearGradient id="paint5_linear_1_418" x1="370.527" y1="336.472" x2="372.411" y2="342.909" gradientUnits="userSpaceOnUse">
<stop stop-color="#02003F"/>
<stop offset="1" stop-color="#003DD4"/>
</linearGradient>
<linearGradient id="paint6_linear_1_418" x1="66.9469" y1="288.691" x2="93.7755" y2="288.691" gradientUnits="userSpaceOnUse">
<stop stop-color="#FFEE2A"/>
<stop offset="1" stop-color="#00AA22"/>
</linearGradient>
<linearGradient id="paint7_linear_1_418" x1="128.45" y1="294.478" x2="100.538" y2="291.109" gradientUnits="userSpaceOnUse">
<stop stop-color="#FFEE2A"/>
<stop offset="1" stop-color="#00AA22"/>
</linearGradient>
<linearGradient id="paint8_linear_1_418" x1="79.6628" y1="277.188" x2="103.793" y2="288.294" gradientUnits="userSpaceOnUse">
<stop stop-color="#FFEE2A"/>
<stop offset="1" stop-color="#00AA22"/>
</linearGradient>
<clipPath id="clip0_1_418">
<rect width="485" height="356" fill="white" transform="translate(0 0.640625)"/>
</clipPath>
</defs>
</svg>
