<svg width="400" height="311" viewBox="0 0 400 311" fill="none" xmlns="http://www.w3.org/2000/svg">
<g clip-path="url(#clip0_1_778)">
<path d="M144.215 13.0945C106.743 8.64728 70.2682 34.3337 37.5479 52.5058C22.4521 60.8635 6.74331 73.8217 1.91572 91.6104C-4.67432 115.61 6.97319 145.13 15.8621 167.289C26.7433 194.433 43.6782 218.509 62.3755 240.745C71.341 251.326 81.8391 260.067 89.9617 271.338C98.5441 283.146 108.889 308.603 125.441 310.29C161.609 313.97 191.264 278.163 223.448 267.735C242.299 261.601 256.935 265.664 274.1 274.175C294.789 284.45 323.755 301.855 347.893 296.105C386.437 286.904 372.72 203.864 364.215 178.024C361.073 168.516 357.471 160.312 363.755 151.187C373.333 137.232 394.329 136.082 399.234 117.757C404.444 98.4346 380.613 66.7675 370.038 52.0458C363.678 43.1514 355.556 34.1803 344.751 32.8001C330.115 30.8832 316.475 40.7744 301.073 39.3943C272.95 36.7873 264.521 4.8135 239.31 0.903033C220.536 -2.01065 212.261 19.2285 197.931 26.4361C187.816 31.4967 182.069 28.4296 173.257 23.2157C163.525 17.3883 153.87 14.2446 144.215 13.0945Z" fill="url(#paint0_linear_1_778)"/>
<path d="M112.567 66.6142C113.793 66.6142 113.793 64.6973 112.567 64.6973C111.341 64.6973 111.341 66.6142 112.567 66.6142Z" fill="white"/>
<path d="M213.487 60.8634C214.713 60.8634 214.713 58.9465 213.487 58.9465C212.261 58.9465 212.261 60.8634 213.487 60.8634Z" fill="white"/>
<path d="M307.356 74.8952C308.582 74.8952 308.582 72.9783 307.356 72.9783C306.13 72.9783 306.13 74.8952 307.356 74.8952Z" fill="white"/>
<path d="M304.215 122.818C305.441 122.818 305.441 120.901 304.215 120.901C302.988 120.901 302.988 122.818 304.215 122.818Z" fill="white"/>
<path d="M278.621 98.8947C280.23 98.8947 280.23 96.3645 278.621 96.3645C277.011 96.2878 277.011 98.8947 278.621 98.8947Z" fill="white"/>
<path d="M67.8927 131.482C69.5019 131.482 69.5019 128.952 67.8927 128.952C66.2069 128.875 66.2069 131.482 67.8927 131.482Z" fill="white"/>
<path d="M51.2644 79.6489C52.8736 79.6489 52.8736 77.1187 51.2644 77.1187C49.6552 77.1187 49.6552 79.6489 51.2644 79.6489Z" fill="white"/>
<path d="M336.782 135.316C339.234 135.316 339.234 131.482 336.782 131.482C334.33 131.482 334.33 135.316 336.782 135.316Z" fill="white"/>
<path d="M360.383 99.5081C362.835 99.5081 362.835 95.6743 360.383 95.6743C357.931 95.6743 357.931 99.5081 360.383 99.5081Z" fill="white"/>
<path d="M85.7471 216.439C88.1992 216.439 88.1992 212.605 85.7471 212.605C83.295 212.605 83.295 216.439 85.7471 216.439Z" fill="white"/>
<path d="M123.448 121.207C125.9 121.207 125.9 117.374 123.448 117.374C120.996 117.374 120.996 121.207 123.448 121.207Z" fill="white"/>
<path d="M170.038 60.48C172.49 60.48 172.49 56.6462 170.038 56.6462C167.586 56.6462 167.586 60.48 170.038 60.48Z" fill="white"/>
<path d="M258.851 109.399C260.077 109.399 260.077 107.482 258.851 107.482C257.625 107.482 257.625 109.399 258.851 109.399Z" fill="white"/>
<path d="M233.946 129.872C235.172 129.872 235.172 127.955 233.946 127.955C232.72 127.955 232.72 129.872 233.946 129.872Z" fill="white"/>
<path d="M164.981 117.68C166.207 117.68 166.207 115.763 164.981 115.763C163.755 115.763 163.755 117.68 164.981 117.68Z" fill="white"/>
<path d="M275.479 47.4452C276.705 47.4452 276.705 45.5283 275.479 45.5283C274.253 45.5283 274.253 47.4452 275.479 47.4452Z" fill="white"/>
<path d="M335.479 198.267C336.705 198.267 336.705 196.35 335.479 196.35C334.253 196.35 334.253 198.267 335.479 198.267Z" fill="white"/>
<path d="M306.13 233.384C307.356 233.384 307.356 231.467 306.13 231.467C304.904 231.467 304.904 233.384 306.13 233.384Z" fill="white"/>
<path d="M291.418 184.848C292.644 184.848 292.644 182.931 291.418 182.931C290.192 182.931 290.192 184.848 291.418 184.848Z" fill="white"/>
<path d="M118.314 264.668C119.54 264.668 119.54 262.751 118.314 262.751C117.088 262.751 117.088 264.668 118.314 264.668Z" fill="white"/>
<path d="M240.306 256.387C241.533 256.387 241.533 254.47 240.306 254.47C239.08 254.47 239.08 256.387 240.306 256.387Z" fill="white"/>
<path d="M162.375 235.914C163.602 235.914 163.602 233.997 162.375 233.997C161.149 233.997 161.149 235.914 162.375 235.914Z" fill="white"/>
<path d="M244.828 233.384C246.054 233.384 246.054 231.467 244.828 231.467C243.602 231.467 243.602 233.384 244.828 233.384Z" fill="white"/>
<path d="M269.042 214.828C270.268 214.828 270.268 212.911 269.042 212.911C267.816 212.911 267.816 214.828 269.042 214.828Z" fill="white"/>
<path d="M353.41 281.306C354.636 281.306 354.636 279.389 353.41 279.389C352.184 279.389 352.107 281.306 353.41 281.306Z" fill="white"/>
<path d="M184.751 251.249C185.977 251.249 185.977 249.333 184.751 249.333C183.525 249.333 183.525 251.249 184.751 251.249Z" fill="white"/>
<path d="M59.5402 179.711C60.7663 179.711 60.7663 177.794 59.5402 177.794C58.3142 177.794 58.3142 179.711 59.5402 179.711Z" fill="white"/>
<path opacity="0.7" d="M323.831 83.7895C323.831 77.9621 305.441 73.2083 282.759 73.2083C260.077 73.2083 241.686 77.9621 241.686 83.7895C241.686 83.8662 241.686 83.8662 241.686 83.9429C231.494 85.553 225.211 87.7 225.211 90.0769C225.211 94.9842 251.264 98.8946 283.295 98.8946C315.326 98.8946 341.379 94.9075 341.379 90.0769C341.456 87.6233 334.713 85.3997 323.831 83.7895Z" fill="white"/>
<path opacity="0.7" d="M385.9 80.0325C385.9 76.0453 379.234 72.7483 371.034 72.7483C362.835 72.7483 356.169 75.9687 356.169 80.0325C356.169 80.1092 356.169 80.1092 356.169 80.1858C352.49 81.2593 350.192 82.7928 350.192 84.403C350.192 87.7767 359.617 90.4604 371.264 90.4604C382.912 90.4604 392.337 87.7001 392.337 84.403C392.337 82.7161 389.885 81.1059 385.9 80.0325Z" fill="white"/>
<path opacity="0.7" d="M360.153 133.092C360.153 127.265 341.762 122.511 319.08 122.511C296.398 122.511 278.008 127.265 278.008 133.092C278.008 133.169 278.008 133.169 278.008 133.245C267.816 134.856 261.533 137.002 261.533 139.379C261.533 144.287 287.586 148.197 319.617 148.197C351.647 148.197 377.701 144.21 377.701 139.379C377.854 136.926 371.034 134.779 360.153 133.092Z" fill="white"/>
<path d="M103.908 212.605L106.207 212.452C106.207 212.452 102.759 212.452 98.2376 211.148L101.456 211.301C101.456 211.301 95.3257 210.228 94.7893 210.228C95.249 210.228 101.456 209.308 101.456 209.308L98.1609 209.385C102.682 208.158 106.13 208.234 106.13 208.234L103.831 208.004C108.659 206.701 112.95 208.618 112.95 208.618V212.222C113.027 212.145 108.659 213.908 103.908 212.605Z" fill="url(#paint1_linear_1_778)"/>
<path d="M106.667 211.608L107.969 211.532C107.969 211.532 105.977 211.532 103.372 210.765L105.287 210.841C105.287 210.841 101.762 210.228 101.456 210.228C101.762 210.228 105.287 209.691 105.287 209.691L103.372 209.768C105.977 209.078 107.969 209.078 107.969 209.078L106.667 208.925C109.425 208.158 111.954 209.231 111.954 209.231V211.302C111.954 211.378 109.425 212.375 106.667 211.608Z" fill="url(#paint2_linear_1_778)"/>
<path d="M111.648 209.615C109.962 208.771 108.123 209.078 108.123 209.078C109.885 209.078 111.264 209.461 111.648 209.615Z" fill="url(#paint3_linear_1_778)"/>
<path d="M111.648 211.072C109.962 211.915 108.123 211.532 108.123 211.532C109.885 211.608 111.264 211.225 111.648 211.072Z" fill="url(#paint4_linear_1_778)"/>
<path d="M109.808 211.225L110.728 211.148C110.728 211.148 109.349 211.148 107.586 210.612L108.889 210.688C108.889 210.688 106.437 210.305 106.284 210.305C106.437 210.305 108.889 209.921 108.889 209.921L107.586 209.998C109.349 209.538 110.728 209.538 110.728 209.538L109.808 209.461C111.724 209.001 113.41 209.691 113.41 209.691V211.072C113.41 211.072 111.724 211.762 109.808 211.225Z" fill="url(#paint5_linear_1_778)"/>
<path d="M130.651 220.042C135.632 219.199 140.613 218.816 142.069 218.662C154.483 216.975 166.973 215.365 179.387 213.678C209.655 209.691 240 205.627 270.268 201.64C280.69 200.26 290.651 198.037 301.149 200.413C305.441 201.41 310.268 202.407 313.946 204.937C317.778 207.468 318.697 211.761 313.027 212.222C289.272 214.292 265.594 216.669 241.839 218.969C222.605 220.809 203.448 222.649 184.215 224.49C171.341 225.716 158.544 227.48 145.67 228.707C139.157 229.32 132.567 230.087 126.054 229.627C124.291 229.474 119.31 229.55 118.314 227.48C116.398 223.416 123.602 221.269 130.651 220.042Z" fill="#123163"/>
<path d="M311.801 203.634C307.28 201.947 303.065 198.497 298.391 196.656C286.59 191.979 273.87 190.062 261.226 190.522C252.874 190.906 244.521 192.286 236.475 194.586C222.452 198.65 208.506 203.404 194.253 206.394C183.908 208.618 173.487 210.688 163.065 212.835C152.95 214.905 142.912 217.052 132.72 218.739C129.042 219.352 125.287 219.966 121.762 221.193C120.843 221.499 119.847 221.883 119.157 222.573C118.467 223.263 117.931 224.26 118.161 225.256C118.008 224.643 127.28 222.419 128.123 222.266C138.697 220.426 149.425 218.892 158.697 217.359C164.981 216.285 171.264 215.749 177.548 214.675C182.529 213.832 187.586 212.988 192.567 212.375C194.559 212.145 196.552 211.838 198.544 211.608C202.452 211.071 206.437 210.535 210.345 209.998C229.885 207.314 249.425 204.247 268.966 201.717C278.238 200.49 282.912 199.263 290.498 199.723C297.395 200.26 305.211 201.257 311.801 203.634Z" fill="#2D75AE"/>
<path d="M94.8659 205.781L100.383 205.397C100.383 205.397 92.1073 205.397 81.456 202.254L89.1954 202.637C89.1954 202.637 74.5594 200.107 73.41 200.107C74.5594 200.107 89.272 197.806 89.272 197.806L81.5326 198.036C92.2605 195.046 100.536 195.199 100.536 195.199L95.0192 194.739C106.437 191.749 116.705 196.12 116.705 196.12L116.628 204.631C116.552 204.707 106.207 208.924 94.8659 205.781Z" fill="url(#paint6_linear_1_778)"/>
<path d="M101.456 203.481L104.598 203.25C104.598 203.25 99.8467 203.25 93.7165 201.487L98.1609 201.717C98.1609 201.717 89.7318 200.26 89.0421 200.26C89.7318 200.26 98.1609 198.957 98.1609 198.957L93.7165 199.11C99.8467 197.423 104.674 197.5 104.674 197.5L101.533 197.193C108.123 195.43 114.023 198.037 114.023 198.037V202.944C113.946 202.867 108.046 205.321 101.456 203.481Z" fill="url(#paint7_linear_1_778)"/>
<path d="M113.333 198.65C109.272 196.656 104.981 197.346 104.981 197.346C109.119 197.346 112.337 198.266 113.333 198.65Z" fill="url(#paint8_linear_1_778)"/>
<path d="M113.257 202.177C109.195 204.171 104.828 203.327 104.828 203.327C109.042 203.404 112.337 202.484 113.257 202.177Z" fill="url(#paint9_linear_1_778)"/>
<path d="M108.966 202.56L111.111 202.407C111.111 202.407 107.893 202.407 103.678 201.18L106.743 201.333C106.743 201.333 100.996 200.337 100.536 200.337C100.996 200.337 106.743 199.417 106.743 199.417L103.678 199.493C107.893 198.343 111.111 198.42 111.111 198.42L108.966 198.266C113.41 197.116 117.471 198.803 117.471 198.803V202.1C117.471 202.1 113.41 203.787 108.966 202.56Z" fill="url(#paint10_linear_1_778)"/>
<path d="M115.785 204.784C115.785 204.784 112.107 209.844 115.785 214.522H124.138C124.138 214.522 125.057 214.062 126.897 220.579L131.034 220.119C130.728 220.119 128.966 214.062 128.812 213.525C128.123 211.378 127.739 209.078 126.513 207.161C124.521 204.017 120.613 203.864 117.241 204.477C116.935 204.477 115.939 204.554 115.785 204.784Z" fill="#134E84"/>
<path d="M115.785 214.522C115.785 214.522 112.107 210.381 115.785 204.784L113.487 205.244C113.487 205.244 110.728 210.765 113.946 214.522C114.866 214.522 115.785 214.522 115.785 214.522Z" fill="#A1D836"/>
<path d="M122.759 205.167L115.709 201.563L115.785 205.781L122.759 205.167Z" fill="#DD8024"/>
<path d="M120.307 192.899C120.307 192.899 114.176 201.334 120.307 209.001H134.1C134.1 209.001 135.632 208.234 138.697 218.969L145.594 218.202C145.134 218.279 142.146 208.234 141.839 207.238C140.766 203.71 140.077 199.877 138.008 196.733C134.636 191.519 128.276 191.289 122.682 192.362C122.299 192.439 120.536 192.592 120.307 192.899Z" fill="#2D75AE"/>
<path d="M131.877 193.589L120.23 187.685L120.383 194.509L131.877 193.589Z" fill="#123163"/>
<path d="M115.096 204.937L134.866 205.244C134.866 205.244 139.464 211.378 138.697 219.046L134.1 209.078H117.241C117.241 209.001 115.172 205.397 115.096 204.937Z" fill="#165599"/>
<path d="M120.307 209.001C120.307 209.001 114.176 202.1 120.307 192.899L116.475 193.666C116.475 193.666 111.877 202.867 117.241 209.001C118.774 209.001 120.307 209.001 120.307 209.001Z" fill="#A1D836"/>
<path d="M159.387 87.8535C159.387 87.8535 140.23 81.7195 140.996 84.7865C141.762 85.5533 151.724 87.8535 151.724 87.8535C151.724 87.8535 154.023 90.9206 147.893 92.4541C149.425 92.4541 143.295 93.9876 150.192 93.9876L159.387 92.4541V87.8535Z" fill="#F7C58D"/>
<path d="M242.912 123.124C242.912 123.124 248.276 130.025 245.977 133.092C244.444 132.325 243.678 128.492 243.678 128.492C243.678 128.492 238.314 132.325 239.08 130.792C239.08 129.258 239.08 126.191 239.08 126.191L242.912 123.124Z" fill="#F7C58D"/>
<path d="M193.87 135.392C193.87 135.392 167.05 160.695 195.402 198.266C196.935 199.8 200.766 198.266 200.766 198.266C200.766 198.266 183.908 172.963 200.766 151.494C199.234 152.261 212.261 156.862 229.885 153.028C229.885 153.028 237.548 171.43 236.015 191.366C236.015 192.899 241.379 191.366 241.379 191.366C241.379 191.366 251.341 145.36 224.521 135.392C223.755 135.392 193.87 135.392 193.87 135.392Z" fill="#21386F"/>
<path d="M224.444 99.5082C223.831 99.2015 223.218 98.8948 222.605 98.6648C221.073 98.1281 219.464 97.668 217.931 97.208C212.031 95.5978 205.977 94.5243 199.923 93.7575C189.808 92.5307 179.234 92.3774 169.195 90.1538C165.9 89.387 162.605 88.6969 159.31 87.8535L157.012 93.9876C157.088 93.6042 172.644 96.9779 174.176 97.3613C179.31 98.5881 184.291 100.275 189.119 102.269C190.421 102.805 203.602 106.792 203.755 106.256L190.728 135.392C190.421 136.006 195.096 137.999 195.402 138.076C200.69 139.993 206.513 139.686 211.954 138.766C216.092 138.076 220.077 136.849 223.985 135.546C224.138 135.469 224.291 135.469 224.368 135.316C224.521 135.162 224.521 134.932 224.521 134.779C224.598 132.786 224.138 130.715 224.598 128.722C225.134 126.345 227.05 125.501 228.812 124.044C230.651 122.434 232.567 120.901 234.406 119.291L239.004 126.191C239.08 126.268 243.295 124.044 243.602 123.891C243.295 123.891 242.989 123.738 242.835 123.508C241.839 121.284 240.613 118.754 239.923 116.3C239.157 113.847 239.464 111.163 238.697 108.709C236.935 102.652 229.272 101.885 224.444 99.5082Z" fill="#B16CDF"/>
<path d="M195.402 198.267C194.483 198.113 194.023 196.196 192.797 196.426C191.264 196.733 191.264 199.647 191.111 200.797C190.498 204.631 187.433 206.011 184.674 208.234L205.057 204.094L200.766 196.733C200.766 196.733 200 199.033 195.402 198.267Z" fill="#D6A138"/>
<path d="M247.433 83.7897C247.433 83.7897 245.287 92.5307 245.134 93.9109C245.134 93.9109 241.992 106.716 225.977 100.275L224.981 101.962L220.766 99.7382L220.996 97.8213L220.69 86.0899C220.69 86.0899 217.241 82.8695 219.464 79.2658C220.383 79.8025 222.222 75.7387 224.215 79.7258C224.674 80.2626 232.414 70.0647 232.414 70.0647L234.713 75.0486L235.172 70.2947L245.211 74.2052C245.287 74.4352 248.889 81.1827 247.433 83.7897Z" fill="#F7C58D"/>
<path d="M236.092 189.525C235.862 190.216 234.943 195.123 234.483 195.199C239.54 194.049 244.521 192.822 249.579 191.672C248.582 191.902 246.36 191.136 245.517 190.599C244.598 190.062 243.525 187.455 242.375 187.685C241.456 187.839 241.226 188.835 240.69 189.449C239.923 190.216 239.08 190.599 237.931 190.599C237.241 190.522 236.475 190.139 236.092 189.525Z" fill="#C98F28"/>
<path d="M248.812 82.1794C247.51 80.1092 249.732 76.7354 249.808 74.5118C249.885 71.2148 249.042 68.0711 246.667 65.6941C244.444 63.5472 241.686 62.0904 239.234 60.2502C238.544 60.9402 243.218 66.6909 243.218 66.6909C243.218 66.6909 239.234 62.167 232.337 59.4834C232.567 60.7102 237.318 63.4705 238.851 65.7708C238.161 64.9274 232.797 61.0169 229.119 60.6335C228.812 61.5536 230.881 62.5504 230.881 62.5504C230.881 62.5504 218.238 59.7901 217.165 80.1092C217.088 81.566 217.395 83.4062 217.701 84.8631C218.161 86.78 219.847 90.5371 222.375 90.2304C222.529 89.1569 222.452 88.0834 222.529 87.01C222.529 86.9333 220.766 85.4765 220.613 85.2464C219.847 84.0196 219.77 80.5692 221.916 80.6459C224.521 80.7226 223.448 86.4732 226.36 83.8663C228.889 81.566 231.494 79.3424 234.1 77.1955C234.1 77.5022 245.057 75.9687 248.812 82.1794Z" fill="#201306"/>
<path d="M235.249 81.9495C235.249 81.9495 237.012 79.4192 239.54 82.3328" stroke="#2D0808" stroke-width="0.6007" stroke-miterlimit="10"/>
<path d="M243.755 82.6396C243.755 82.6396 246.054 81.3361 246.973 83.4063" stroke="#2D0808" stroke-width="0.6007" stroke-miterlimit="10"/>
<path d="M238.173 85.4663C238.262 84.966 237.928 84.4884 237.428 84.3998C236.928 84.3111 236.451 84.6448 236.362 85.1452C236.274 85.6456 236.607 86.1232 237.107 86.2118C237.607 86.3005 238.085 85.9667 238.173 85.4663Z" fill="black"/>
<path d="M245.153 86.5154C245.242 86.015 244.908 85.5375 244.408 85.4488C243.908 85.3602 243.431 85.6939 243.342 86.1943C243.253 86.6947 243.587 87.1722 244.087 87.2609C244.587 87.3496 245.064 87.0158 245.153 86.5154Z" fill="black"/>
<path d="M240.92 94.6775L233.946 93.4507C233.946 93.4507 234.253 95.3676 237.088 95.981C237.241 95.981 239.234 96.441 240.92 94.6775Z" fill="#D3A17A"/>
<path d="M235.019 93.6807L235.172 93.834C235.326 93.9874 235.479 94.064 235.709 94.2174C236.322 94.5241 236.935 94.6774 237.548 94.8308C237.854 94.9075 238.161 94.9075 238.544 94.9841C238.774 94.9841 239.08 95.0608 239.31 94.9841C239.464 94.9075 239.617 94.7541 239.693 94.6008C239.693 94.5241 235.096 93.6807 235.019 93.6807Z" fill="white"/>
<path d="M242.146 90.2303C242.146 90.2303 241.456 91.6104 239.77 89.9236" stroke="#D3A17A" stroke-width="0.5" stroke-miterlimit="10"/>
<path d="M122.605 199.033H131.801L125.67 202.1L134.1 204.401L122.605 204.17L125.67 200.567L119.54 199.033H122.605Z" fill="#88F7FF"/>
<path d="M283.448 195.276C283.448 195.276 261.686 188.222 225.211 203.634C225.824 204.247 246.973 195.966 266.13 197.27L251.418 200.49C260.383 199.493 269.272 198.343 278.238 198.036C281.533 197.883 284.904 197.806 288.123 198.19C288.812 198.266 289.425 198.42 290.038 198.266C288.659 196.656 285.364 195.966 283.448 195.276Z" fill="#88F7FF"/>
</g>
<defs>
<linearGradient id="paint0_linear_1_778" x1="199.304" y1="48.5627" x2="202.695" y2="356.278" gradientUnits="userSpaceOnUse">
<stop stop-color="#6A73FF"/>
<stop offset="1" stop-color="#94FAFF"/>
</linearGradient>
<linearGradient id="paint1_linear_1_778" x1="99.783" y1="210.261" x2="112.008" y2="210.352" gradientUnits="userSpaceOnUse">
<stop stop-color="#FF8000"/>
<stop offset="0.3086" stop-color="#FBA50E"/>
<stop offset="1" stop-color="#F2F52C"/>
</linearGradient>
<linearGradient id="paint2_linear_1_778" x1="106.643" y1="210.256" x2="115.879" y2="210.325" gradientUnits="userSpaceOnUse">
<stop stop-color="#FF8000"/>
<stop offset="0.3086" stop-color="#FBA50E"/>
<stop offset="1" stop-color="#F2F52C"/>
</linearGradient>
<linearGradient id="paint3_linear_1_778" x1="111.111" y1="209.359" x2="108.995" y2="209.239" gradientUnits="userSpaceOnUse">
<stop stop-color="#FF8000"/>
<stop offset="0.3086" stop-color="#FBA50E"/>
<stop offset="1" stop-color="#F2F52C"/>
</linearGradient>
<linearGradient id="paint4_linear_1_778" x1="111.121" y1="211.318" x2="109.004" y2="211.406" gradientUnits="userSpaceOnUse">
<stop stop-color="#FF8000"/>
<stop offset="0.3086" stop-color="#FBA50E"/>
<stop offset="1" stop-color="#F2F52C"/>
</linearGradient>
<linearGradient id="paint5_linear_1_778" x1="108.48" y1="210.345" x2="114.985" y2="210.394" gradientUnits="userSpaceOnUse">
<stop stop-color="#F2F52C"/>
<stop offset="0.5" stop-color="#F2F57C"/>
<stop offset="1" stop-color="#F2F6D0"/>
</linearGradient>
<linearGradient id="paint6_linear_1_778" x1="85.1503" y1="200.18" x2="114.215" y2="200.398" gradientUnits="userSpaceOnUse">
<stop stop-color="#FF8000"/>
<stop offset="0.3086" stop-color="#FBA50E"/>
<stop offset="1" stop-color="#F2F52C"/>
</linearGradient>
<linearGradient id="paint7_linear_1_778" x1="101.457" y1="200.336" x2="123.415" y2="200.501" gradientUnits="userSpaceOnUse">
<stop stop-color="#FF8000"/>
<stop offset="0.3086" stop-color="#FBA50E"/>
<stop offset="1" stop-color="#F2F52C"/>
</linearGradient>
<linearGradient id="paint8_linear_1_778" x1="112.056" y1="198.039" x2="107.025" y2="197.754" gradientUnits="userSpaceOnUse">
<stop stop-color="#FF8000"/>
<stop offset="0.3086" stop-color="#FBA50E"/>
<stop offset="1" stop-color="#F2F52C"/>
</linearGradient>
<linearGradient id="paint9_linear_1_778" x1="112.045" y1="202.77" x2="107.01" y2="202.98" gradientUnits="userSpaceOnUse">
<stop stop-color="#FF8000"/>
<stop offset="0.3086" stop-color="#FBA50E"/>
<stop offset="1" stop-color="#F2F52C"/>
</linearGradient>
<linearGradient id="paint10_linear_1_778" x1="105.828" y1="200.388" x2="121.293" y2="200.504" gradientUnits="userSpaceOnUse">
<stop stop-color="#F2F52C"/>
<stop offset="0.5" stop-color="#F2F57C"/>
<stop offset="1" stop-color="#F2F6D0"/>
</linearGradient>
<clipPath id="clip0_1_778">
<rect width="400" height="310" fill="white" transform="translate(0 0.519775)"/>
</clipPath>
</defs>
</svg>
