<svg width="650" height="594" viewBox="0 0 650 594" fill="none" xmlns="http://www.w3.org/2000/svg">
<g clip-path="url(#clip0_102_8)">
<path d="M309.792 -46.4534C224.281 -55.4185 96.2174 -69.0977 32.678 -11.9116C-18.7589 34.3819 50.9562 73.862 39.9394 109.722C24.9006 158.103 78.0631 215.925 141.526 231.927C214.711 250.381 213.313 286.727 213.313 286.727C213.313 286.727 219.228 358.205 241.452 403.822C258.699 439.223 311.061 430.347 368.115 435.475C416.224 439.8 417.161 487.896 490.607 466.874C533.625 454.508 567.025 462.701 606.196 479.858C653.411 500.57 778.222 686.396 1047.5 606.769C1363.57 455.577 831.253 338.117 811.843 286.027C804.673 266.86 796.454 250.321 810.793 231.927C832.652 203.796 880.566 201.477 891.758 164.535C903.649 125.583 849.265 61.7457 825.133 32.0682C810.618 14.1381 792.082 -3.94661 767.426 -6.72887C734.026 -10.5931 702.899 9.34643 667.75 6.56417C603.573 1.30878 584.337 -63.147 526.805 -71.0301C483.962 -76.9037 465.076 -34.0878 432.376 -19.5582C409.293 -9.35656 396.178 -15.5394 376.068 -26.0501C353.859 -37.7975 331.825 -44.1348 309.792 -46.4534Z" fill="url(#paint0_linear_102_8)"/>
<path d="M473.899 477.205C534.473 533.44 635.819 542.109 719.856 557.361C758.59 564.437 804.914 565.261 838.645 544.322C884.291 516.174 905.194 455.505 920.624 409.772C939.538 353.761 943.32 294.476 941.36 235.692C940.305 207.629 933.918 180.369 935.342 152.358C753.589 27.3247 710.781 202.717 683.632 178.303C624.3 124.963 764.24 8.30821 692.096 -18.1229C649.802 -33.5636 534.099 -43.353 515.493 -79.0498C493.088 -122.101 561.315 -202.758 510.13 -225.759C428.37 -262.459 335.587 -116.913 314.276 -66.036C306.456 -47.2997 301.297 -29.9578 277.202 -24.2379C240.408 -15.4482 201.324 -41.368 166.698 -19.7064C130.118 3.08096 127.921 83.111 126.001 119.651C124.789 141.69 126.613 166.17 143.941 182.535C167.347 204.776 205.649 207.579 231.18 230.007C277.673 271.09 247.563 331.282 287.021 370.527C316.402 399.754 361.157 378.066 396.9 385.897C422.092 391.467 428.015 403.753 436.375 423.376C445.51 445.152 458.297 462.709 473.899 477.205Z" fill="url(#paint1_linear_102_8)"/>
<path d="M772.25 496.597C841.23 542.13 942.625 534.051 1028.03 535.307C1067.4 535.931 1113.23 529.142 1143.07 502.952C1183.47 467.696 1194.14 404.419 1201.85 356.774C1211.32 298.419 1205.32 239.317 1193.74 181.651C1188.1 154.142 1177.33 128.3 1174.13 100.435C974.328 6.91997 960.88 186.959 930.093 167.331C862.812 124.45 981.714 -13.5865 906.21 -27.821C861.956 -36.1124 746.215 -26.7832 722.004 -58.943C692.838 -97.7346 746.906 -188.493 692.64 -202.783C605.966 -225.57 619.988 -298.396 443.129 -166.355C438.489 -146.589 333.599 -175.951 310.77 -166.355C202.372 -120.791 353.822 -135.423 343.085 -51.3345C359.744 35.9281 392.085 21.6655 370.396 200.977C366.321 234.666 378.633 246.765 398.412 260.065C425.15 278.163 463.393 274.644 492.258 292.578C544.862 325.475 525.038 389.792 570.4 422.03C604.179 446.039 644.769 417.301 681.312 419.162C707.077 420.522 714.935 431.67 726.402 449.654C738.986 469.637 754.481 484.857 772.25 496.597Z" fill="url(#paint2_linear_102_8)"/>
<path d="M811.267 464.643C866.885 522.716 967.738 534.993 1050.63 553.187C1088.83 561.619 1135.22 564.111 1170.96 544.522C1219.31 518.199 1129.6 407.312 1149.25 362.421C1154.01 281.055 1210.44 237.951 1210.44 237.951C1210.44 237.951 1289.11 169.698 1293.1 141.913C1297.15 112.705 1315.06 88.5884 1277.3 50.4654C1222.66 -4.6867 1145.28 9.15901 1075.34 -19.7144C1034.33 -36.5872 1016.23 -62.7008 1000.83 -98.8476C982.285 -142.441 1077.16 -153.357 818.739 -257.352C470.858 -337.192 726.799 -130.772 700.779 -80.9819C691.225 -62.6449 684.467 -45.5975 659.779 -40.7839C622.074 -33.3786 585.241 -60.5491 548.535 -40.2738C509.766 -18.9502 500.256 60.5018 494.992 96.7451C491.765 118.603 491.359 142.996 507.244 159.885C528.688 182.834 566.846 187.003 590.405 210.214C633.283 252.721 597.589 311.45 633.579 351.876C660.378 381.983 707.246 362.047 742.379 371.122C767.137 377.567 771.956 389.99 778.548 409.793C785.721 431.764 796.943 449.673 811.267 464.643Z" fill="url(#paint3_linear_102_8)"/>
</g>
<defs>
<linearGradient id="paint0_linear_102_8" x1="435.882" y1="24.0129" x2="441.921" y2="644.351" gradientUnits="userSpaceOnUse">
<stop stop-color="#6A73FF"/>
<stop offset="1" stop-color="#94FAFF"/>
</linearGradient>
<linearGradient id="paint1_linear_102_8" x1="364.601" y1="393.941" x2="738.164" y2="-122.549" gradientUnits="userSpaceOnUse">
<stop stop-color="#6A73FF"/>
<stop offset="1" stop-color="#94FAFF"/>
</linearGradient>
<linearGradient id="paint2_linear_102_8" x1="650.771" y1="432.397" x2="934.519" y2="-138.391" gradientUnits="userSpaceOnUse">
<stop stop-color="#6A73FF"/>
<stop offset="1" stop-color="#94FAFF"/>
</linearGradient>
<linearGradient id="paint3_linear_102_8" x1="811.725" y1="575.532" x2="1221.95" y2="66.4076" gradientUnits="userSpaceOnUse">
<stop stop-color="#6A73FF"/>
<stop offset="1" stop-color="#94FAFF"/>
</linearGradient>
<clipPath id="clip0_102_8">
<rect width="650" height="594" fill="white"/>
</clipPath>
</defs>
</svg>
