<svg width="150" height="150" viewBox="0 0 150 150" fill="none" xmlns="http://www.w3.org/2000/svg">
    <path
        d="M0 75C0 33.5786 33.5786 0 75 0C116.421 0 150 33.5786 150 75C150 116.421 116.421 150 75 150C33.5786 150 0 116.421 0 75Z"
        fill="#61DAFB" />
    <path
        d="M91.4187 125.842C93.6513 124.354 95.6978 122.679 97.5582 120.819C98.1164 122.493 98.9536 123.982 100.349 125.284C102.488 127.424 105 128.447 108.07 128.447C111.14 128.447 113.651 127.424 115.791 125.284C117.93 123.145 118.954 120.633 118.954 117.563V33.9355C118.954 30.8657 117.93 28.3541 115.791 26.2146C113.651 24.075 111.14 23.0518 108.07 23.0518C105 23.0518 102.488 24.075 100.349 26.2146C98.2094 28.3541 97.1861 30.8657 97.1861 33.9355V85.6563C97.1861 88.819 96.535 91.8888 95.3257 94.6795C94.1164 97.4702 92.3489 99.9818 90.2094 102.121C88.0699 104.261 85.4652 105.935 82.6745 107.145C79.8838 108.354 76.7211 109.005 73.4653 109.005C70.3025 109.005 67.2328 108.447 64.5351 107.238C61.7444 105.935 59.2328 104.354 57.2793 102.307C55.2328 100.168 53.5583 97.7493 52.349 94.8656C51.1397 92.1679 50.5816 89.0981 50.5816 85.9353V34.2146C50.5816 31.1448 49.5584 28.6332 47.4188 26.4936C45.2793 24.3541 42.7677 23.3308 39.6979 23.3308C36.6282 23.3308 34.1165 24.3541 31.977 26.4936C29.8375 28.6332 28.8142 31.1448 28.8142 34.2146V85.9353C28.8142 92.0748 29.9305 97.8423 32.2561 103.331C34.5817 108.819 37.6514 113.47 41.6514 117.47C45.6514 121.47 50.3025 124.633 55.7909 127.051C61.1862 129.47 66.9536 130.772 73.0001 130.865L73.2792 130.586H73.6513C80.535 130.679 86.4885 129.098 91.4187 125.842L91.4187 125.842Z"
        fill="white" />
</svg>