<svg width="150" height="150" viewBox="0 0 150 150" fill="none" xmlns="http://www.w3.org/2000/svg">
<path d="M74.8951 3.08392C35.2543 3.08392 3.29371 35.2782 3.29371 74.8951C3.29371 114.512 35.2543 146.706 74.8951 146.706C114.512 146.706 146.916 114.536 146.916 74.8951C146.916 35.2544 114.512 3.08392 74.8951 3.08392ZM9.29371 74.8951C9.29371 38.568 38.5919 9.08392 74.8951 9.08392C111.222 9.08392 140.916 38.5918 140.916 74.8951C140.916 111.198 111.222 140.706 74.8951 140.706C38.5919 140.706 9.29371 111.222 9.29371 74.8951ZM74.8951 3C114.782 3 147 35.2288 147 74.8951C147 114.572 114.771 147 74.8951 147C35.2342 147 3 114.578 3 74.8951C3 35.2233 35.2233 3 74.8951 3ZM74.8951 6.08392C36.9231 6.08392 6.29371 36.9231 6.29371 74.8951C6.29371 112.867 36.9231 143.706 74.8951 143.706C112.867 143.706 143.916 112.867 143.916 74.8951C143.916 36.9231 112.867 6.08392 74.8951 6.08392Z" stroke="url(#paint0_linear_59_3)" stroke-width="6"/>
<path d="M109.891 50.592C109.891 54.456 108.281 57.584 105.061 59.976C101.841 62.368 97.6091 63.564 92.3651 63.564C90.1571 63.564 88.4091 63.242 87.1211 62.598C88.1331 60.206 88.7771 57.538 89.0531 54.594C89.4211 51.558 89.6051 49.626 89.6051 48.798C89.6051 44.934 88.2711 43.002 85.6031 43.002C83.7631 43.002 81.7851 44.152 79.6691 46.452C77.6451 48.752 75.7591 51.696 74.0111 55.284C70.1471 63.564 68.2151 71.89 68.2151 80.262C68.2151 84.862 69.0891 88.22 70.8371 90.336C72.5851 92.36 75.3911 93.372 79.2551 93.372C84.5911 93.372 89.3751 91.164 93.6071 86.748C94.8031 85.368 95.7231 83.896 96.3671 82.332C99.8631 84.172 101.611 87.622 101.611 92.682C101.611 97.834 98.7591 102.112 93.0551 105.516C87.1671 109.012 79.5311 110.76 70.1471 110.76C51.4711 110.76 42.1331 100.87 42.1331 81.09C42.1331 66.646 46.2271 55.284 54.4151 47.004C62.3271 38.908 73.5511 34.86 88.0871 34.86C102.623 34.86 109.891 40.104 109.891 50.592Z" fill="url(#paint1_linear_59_3)"/>
<defs>
<linearGradient id="paint0_linear_59_3" x1="39.9103" y1="3.16061e-07" x2="135.695" y2="150.519" gradientUnits="userSpaceOnUse">
<stop stop-color="#2EA4FA"/>
<stop offset="1" stop-color="#8E3FFF"/>
</linearGradient>
<linearGradient id="paint1_linear_59_3" x1="74.5484" y1="63.375" x2="98.9538" y2="101.566" gradientUnits="userSpaceOnUse">
<stop stop-color="#2EA4FA"/>
<stop offset="1" stop-color="#8E3FFF"/>
</linearGradient>
</defs>
</svg>
