<svg width="66" height="66" viewBox="0 0 66 66" fill="none" xmlns="http://www.w3.org/2000/svg">
<path d="M26.6891 18.1594C32.2353 12.1175 41.1092 8.19021 51 8.19021V6C37.4118 6 25.7647 12.7217 20.6807 22.3133V6H18V60H20.6807V32.9622C20.6807 28.2042 22.3445 23.7483 25.2101 19.972C39.3529 29.4881 48.3193 43.9133 48.3193 60H51C51 43.0825 41.5714 28.0531 26.6891 18.1594Z" fill="#262B40"/>
<path d="M32.8402 1.6677C15.6339 1.6677 1.75969 15.6418 1.75969 32.8402C1.75969 50.0386 15.6339 64.0128 32.8402 64.0128C50.0386 64.0128 64.1048 50.0466 64.1048 32.8402C64.1048 15.6339 50.0386 1.6677 32.8402 1.6677ZM3.75969 32.8402C3.75969 16.7384 16.7464 3.6677 32.8402 3.6677C48.942 3.6677 62.1048 16.7464 62.1048 32.8402C62.1048 48.9341 48.942 62.0128 32.8402 62.0128C16.7464 62.0128 3.75969 48.942 3.75969 32.8402ZM32.8402 1C50.5037 1 64.7725 15.2724 64.7725 32.8402C64.7725 50.4117 50.5 64.7725 32.8402 64.7725C15.2742 64.7725 1 50.4135 1 32.8402C1 15.2706 15.2706 1 32.8402 1ZM32.8402 2.6677C16.1901 2.6677 2.75969 16.1901 2.75969 32.8402C2.75969 49.4903 16.1901 63.0128 32.8402 63.0128C49.4903 63.0128 63.1048 49.4903 63.1048 32.8402C63.1048 16.1901 49.4903 2.6677 32.8402 2.6677Z" stroke="#262B40" stroke-width="2"/>
</svg>
