<svg width="209" height="37" viewBox="0 0 209 37" fill="none" xmlns="http://www.w3.org/2000/svg">
<path d="M99.1729 30.168C99.1729 28.952 99.6369 28.008 100.565 27.336C101.525 26.664 102.677 26.328 104.021 26.328C105.365 26.328 106.437 26.664 107.237 27.336C108.069 28.008 108.485 28.952 108.485 30.168C108.485 31.384 108.021 32.328 107.093 33C106.197 33.64 105.077 33.96 103.733 33.96C102.389 33.96 101.285 33.64 100.421 33C99.5889 32.328 99.1729 31.384 99.1729 30.168ZM136.509 13.032C136.509 14.376 135.949 15.464 134.829 16.296C133.709 17.128 132.237 17.544 130.413 17.544C129.645 17.544 129.037 17.432 128.589 17.208C128.941 16.376 129.165 15.448 129.261 14.424C129.389 13.368 129.453 12.696 129.453 12.408C129.453 11.064 128.989 10.392 128.061 10.392C127.421 10.392 126.733 10.792 125.997 11.592C125.293 12.392 124.637 13.416 124.029 14.664C122.685 17.544 122.013 20.44 122.013 23.352C122.013 24.952 122.317 26.12 122.925 26.856C123.533 27.56 124.509 27.912 125.853 27.912C127.709 27.912 129.373 27.144 130.845 25.608C131.261 25.128 131.581 24.616 131.805 24.072C133.021 24.712 133.629 25.912 133.629 27.672C133.629 29.464 132.637 30.952 130.653 32.136C128.605 33.352 125.949 33.96 122.685 33.96C116.189 33.96 112.941 30.52 112.941 23.64C112.941 18.616 114.365 14.664 117.213 11.784C119.965 8.968 123.869 7.56 128.925 7.56C133.981 7.56 136.509 9.384 136.509 13.032ZM152.809 19.512C153.961 17.464 154.537 15.4 154.537 13.32C154.537 11.944 154.041 11.256 153.049 11.256C152.281 11.256 151.497 11.912 150.697 13.224C149.865 14.536 149.321 16.04 149.065 17.736L146.569 33L136.633 33.96L141.529 8.52L149.449 7.56L148.585 12.408C150.153 9.176 152.697 7.56 156.217 7.56C158.073 7.56 159.497 8.04 160.489 9C161.513 9.96 162.025 11.432 162.025 13.416C162.025 15.368 161.369 16.968 160.057 18.216C158.777 19.464 157.033 20.088 154.825 20.088C153.865 20.088 153.193 19.896 152.809 19.512ZM197.376 33.96C193.504 33.96 191.568 32.456 191.568 29.448C191.568 28.136 191.84 26.216 192.384 23.688C192.96 21.128 193.344 19.336 193.536 18.312C193.984 15.976 194.208 14.44 194.208 13.704C194.208 12.072 193.6 11.256 192.384 11.256C191.584 11.256 190.8 11.816 190.032 12.936C189.264 14.024 188.704 15.672 188.352 17.88L185.376 33L176.016 33.96L178.608 20.904C178.896 19.464 179.168 17.928 179.424 16.296C179.68 14.664 179.808 13.72 179.808 13.464C179.808 11.992 179.264 11.256 178.176 11.256C177.44 11.256 176.672 11.8 175.872 12.888C175.072 13.976 174.448 15.64 174 17.88L171.072 33L161.616 33.96L166.656 8.52L174.48 7.56L173.664 12.408C174.496 10.68 175.68 9.448 177.216 8.712C178.752 7.944 180.72 7.56 183.12 7.56C184.496 7.56 185.632 7.896 186.528 8.568C187.424 9.24 188.016 10.12 188.304 11.208C188.848 10.088 189.808 9.208 191.184 8.568C192.592 7.896 194.144 7.56 195.84 7.56C197.568 7.56 198.848 7.752 199.68 8.136C200.544 8.488 201.232 8.968 201.744 9.576C202.608 10.696 203.04 12.28 203.04 14.328C203.04 16.344 202.608 19.448 201.744 23.64C201.296 25.688 201.072 27.096 201.072 27.864C201.072 28.6 201.28 29.192 201.696 29.64C202.144 30.088 202.688 30.344 203.328 30.408C203.008 31.496 202.288 32.36 201.168 33C200.08 33.64 198.816 33.96 197.376 33.96Z" fill="url(#paint0_linear_52_2)"/>
<path d="M4.25475 21.288C4.25475 15.24 5.82275 10.312 8.95875 6.504C12.2868 2.376 16.8468 0.311997 22.6388 0.311997C26.8308 0.311997 29.9828 1.336 32.0948 3.384C34.2068 5.4 35.2628 8.552 35.2628 12.84C35.2628 19.368 33.5988 24.536 30.2708 28.344C26.9748 32.088 22.5588 33.96 17.0228 33.96C12.7028 33.96 9.48675 32.888 7.37475 30.744C5.29475 28.568 4.25475 25.416 4.25475 21.288ZM16.8788 11.352C15.4388 17.112 14.7188 22.264 14.7188 26.808C14.7188 27.896 14.8948 28.792 15.2468 29.496C15.6308 30.2 16.3028 30.552 17.2628 30.552C18.2548 30.552 19.0548 30.328 19.6628 29.88C20.2708 29.4 20.8148 28.632 21.2948 27.576C22.0628 25.848 22.7988 23.16 23.5028 19.512C24.2388 15.832 24.6388 13.24 24.7028 11.736C24.7668 10.2 24.7988 8.856 24.7988 7.704C24.7988 6.552 24.6228 5.608 24.2708 4.872C23.9188 4.136 23.2628 3.768 22.3028 3.768C21.3748 3.768 20.5908 4.056 19.9508 4.632C18.7668 5.72 17.7428 7.96 16.8788 11.352ZM37.1809 33L42.6529 3.816L43.1809 1.32H53.4529L47.4049 33H37.1809ZM66.8929 30.168C66.0289 32.696 63.9329 33.96 60.6049 33.96C58.1409 33.96 56.0609 32.488 54.3649 29.544C52.6369 26.6 51.6129 22.728 51.2929 17.928C54.8129 11.496 57.7889 6.952 60.2209 4.296C62.5569 1.768 64.9409 0.503998 67.3729 0.503998C68.6849 0.503998 69.8049 0.855998 70.7329 1.56C71.6929 2.264 72.2849 3.176 72.5089 4.296C71.4209 4.744 70.6209 5.144 70.1089 5.496C68.8289 6.456 67.3249 8.008 65.5969 10.152L61.2289 15.384C60.5249 16.216 60.0289 16.824 59.7409 17.208C60.2209 19.896 61.1809 22.568 62.6209 25.224C63.9969 27.752 65.4209 29.4 66.8929 30.168ZM71.8999 25.896C71.8999 24.648 72.0599 23.224 72.3799 21.624L76.2679 1.32H86.8759L83.0359 21.768C82.7479 23.272 82.6039 24.584 82.6039 25.704C82.6039 26.792 82.8279 27.624 83.2759 28.2C83.7559 28.776 84.4279 29.064 85.2919 29.064C86.1559 29.064 86.8599 28.952 87.4039 28.728C87.9479 28.504 88.4439 28.12 88.8919 27.576C89.7559 26.488 90.4599 24.552 91.0039 21.768L94.8919 1.32H102.14L98.2999 21.72C97.4039 26.264 95.7239 29.448 93.2599 31.272C90.8599 33.064 87.2919 33.96 82.5559 33.96C79.0039 33.96 76.2839 33.192 74.3959 31.656C72.7319 30.312 71.8999 28.392 71.8999 25.896Z" fill="#61DAFB"/>
<defs>
<linearGradient id="paint0_linear_52_2" x1="151.194" y1="11.4167" x2="155.918" y2="38.4817" gradientUnits="userSpaceOnUse">
<stop stop-color="#2EA4FA"/>
<stop offset="1" stop-color="#8E3FFF"/>
</linearGradient>
</defs>
</svg>
