<svg width="200" height="77" viewBox="0 0 200 77" fill="none" xmlns="http://www.w3.org/2000/svg">
<path d="M0 44.673C0 26.8487 14.4495 12.3992 32.2738 12.3992C50.0982 12.3992 64.5477 26.8487 64.5477 44.673C64.5477 62.4974 50.0982 76.9469 32.2738 76.9469C14.4495 76.9469 0 62.4974 0 44.673Z" fill="#61DAFB"/>
<path d="M0 44.6733C0 26.8489 14.4495 12.3994 32.2738 12.3994C50.0982 12.3994 64.5477 26.8489 64.5477 44.6733C64.5477 62.4976 50.0982 76.9471 32.2738 76.9471C14.4495 76.9471 0 62.4976 0 44.6733Z" fill="#61DAFB"/>
<path d="M39.3391 66.5514C40.2998 65.9109 41.1805 65.1904 41.9811 64.3898C42.2213 65.1104 42.5815 65.7508 43.182 66.3112C44.1026 67.2319 45.1834 67.6723 46.5044 67.6723C47.8254 67.6723 48.9062 67.2319 49.8269 66.3112C50.7475 65.3906 51.1879 64.3098 51.1879 62.9888V27.0023C51.1879 25.6813 50.7475 24.6005 49.8269 23.6799C48.9062 22.7592 47.8254 22.3188 46.5044 22.3188C45.1834 22.3188 44.1026 22.7592 43.182 23.6799C42.2613 24.6005 41.821 25.6813 41.821 27.0023V49.2587C41.821 50.6197 41.5407 51.9407 41.0204 53.1415C40.5 54.3424 39.7394 55.4232 38.8188 56.3439C37.8981 57.2646 36.7772 57.9851 35.5764 58.5055C34.3755 59.0259 33.0145 59.3061 31.6134 59.3061C30.2524 59.3061 28.9315 59.0659 27.7706 58.5455C26.5697 57.9851 25.4889 57.3046 24.6483 56.424C23.7677 55.5033 23.0471 54.4625 22.5268 53.2216C22.0064 52.0608 21.7662 50.7398 21.7662 49.3788V27.1224C21.7662 25.8014 21.3259 24.7206 20.4052 23.7999C19.4845 22.8793 18.4037 22.4389 17.0827 22.4389C15.7618 22.4389 14.681 22.8793 13.7603 23.7999C12.8396 24.7206 12.3993 25.8014 12.3993 27.1224V49.3788C12.3993 52.0207 12.8797 54.5026 13.8804 56.8643C14.8811 59.226 16.2021 61.2275 17.9234 62.9488C19.6446 64.67 21.6461 66.031 24.0078 67.0718C26.3295 68.1126 28.8114 68.673 31.4133 68.713L31.5334 68.5929H31.6935C34.6557 68.6329 37.2176 67.9524 39.3391 66.5514L39.3391 66.5514Z" fill="white"/>
<path d="M99.9405 67.7921C102.863 66.5512 105.344 64.8699 107.466 62.7484C109.588 60.6268 111.269 58.145 112.51 55.2228C113.751 52.3007 114.351 49.2584 114.351 45.976C114.351 42.6936 113.711 39.6514 112.47 36.7292C111.229 33.8071 109.548 31.3252 107.426 29.2037C105.304 27.0821 102.823 25.4009 99.9004 24.16C96.9783 22.919 93.936 22.3186 90.6536 22.3186C87.3712 22.3186 84.329 22.9591 81.4068 24.2C78.4847 25.4409 76.0028 27.1222 73.8813 29.2437C71.7597 31.3653 70.0785 33.8471 68.8376 36.7692C67.5966 39.6914 66.9562 42.7337 66.9562 46.0161C66.9562 49.2985 67.5566 52.3407 68.7975 55.2629C70.0384 58.185 71.7197 60.6668 73.8412 62.7884C75.9628 64.91 78.4446 66.5912 81.3668 67.8321C84.2889 69.073 87.3312 69.7135 90.6136 69.7135L90.7737 69.6334C94.0161 69.5934 97.0183 68.993 99.9404 67.7921H99.9405ZM90.6136 31.8456C92.6151 31.8456 94.4564 32.2059 96.1377 32.9264C97.8189 33.647 99.34 34.6877 100.621 35.9687C101.902 37.2496 102.943 38.7707 103.663 40.452C104.384 42.1332 104.744 43.9746 104.744 45.976C104.744 47.9375 104.384 49.8189 103.663 51.5001C102.943 53.1813 101.902 54.7024 100.621 55.9834C99.34 57.2643 97.8189 58.3051 96.1377 59.0256C94.4564 59.7461 92.6151 60.1064 90.6136 60.1064C88.6522 60.1064 86.7708 59.7461 85.0895 59.0256C83.4083 58.3051 81.8872 57.2643 80.6062 55.9834C79.3253 54.7024 78.2845 53.1813 77.564 51.5001C76.8435 49.8189 76.4832 47.9375 76.4832 45.976C76.4832 43.9746 76.8435 42.1332 77.564 40.452C78.2845 38.7707 79.3253 37.2496 80.6062 35.9687C81.8872 34.6877 83.4083 33.647 85.0895 32.9264C86.7708 32.2059 88.6121 31.8456 90.5736 31.8456H90.6136Z" fill="#1B2B66"/>
<path d="M155.555 31.5432C156.035 31.0629 156.436 30.4624 156.716 29.862C156.996 29.2215 157.116 28.5811 157.116 27.9806C157.116 27.4202 156.996 26.7797 156.756 26.1793C156.516 25.5788 156.196 25.0585 155.755 24.6181C155.315 24.1778 154.795 23.8576 154.194 23.6174C153.594 23.3772 152.993 23.2571 152.393 23.2571C151.792 23.2571 151.192 23.3772 150.591 23.5774C150.031 23.7775 149.351 24.2579 148.91 24.6581L127.535 44.4327V4.72348C127.535 3.40251 127.094 2.28169 126.173 1.36101C125.253 0.440335 124.132 0 122.811 0C121.49 0 120.409 0.440327 119.489 1.36101C118.568 2.28169 118.128 3.40251 118.128 4.72348V63.9671C118.128 65.288 118.568 66.3689 119.489 67.2895C120.409 68.2102 121.49 68.6505 122.811 68.6505C124.132 68.6505 125.253 68.2102 126.173 67.2895C127.094 66.3689 127.535 65.2881 127.535 63.9671V57.5224C129.856 55.3207 131.978 53.2792 134.259 51.1577L148.91 67.1694C149.391 67.6498 149.991 68.0501 150.672 68.2903C151.272 68.4904 151.872 68.6105 152.473 68.6105C153.033 68.6105 153.674 68.4904 154.274 68.2502C154.875 68.0101 155.395 67.6898 155.835 67.2495C156.276 66.8092 156.596 66.2888 156.836 65.6883C157.076 65.0879 157.196 64.4875 157.196 63.887C157.196 63.2065 157.036 62.6061 156.756 62.0056C156.516 61.5253 155.675 60.4845 154.194 58.9234L141.665 44.5528L155.555 31.5432Z" fill="#1B2B66"/>
<path d="M188.131 66.4313C189.091 65.7909 189.972 65.0703 190.772 64.2698C191.013 64.9903 191.373 65.6307 191.973 66.1912C192.894 67.1118 193.975 67.5522 195.296 67.5522C196.617 67.5522 197.698 67.1118 198.618 66.1912C199.539 65.2705 199.979 64.1897 199.979 62.8687V31.1394C199.979 31.1394 199.009 33.6193 195.536 33.6193C192.064 33.6193 190.576 31.1394 190.576 31.1394L190.612 49.1386C190.612 50.4996 190.332 51.8206 189.812 53.0215C189.291 54.2223 188.531 55.3031 187.61 56.2238C186.689 57.1445 185.569 57.865 184.368 58.3854C183.167 58.9058 181.806 59.186 180.405 59.186C179.044 59.186 177.723 58.9458 176.562 58.4254C175.361 57.865 174.28 57.1845 173.44 56.3039C172.559 55.3832 171.839 54.3424 171.318 53.1015C170.798 51.9407 170.558 50.6197 170.558 49.2587V27.0023C170.558 25.6813 170.117 24.6005 169.197 23.6799C168.276 22.7592 167.195 22.3188 165.874 22.3188C164.553 22.3188 163.472 22.7592 162.552 23.6799C161.631 24.6005 161.191 25.6813 161.191 27.0023V49.2587C161.191 51.9006 161.671 54.3825 162.672 56.7442C163.673 59.1059 164.993 61.1074 166.715 62.8287C168.436 64.5499 170.437 65.9109 172.799 66.9517C175.121 67.9925 177.603 68.5529 180.205 68.5929L180.325 68.4728H180.485C183.447 68.5129 186.009 67.8324 188.131 66.4313Z" fill="#1B2B66"/>
<path d="M195.288 22.46C193.906 22.46 192.775 22.9625 191.833 23.9677C191.33 24.4703 191.016 25.0357 190.765 25.7896C190.639 26.2293 190.576 26.7319 190.576 27.2345C190.576 27.6743 190.639 28.114 190.765 28.5538C190.953 29.1192 191.205 29.6218 191.582 30.1244C192.524 31.2552 193.78 31.8834 195.288 31.8834C196.796 31.8834 198.052 31.318 198.932 30.1872C199.434 29.6218 199.749 29.0564 199.874 28.4282C200 27.9884 200 27.5486 200 27.1717C200 26.7948 200 26.4178 199.874 26.1037C199.749 25.287 199.372 24.5959 198.869 24.0305C197.927 22.9625 196.733 22.46 195.288 22.46Z" fill="#1B2B66"/>
</svg>
