<svg width="181" height="52" viewBox="0 0 181 52" fill="none" xmlns="http://www.w3.org/2000/svg">
    <g clip-path="url(#clip0_17_12)">
        <path
            d="M6.25475 30.288C6.25475 24.24 7.82275 19.312 10.9588 15.504C14.2868 11.376 18.8468 9.312 24.6388 9.312C28.8308 9.312 31.9828 10.336 34.0948 12.384C36.2068 14.4 37.2628 17.552 37.2628 21.84C37.2628 28.368 35.5988 33.536 32.2708 37.344C28.9748 41.088 24.5588 42.96 19.0228 42.96C14.7028 42.96 11.4868 41.888 9.37475 39.744C7.29475 37.568 6.25475 34.416 6.25475 30.288ZM18.8788 20.352C17.4388 26.112 16.7188 31.264 16.7188 35.808C16.7188 36.896 16.8948 37.792 17.2468 38.496C17.6308 39.2 18.3028 39.552 19.2628 39.552C20.2548 39.552 21.0548 39.328 21.6628 38.88C22.2708 38.4 22.8148 37.632 23.2948 36.576C24.0628 34.848 24.7988 32.16 25.5028 28.512C26.2388 24.832 26.6388 22.24 26.7028 20.736C26.7668 19.2 26.7988 17.856 26.7988 16.704C26.7988 15.552 26.6228 14.608 26.2708 13.872C25.9188 13.136 25.2628 12.768 24.3028 12.768C23.3748 12.768 22.5908 13.056 21.9508 13.632C20.7668 14.72 19.7428 16.96 18.8788 20.352ZM39.1809 42L44.6529 12.816L45.1809 10.32H55.4529L49.4049 42H39.1809ZM68.8929 39.168C68.0289 41.696 65.9329 42.96 62.6049 42.96C60.1409 42.96 58.0609 41.488 56.3649 38.544C54.6369 35.6 53.6129 31.728 53.2929 26.928C56.8129 20.496 59.7889 15.952 62.2209 13.296C64.5569 10.768 66.9409 9.504 69.3729 9.504C70.6849 9.504 71.8049 9.856 72.7329 10.56C73.6929 11.264 74.2849 12.176 74.5089 13.296C73.4209 13.744 72.6209 14.144 72.1089 14.496C70.8289 15.456 69.3249 17.008 67.5969 19.152L63.2289 24.384C62.5249 25.216 62.0289 25.824 61.7409 26.208C62.2209 28.896 63.1809 31.568 64.6209 34.224C65.9969 36.752 67.4209 38.4 68.8929 39.168ZM73.8999 34.896C73.8999 33.648 74.0599 32.224 74.3799 30.624L78.2679 10.32H88.8759L85.0359 30.768C84.7479 32.272 84.6039 33.584 84.6039 34.704C84.6039 35.792 84.8279 36.624 85.2759 37.2C85.7559 37.776 86.4279 38.064 87.2919 38.064C88.1559 38.064 88.8599 37.952 89.4039 37.728C89.9479 37.504 90.4439 37.12 90.8919 36.576C91.7559 35.488 92.4599 33.552 93.0039 30.768L96.8919 10.32H104.14L100.3 30.72C99.4039 35.264 97.7239 38.448 95.2599 40.272C92.8599 42.064 89.2919 42.96 84.5559 42.96C81.0039 42.96 78.2839 42.192 76.3959 40.656C74.7319 39.312 73.8999 37.392 73.8999 34.896Z"
            fill="#61DAFB" />
        <path
            d="M103.86 39.168C103.86 37.952 104.324 37.008 105.252 36.336C106.212 35.664 107.364 35.328 108.708 35.328C110.052 35.328 111.124 35.664 111.924 36.336C112.756 37.008 113.172 37.952 113.172 39.168C113.172 40.384 112.708 41.328 111.78 42C110.884 42.64 109.764 42.96 108.42 42.96C107.076 42.96 105.972 42.64 105.108 42C104.276 41.328 103.86 40.384 103.86 39.168ZM130.013 19.248C131.741 17.456 134.429 16.56 138.077 16.56C140.093 16.56 141.645 17.104 142.733 18.192C143.853 19.248 144.413 20.768 144.413 22.752C144.413 24.704 143.853 26.384 142.733 27.792C141.645 29.168 140.077 30.144 138.029 30.72C138.189 31.36 138.381 32.016 138.605 32.688L139.277 34.608C139.885 36.24 140.429 37.344 140.909 37.92C141.389 38.496 141.949 38.88 142.589 39.072C142.237 40.384 141.421 41.392 140.141 42.096C139.117 42.672 137.901 42.96 136.493 42.96C132.365 42.96 130.029 39.776 129.484 33.408C129.389 32.512 129.341 31.616 129.341 30.72C130.941 30.272 132.301 29.296 133.421 27.792C134.541 26.288 135.101 24.656 135.101 22.896C135.101 21.136 134.477 20.256 133.229 20.256C132.333 20.256 131.533 20.752 130.829 21.744C130.125 22.736 129.613 24.08 129.293 25.776L126.125 42L116.428 42.96L123.148 8.4L132.797 7.44L131.693 13.152C131.213 15.84 130.653 17.872 130.013 19.248ZM150.005 21.936C151.093 20.4 152.453 19.12 154.085 18.096C155.749 17.072 157.589 16.56 159.605 16.56C161.621 16.56 163.109 16.88 164.069 17.52L173.477 16.56L170.213 34.992C169.093 41.264 167.349 45.632 164.981 48.096C162.709 50.432 159.365 51.6 154.949 51.6C151.589 51.6 148.949 51.072 147.029 50.016C145.109 48.96 144.149 47.552 144.149 45.792C144.149 44.48 144.645 43.44 145.637 42.672C146.629 41.936 147.893 41.568 149.429 41.568C150.773 41.568 151.957 41.872 152.981 42.48C153.589 42.8 154.037 43.184 154.325 43.632C153.589 44.272 153.221 45.12 153.221 46.176C153.221 47.552 153.861 48.24 155.141 48.24C157.285 48.24 158.965 45.712 160.181 40.656C160.533 39.28 160.853 37.904 161.141 36.528C159.701 38.288 157.349 39.168 154.085 39.168C151.813 39.168 150.021 38.624 148.709 37.536C147.397 36.448 146.741 34.624 146.741 32.064C146.741 30.464 147.013 28.768 147.557 26.976C148.101 25.152 148.917 23.472 150.005 21.936ZM156.245 32.208C156.245 34.384 156.805 35.472 157.925 35.472C158.693 35.472 159.445 35.056 160.181 34.224C160.757 33.552 161.157 32.72 161.381 31.728L163.829 19.392C163.669 19.36 163.509 19.312 163.349 19.248C163.029 19.12 162.661 19.056 162.245 19.056C160.293 19.056 158.741 20.656 157.589 23.856C156.693 26.352 156.245 29.136 156.245 32.208Z"
            fill="url(#paint0_linear_17_12)" />
    </g>
    <defs>
        <linearGradient id="paint0_linear_17_12" x1="138.29" y1="23.3958" x2="151.896" y2="59.0414"
            gradientUnits="userSpaceOnUse">
            <stop stop-color="#2EA4FA" />
            <stop offset="1" stop-color="#8E3FFF" />
        </linearGradient>
        <clipPath id="clip0_17_12">
            <rect width="181" height="52" fill="white" />
        </clipPath>
    </defs>`
</svg>